<svg enable-background="new 0 0 100 100" viewBox="0 0 100 100" xmlns="http://www.w3.org/2000/svg"><path d="m57.3 64.8c-1.9-1.9-4-2.8-6.7-2.9-6.4 0-11.4-4.1-12.6-10.1-.2-.8-.2-1.7-.2-2.6.2-1.8 1.5-2.4 2.9-1.2 1 .8 1.9 1.9 2.9 2.8 1.8 1.7 4 1.7 5.9 0 .7-.6 1.4-1.3 2-2 1.4-1.6 1.5-3.6 0-5.2-1-1.1-2-2.1-3.1-3.1-.7-.7-1.3-1.4-.9-2.4s1.4-1.1 2.3-1.2c5-.3 10.2 3.3 11.9 8.3.6 1.6.9 3.3.7 5.1-.3 2.9.9 5.2 3 7.2 5.4 5.2 10.6 10.5 15.9 15.9 1.2 1.2 2.5 2 4 2.4 5.4-7.4 8.6-16.5 8.6-26.3.1-24.6-19.8-44.5-44.4-44.5s-44.5 19.9-44.5 44.5 19.9 44.5 44.5 44.5c9.9 0 19-3.2 26.4-8.7-.4-1.9-1.4-3.4-3-4.9-5.3-5.1-10.5-10.4-15.6-15.6zm4 12.7c-.1 0-.2.1-.4.2-3.6.6-5.9 2.2-5.4 6.5.2 1.8-1.4 2.9-3.4 2.9-1.4 0-2.8 0-4.2 0-2.5-.1-4-1.2-3.7-3.7.4-3.5-1.1-4.8-4.3-5.4-2.2-.4-4.2-1.6-6.1-2.8-.9-.6-1.6-.5-2.2.3 0 .1-.1.1-.1.1-1.5 1.2-2.5 3.7-4.8 2.9-2.6-.8-4.5-2.9-6-5.3-1-1.6-.1-2.9 1-4.1 2.6-2.9 2.6-2.9.8-6.5-.8-1.6-1.4-3.2-1.9-4.8-.8-3-.8-3.1-4-3-2.1.1-3.8-.5-4.8-2.4 0-2.3 0-4.5 0-6.8.9-1.9 2.5-2.6 4.6-2.4h1.4c1.4.1 2.2-.4 2.5-1.9.5-2.1 1.2-4 2.2-6 1.8-3.5 1.8-3.5-.9-6.5-1.8-2-1.8-3.6 0-5.6.8-.9 1.7-1.7 2.5-2.5 2-2 3.6-1.9 5.7.1.6.6 1.3 1.2 1.8 1.8.7.9 1.4.9 2.4.3 2.4-1.4 4.9-2.7 7.7-3.2 1.9-.3 2.5-1.3 2.3-3.1-.2-2.1-.2-4.3 2-5.6h7.2c2.2 1.2 2.5 3.3 2.3 5.5-.2 1.9.4 2.9 2.5 3.3 2.6.5 5 1.7 7.3 3.1 1.1.7 1.9.7 2.7-.3.6-.8 1.4-1.4 2.1-2.1 1.7-1.6 3.1-1.6 4.7-.1 1.1 1 2.1 2 3.1 3.1 1.6 1.8 1.6 3.3.1 5.1-2.8 3.1-2.8 3.1-.9 6.9.9 1.9 1.8 3.9 2.2 6 .3 1.2.8 1.7 2.2 1.8 6.1.2 6.1.2 6.1 6.4 0 4.5-.7 5.2-5.2 5.1-1.9 0-2.8.6-3.3 2.5-1.4 5.8-1.5 5.7-5.7 1.7-2.2-2.1-3.3-3.9-2.8-7.3 1.8-12-6.7-22.8-19.3-23.8-10.2-.9-20.5 6.4-22.2 18.3-1.6 11.9 6.8 22.8 19.2 24.1 2 .2 4-.1 5.9-.4.9-.1 1.7 0 2.3.7 1.7 1.7 3.4 3.4 5.1 5.1 1 .7 1 1.4-.3 1.8z" fill="#24b5ba"/></svg>