<svg enable-background="new 0 0 100 100" viewBox="0 0 100 100" xmlns="http://www.w3.org/2000/svg"><g fill="#24b5ba"><path d="m63.8 26.1h-.1c-1.3 0-2.4-1.1-2.4-2.4v-9.9c0-1.3 1.1-2.4 2.4-2.4h.1c1.3 0 2.4 1.1 2.4 2.4v9.9c-.1 1.3-1.1 2.4-2.4 2.4z"/><path d="m24.7 26.1h-.1c-1.3 0-2.4-1.1-2.4-2.4v-9.9c0-1.3 1.1-2.4 2.4-2.4h.1c1.3 0 2.4 1.1 2.4 2.4v9.9c0 1.3-1.1 2.4-2.4 2.4z"/><path d="m71.2 50.6c-10.8 0-19.5 8.7-19.5 19.5s8.7 19.5 19.5 19.5 19.5-8.7 19.5-19.5-8.7-19.5-19.5-19.5zm6.3 31.9c-2.8.4-5.5.4-8.3-.3-.7-.2-1.3-.4-2-.5-1.4-.2-2.3.2-3.6 1.3-.6-1.4-1.2-2.9-1.8-4.3 2.4-1.8 3.8-4 3.7-7.2-1.3 0-2.5 0-3.7 0 0-1.3 0-2.6 0-3.9h2.7c0-.1 0-.3-.1-.4-2.2-5.2 1.2-10.8 6.9-11.2 2-.1 4 0 5.7 1.3 1.8 1.4 2.6 3.3 3 5.5-1.7.2-3.3.5-4.9.7-.4 0-.5 0-.7-.4-.6-1.3-1.9-2.1-3.3-1.8-1.2.3-2.2 1.4-2.1 2.8 0 .9.3 1.8.4 2.7 0 .4.3.5.7.4h4.7v3.9c-1.4 0-2.9 0-4.4 0 .1 2.1-.6 3.9-1.6 5.6 1.2.7 2.4 1 3.7 1.1 2.1.3 4.1 0 6.2-.4.2 0 .5.1.6.3.6 1.2 1.1 2.4 1.8 3.8-1.2.6-2.4.8-3.6 1z"/><path d="m12.7 25c.8-2.3 2.6-3.7 5.1-3.7.6 0 1.4-.2 1.8.1s.1 1.2.1 1.8c0 1.7.5 3.2 1.9 4.3 1.5 1.1 3.1 1.4 4.9.7 1.7-.7 2.8-2.1 3-4 .1-.8.1-1.6 0-2.4 0-.5.1-.6.6-.6h18.2 9.8c.5 0 .7.2.6.7 0 1.1 0 2.2.3 3.3.8 2.7 4.2 4.1 6.8 2.8 1.8-1 2.7-2.5 2.8-4.6 0-.6 0-1.2 0-1.8 0-.2 0-.4.3-.4 1.1 0 2.2-.1 3.3.3 2 .6 3.4 2.4 3.6 4.5v.9 18c0 .5-.1.7-.6.7-1.2 0-2.3 0-3.5 0-.5 0-.7-.1-.7-.7 0-2.9 0-5.7 0-8.6 0-.5-.2-.6-.6-.6-17.5 0-35.1 0-52.6 0-.4 0-.6.1-.6.5v32.8c0 .8.1.9 1 .9h27.6c.6 0 .7.1.7.7v3.6c0 .4-.1.5-.5.5-9.5 0-18.9 0-28.4 0-2.4 0-4.2-1.4-5-3.7 0 0 0-45.8.1-46z"/><path d="m90.6 69.4c-.2-.4-.2-.9-.1-1.4h.1z"/><path d="m90.6 72.2h-.1c0-.5-.1-.9.1-1.4z"/><path d="m69 89.5c.5 0 .9-.1 1.4.1-.5 0-.9 0-1.4 0 0 0 0 0 0-.1z"/><path d="m31.9 45.7v4.4c0 .4-.1.5-.5.5-2.9 0-5.9 0-8.8 0-.4 0-.5-.1-.5-.5 0-3 0-5.9 0-8.9 0-.4.1-.5.5-.5h8.9c.3 0 .4.1.4.4z"/><path d="m46.6 45.8v4.3c0 .4-.1.5-.5.5-2.9 0-5.8 0-8.7 0-.4 0-.5-.1-.5-.5 0-2.9 0-5.8 0-8.7 0-.4.1-.5.5-.5h8.7c.4 0 .5.1.5.5z"/><path d="m61.2 45.7v4.4c0 .3-.1.5-.4.5-3 0-5.9 0-8.9 0-.3 0-.4-.1-.4-.4 0-3 0-5.9 0-8.9 0-.3.1-.4.4-.4h8.9c.4 0 .4.1.4.5z"/><path d="m36.9 60.3c0-1.4 0-2.9 0-4.3 0-.4.1-.6.5-.6h8.7c.4 0 .5.1.5.6v8.7c0 .4-.1.5-.5.5-2.9 0-5.8 0-8.7 0-.4 0-.5-.1-.5-.5 0-1.5 0-2.9 0-4.4z"/><path d="m27.1 55.5h4.3c.4 0 .5.1.5.5v8.8c0 .3-.1.5-.4.5-2.9 0-5.9 0-8.8 0-.4 0-.5-.1-.5-.5 0-2.9 0-5.8 0-8.7 0-.4.1-.5.5-.5 1.5-.1 2.9-.1 4.4-.1z"/></g></svg>