<svg enable-background="new 0 0 100 100" viewBox="0 0 100 100" xmlns="http://www.w3.org/2000/svg"><g fill="#24b5ba"><path d="m21.3 58-2.2-9.7-2.3 9.7h-5.5l-5.2-16.2h5.7l2.4 10.6 2.4-10.6h5.2l2.4 10.6 2.4-10.6h5.5l-5.3 16.2z"/><path d="m47.2 58-2.2-9.7-2.4 9.7h-5.5l-5.2-16.1h5.7l2.4 10.6 2.4-10.6h5.2l2.4 10.6 2.4-10.6h5.6l-5.3 16.1z"/><path d="m73 58-2.2-9.7-2.3 9.7h-5.5l-5.2-16.1h5.7l2.4 10.6 2.4-10.6h5.2l2.4 10.6 2.4-10.6h5.5l-5.3 16.1z"/><path d="m87.8 55.8c0 1.4-1 2.4-2.4 2.4s-2.3-1-2.3-2.4 1-2.3 2.3-2.3c1.5-.1 2.4.9 2.4 2.3z"/><path d="m93.9 55.8c0 1.4-1 2.4-2.4 2.4s-2.3-1-2.3-2.4 1-2.3 2.3-2.3c1.5-.1 2.4.9 2.4 2.3z"/></g></svg>