<svg viewBox="0 0 703 358" xmlns="http://www.w3.org/2000/svg"><path d="m-3.54-9.13h710.54v378.13h-710.54z" fill="#c0ff00"/><path d="m316.46 83.19h86.89v4.34h-86.89z" fill="#32cd33"/><path d="m190.54 178.99 15.91 27.55h-31.81z" fill="#95e200"/><path d="m222.35 178.99 15.91 27.55h-31.81z" fill="#95e200"/><path d="m285.97 178.99 15.91 27.55h-31.81z" fill="#32cd33"/><path d="m317.78 178.99 15.91 27.55h-31.81z" fill="#95e200"/><path d="m349.59 178.99 15.91 27.55h-31.81z" fill="#95e200"/><path d="m413.21 178.99 15.91 27.55h-31.81z" fill="#32cd33"/><path d="m476.83 178.99 15.91 27.55h-31.81z" fill="#95e200"/><path d="m508.64 178.99 15.9 27.55h-31.8z" fill="#32cd33"/><path d="m429.13 205.93-15.91-27.55h31.81z" fill="#32cd33"/><path d="m397.32 205.93-15.91-27.55h31.81z" fill="#95e200"/><path d="m365.51 205.93-15.91-27.55h31.81z" fill="#32cd33"/><path d="m206.44 207.15 15.9 27.55h-31.81z" fill="#95e200"/><path d="m238.25 207.15 15.9 27.55h-31.81z" fill="#95e200"/><path d="m270.06 207.15 15.9 27.55h-31.81z" fill="#32cd33"/><path d="m301.87 207.15 15.9 27.55h-31.81z" fill="#32cd33"/><path d="m365.49 207.15 15.9 27.55h-31.81z" fill="#95e200"/><path d="m429.1 207.15 15.91 27.55h-31.81z" fill="#95e200"/><path d="m460.91 207.15 15.91 27.55h-31.81z" fill="#95e200"/><path d="m492.72 207.15 15.91 27.55h-31.81z" fill="#32cd33"/><path d="m524.53 207.15 15.91 27.55h-31.81z" fill="#95e200"/><path d="m508.64 234.09-15.9-27.55h31.8z" fill="#32cd33"/><path d="m413.21 234.09-15.9-27.55h31.81z" fill="#32cd33"/><path d="m317.78 234.09-15.9-27.55h31.81z" fill="#95e200"/><path d="m285.97 234.09-15.9-27.55h31.81z" fill="#32cd33"/><path d="m254.16 234.09-15.9-27.55h31.81z" fill="#95e200"/><path d="m190.54 234.09-15.9-27.55h31.81z" fill="#32cd33"/><path d="m222.38 235.31 15.9 27.55h-31.81z" fill="#95e200"/><path d="m254.19 235.31 15.9 27.55h-31.81z" fill="#95e200"/><path d="m286 235.31 15.9 27.55h-31.81z" fill="#32cd33"/><path d="m508.66 235.31 15.91 27.55h-31.81z" fill="#32cd33"/><path d="m460.96 262.25-15.9-27.55h31.81z" fill="#95e200"/><path d="m429.15 262.25-15.9-27.55h31.81z" fill="#32cd33"/><path d="m270.1 262.25-15.9-27.55h31.81z" fill="#95e200"/><path d="m206.46 263.47 15.91 27.55h-31.81z" fill="#95e200"/><path d="m460.94 263.47 15.9 27.55h-31.81z" fill="#95e200"/><path d="m445.04 290.41-15.9-27.55h31.81z" fill="#32cd33"/><path d="m254.19 290.41-15.91-27.55h31.81z" fill="#32cd33"/><path d="m190.57 290.41-15.91-27.55h31.81z" fill="#95e200"/><path d="m508.65 178.19-15.9-27.55h31.81z" fill="#32cd33"/><path d="m476.84 178.19-15.9-27.55h31.81z" fill="#95e200"/><path d="m413.22 178.19-15.9-27.55h31.81z" fill="#95e200"/><path d="m381.41 178.19-15.9-27.55h31.81z" fill="#32cd33"/><path d="m317.79 178.19-15.9-27.55h31.81z" fill="#95e200"/><path d="m285.98 178.19-15.9-27.55h31.81z" fill="#95e200"/><path d="m254.17 178.19-15.9-27.55h31.81z" fill="#95e200"/><path d="m222.37 178.19-15.91-27.55h31.81z" fill="#95e200"/><path d="m190.56 178.19-15.91-27.55h31.81z" fill="#32cd33"/><path d="m174.64 151.25 15.9 27.55h-31.81z" fill="#95e200"/><path d="m238.26 151.25 15.9 27.55h-31.81z" fill="#32cd33"/><path d="m301.88 151.25 15.9 27.55h-31.81z" fill="#32cd33"/><path d="m333.69 151.25 15.9 27.55h-31.81z" fill="#95e200"/><path d="m365.5 151.25 15.9 27.55h-31.81z" fill="#95e200"/><path d="m397.31 151.25 15.9 27.55h-31.81z" fill="#32cd33"/><path d="m429.12 151.25 15.9 27.55h-31.81z" fill="#95e200"/><path d="m524.54 151.25 15.91 27.55h-31.81z" fill="#95e200"/><path d="m524.57 150.03-15.91-27.55h31.81z" fill="#95e200"/><path d="m460.95 150.03-15.91-27.55h31.81z" fill="#32cd33"/><path d="m397.33 150.03-15.9-27.55h31.81z" fill="#95e200"/><path d="m333.71 150.03-15.9-27.55h31.81z" fill="#32cd33"/><path d="m270.09 150.03-15.9-27.55h31.81z" fill="#32cd33"/><path d="m206.47 150.03-15.9-27.55h31.81z" fill="#32cd33"/><path d="m174.66 150.03-15.9-27.55h31.81z" fill="#95e200"/><path d="m317.79 123.09 15.91 27.55h-31.81z" fill="#32cd33"/><path d="m381.41 123.09 15.91 27.55h-31.81z" fill="#32cd33"/><path d="m445.03 123.09 15.91 27.55h-31.81z" fill="#95e200"/><path d="m508.65 123.09 15.91 27.55h-31.81z" fill="#32cd33"/><path d="m476.82 121.87-15.91-27.55h31.81z" fill="#95e200"/><path d="m445.01 121.87-15.91-27.55h31.81z" fill="#95e200"/><path d="m254.15 121.87-15.9-27.55h31.81z" fill="#32cd33"/><path d="m190.53 121.87-15.9-27.55h31.81z" fill="#32cd33"/><path d="m206.43 94.93 15.9 27.55h-31.81z" fill="#95e200"/><path d="m238.23 94.93 15.91 27.55h-31.81z" fill="#95e200"/><path d="m270.04 94.93 15.91 27.55h-31.81z" fill="#32cd33"/><path d="m429.09 94.93 15.91 27.55h-31.81z" fill="#95e200"/><path d="m492.74 93.71-15.91-27.55h31.81z" fill="#32cd33"/><path d="m429.12 93.71-15.91-27.55h31.81z" fill="#95e200"/><path d="m238.26 93.71-15.91-27.55h31.81z" fill="#95e200"/><path d="m190.53 66.77 15.91 27.55h-31.81z" fill="#32cd33"/><path d="m317.77 66.77 15.91 27.55h-31.81z" fill="#32cd33"/><path d="m508.63 66.77 15.9 27.55h-31.81z" fill="#95e200"/><path d="m474.9 103.14h86.89v4.34h-86.89z" fill="#95e200"/><path d="m521.5 171.19h86.89v4.34h-86.89z" fill="#95e200"/><path d="m507.61 250.27h52.14v4.34h-52.14z" fill="#32cd33"/><path d="m135.5 250.27h86.89v4.34h-86.89z" fill="#95e200"/><path d="m87.73 167.2h86.89v4.34h-86.89z" fill="#95e200"/><path d="m286.42 248.71h86.89v4.34h-86.89z" fill="#32cd33"/><path d="m275.38 113.23h86.89v4.34h-86.89z" fill="#32cd33"/><path d="m332.06 221.15h34.76v4.34h-34.76z" fill="#95e200"/><g fill="#575756"><path d="m622.34 146.26-51.39.56v3.74l-6 .07.08 7.36 6-.07.58 52.53-6.08.06s-2.37.57-2.42-3.26l-.5-49.25-6 .07-.08-7.36 5.95-.07v-3.73l-53.77.59-.55 1.57 6-.06-2.4 6.93 14.91 45.46-8.93.1-11.85-37.15.41 37.28-8.46.09-.57-52.53-6 .07-.08-7.36 6-.07-.23-20.27s-1-3.37 4.34-3.26 4.09 0 4.09 0l.25 23.49h2.4l7.83-23.34 8.93-.09-8.08 23.34h-6l-.54 1.57 52.25-.57-.07-7.07-12 .13-.07-5.84s-.8-2.61 4.2-2.66l32.46-.36-2.79 6.22s-.5 2.27-5.84 2.33l-5.33.06s-2.15-.1-2.11 3.5v3.6l51.4-.57z"/><path d="m558.63 172.88h1.79v25.32h-1.79z" transform="matrix(.99993955 -.01099535 .01099535 .99993955 -2 6.16)"/><path d="m493.61 159.84h1.79v33.77h-1.79z" transform="matrix(.99993955 -.01099535 .01099535 .99993955 -1.91 5.44)"/><path d="m458.42 156.59-5.95.07-.4-2.41 13.31-.52v-1.79l-13.69-.13-.41-2.5 6-.07-3.47-20.57a4.7 4.7 0 0 0 -4.21-2.83h-4.64l-3.3 23.53-6 .06-1 7.37 5.95-.06-3.16 22.26-41.88.46-.09-8.75s-.06-7.11-3.19-7.82a7.77 7.77 0 0 0 3-6.22c0-2.33-.07-6.56-.07-6.56l-5.95.06-.09-7.36 6-.06-.14-13s.66-9.16-10.6-10.37c-6.1 0-15.6.17-15.6.17l.26 23.49-6 .07.08 7.36 6-.07.32 29.35h-2l-.13-23.53h-1.79l.26 23.53-35.08.39v4.22l34.78-.38.47 14.44h1.78l-.16-14.42h1.91l.2 19 8.58-.09-.21-19 8.93-.1.21 19 8.58-.1-.21-18.95 41.23-.46-3.66 26.15 9.41-.1 3.13-26.25h8.18l3.69 26.06 9.4-.16zm-80.93-29.13h4.53a4.14 4.14 0 0 1 4.45 4.24l.12 11.22-8.93.1zm.25 22.87 8.94-.1s.15-1.53 0 3.81-4.36 4.82-4.36 4.82h-4.52zm.32 29.35-.13-12.68c10.52-1.69 9 5.27 9 5.27l.08 7.41zm64.87-22.92.58-4.89.7 4.88zm3.3 22.17 2.66-22.23h1.27l3.15 22.17z"/><path d="m306.84 131.73s-4.15-.73-4.09 3.89l.07 4.61 12-.13.16 15-6 .06.09 7.36 5.95-.06.54 48.63s-1 3.91 3.2 3.86l5.29-.06-.57-52.52-6 .06-.08-7.36 6-.06-.13-11.45s-1.38-3.56 3.73-3.56l5.11-.05a5.37 5.37 0 0 0 4.86-3.13l2.43-5.41z"/><path d="m311.11 173.16h1.79v33.77h-1.79z" transform="matrix(.99993955 -.01099535 .01099535 .99993955 -2.07 3.44)"/><path d="m257.42 150.29 11 20.23s3.15 6.22 3.21 11.78l.12 10.6s-.17 8.77-9.17 10.78c-5.83 0-8.34 0-8.34 0s-7.54-.65-8.94-10.49c.09-7.16-.09-8.57-.09-8.57s-.39-3.4 3.5-5.16l5.11-2.32.18 12.86s-.59 6.45 4.6 6.16 4.4-6.16 4.4-6.16l-.18-9.23a55.7 55.7 0 0 0 -4.36-11.26c-2.78-5.14-10.46-19.11-10.46-19.11l-6 .06-2.74-7.33 5.95-.06-.58-4.67-.09-10s2.18-9 8.16-9.4 7.79-.39 7.79-.39 7.83 0 10 7.91a49.56 49.56 0 0 1 .51 6.27s.51 3.42-4 5.51l-4.56 2.09-.23-10.69s-.91-3.64-4.45-3.55a4.42 4.42 0 0 0 -4.48 4.69c0 1.72.25 9.7.25 9.7l.57 2.47-5.95.07 1 2.77 15.53-.17v1.79l-14.59.5 1.31 2.43z"/><path d="m206.47 178.43c0-3.66-2.2-5.17-5-6.73 4.63-.74 4.81-6.85 4.81-6.85v-4l-6 .07-.08-7.36 6-.07s0-5.84-.15-13a10.77 10.77 0 0 0 -10.71-10.37l-15.49.17.26 23.49-6 .07.08 7.36 5.95-.07.33 29.3h-2.46l-.37-18.64h-1.79l.21 18.62-31 .51-6.34-38.93-5.95.06-.4-2.4 14.5-.54v-1.79l-14.87-.1-.41-2.5 6-.06s-2.25-13.77-3.1-18.93-4.58-4.48-4.58-4.48h-4.64l-3.3 23.53-6 .07-1 7.37 6-.07-5.47 39-40.5.51v4.22l39.88-.44-1.42 9.38 9.41-.11 1.12-9.37 12.56-.14 1.33 9.35 9.4-.11-1.53-9.34 30.38-.33.11 10.75h1.79v-10.77h2.71v18.89s11.11-.12 17.37-.37 8.6-9.16 8.6-9.16-.2-22.02-.24-25.69zm-83.24-26.24.59-4.89.69 4.87zm1.28 38.94 4.68-39h1.27l5.54 38.87zm63.9-52.41 4.64-.05c3.66 0 4.45 4.24 4.45 4.24l.12 10.63-9.05.1zm.24 22.28 9-.1s.7 6.79-3.47 6.89l-5.5.12zm.16 14.77 4.65-.05c4.64-.05 4.46 4.71 4.46 4.71l.11 9.89-9.06.07zm9.33 24.79c0 4.12-4.36 4.46-4.36 4.46h-4.65v-10.38l9-.1s-.04 1.9.01 6.02z"/></g></svg>