<svg viewBox="0 0 1000 275" xmlns="http://www.w3.org/2000/svg"><g fill="#1d1d1b"><path d="m135.53 193.38h15.8l-13.46-88.2h-13.87z"/><path d="m131.13 61c-.6-3.8-1.6-7.6-7.6-7.6h-7.8l-6 39.44h26.27z"/><path d="m94.53 193.38h15.8l11.53-88.2h-13.97z"/><path d="m221.53 83.78h7.8c3.8 0 7.4 2 7.4 7.2v17.84h14.4v-21.82a17.8 17.8 0 0 0 -17.8-17.6h-26v39.44h14.2z"/><path d="m236.73 124.58c0 6.4-3.6 8.2-7.4 8.2h-7.8v-11.6h-14.2v88.2h26a17.8 17.8 0 0 0 17.8-17.6v-41s.2-8.8-8.2-11.4c8.4-2.6 8.2-11.4 8.2-11.4v-6.8h-14.4zm0 63.2c0 5.4-3.6 7.4-7.4 7.4h-7.8v-49.18h7.8c3.8 0 7.4 1.8 7.4 8z"/><path d="m331.73 85.78v-13.4a7.6 7.6 0 1 1 15.2 0v16.2c3.8-1.6 9.4-4.2 10.6-4.8 1.8-1 4-3.2 4-7.8v-5.4c0-9.6-7.8-18.4-17.4-18.6h-9c-10 0-18 8.8-18 18.6v14.42a31 31 0 0 0 .89 7.84h14.86a25.88 25.88 0 0 1 -1.15-7.06z"/><path d="m323.53 107.18 17.2 32.2s6.2 10.8 6.2 19v16a7.6 7.6 0 1 1 -15.2.2v-24.4c-3.6 1.6-9.4 4.2-10.6 4.6-1.8 1-4 3.2-4 7.8v14.42a18.17 18.17 0 0 0 17.4 17.8h9a17.88 17.88 0 0 0 18-17.8v-17.8s.6-9.4-6.4-22.2l-16.88-31.8h-15.76c.33.64.67 1.3 1.04 1.98z"/><path d="m450.33 91a3.69 3.69 0 0 1 3.6-3.4h11.2c4.6 0 6.8-2 7.6-3.8l4.8-10.4h-57.2a4.44 4.44 0 0 0 -4.4 4.4v9.8h20.2v25.24h14.2z"/><path d="m436.13 210.38c0 1 .6 3 4 3h10.2v-88.2h-14.2z"/><path d="m556.52 113.58c0 6.4-3.6 8-7.4 8h-7.6v-14.4h-14.39v88.2h14.39v-60.2h7.6c3.8 0 7.4 2.2 7.4 9v51.2h14.4v-53.6s.4-10.4-5.2-13.2c5.8-1.4 5.2-12.4 5.2-12.4v-9h-14.4z"/><path d="m541.52 68.78h7.6c3.8 0 7.4 2 7.4 7.2v18.84h14.4v-21.82a17.63 17.63 0 0 0 -17.6-17.6h-26.19v39.42h14.39z"/><path d="m633.52 207.38h15.8l11.53-88.2h-13.97z"/><path d="m674.52 207.38h15.8l-13.45-88.2h-13.87z"/><path d="m670.12 75c-.6-3.8-1.6-7.6-7.6-7.6h-7.8l-6 39.44h26.28z"/><path d="m789.32 53.78h-15l-13.58 39.04h14.58z"/><path d="m756.72 53.38h-9.6c-1.6.2-4.6 1-4.6 5.4v34h14.2z"/><path d="m742.52 193.38h14.2v-62.6l19.2 62.6h15l-24.2-76.6 4.16-11.6h-28.36z"/><path d="m866.32 87a3.69 3.69 0 0 1 3.6-3.4h11.2c4.6 0 6.8-2 7.6-3.8l4.8-10.4h-57.2a4.44 4.44 0 0 0 -4.4 4.4v9.8h20.2v25.24h14.2z"/><path d="m852.12 206.38c0 1 .6 3 4 3h10.2v-88.2h-14.2z"/><path d="m121.86 105.18h2.14l-1.07-8.2z"/><path d="m760.74 92.82h-4.02v11.56z"/><path d="m211.53 108.82h15.2v12.36h-15.2z"/><path d="m531.52 94.82h15v12.36h-15z"/><path d="m660.85 119.18h2.15l-1.08-8.2z"/><path d="m99.76 92.82-1.87 12.36h13.97l1.07-8.2 1.07 8.2h13.87l-1.88-12.36z"/><path d="m211.53 108.82h4.8v12.36h-4.8z"/><path d="m226.73 108.82h14.4v12.36h-14.4z"/><path d="m322.88 92.82h-14.88a53.31 53.31 0 0 0 4.47 12.36h15.76l-.32-.6a59 59 0 0 1 -5.03-11.76z"/><path d="m426.13 112.82h14.2v12.36h-14.2z"/><path d="m517.13 94.82h14.4v12.36h-14.4z"/><path d="m546.52 94.82h14.4v12.36h-14.4z"/><path d="m638.75 106.82-1.87 12.36h13.97l1.07-8.2 1.08 8.2h13.87l-1.89-12.36z"/><path d="m750.74 92.82-4.02 11.56v-11.56h-14.2v12.36h28.36l4.44-12.36z"/><path d="m842.12 108.82h14.2v12.36h-14.2z"/><path d="m30.13 170.58h212.6v7.09h-212.6z"/><path d="m740.02 95.46h212.6v7.09h-212.6z"/><path d="m462.02 156.46h212.6v7.09h-212.6z"/><path d="m197.33 108.82h14.2v12.36h-14.2z"/><path d="m123.26 97.5h28.35v3h-28.35z"/><path d="m322.26 97.5h28.35v3h-28.35z"/><path d="m660.26 111.5h28.35v3h-28.35z"/><path d="m199.93 139.03h3v56.69h-3z"/><path d="m428.93 143.03h3v56.69h-3z"/><path d="m520.93 116.95h3v70.87h-3z"/><path d="m735.93 123.03h3v56.69h-3z"/><path d="m844.93 146.12h3v42.52h-3z"/></g></svg>