<svg viewBox="0 0 703 358" xmlns="http://www.w3.org/2000/svg"><path d="m-7-10h717v379h-717z" fill="#1d1d1b"/><path d="m311.46 81.47h86.89v4.34h-86.89z" fill="#32cd33"/><path d="m185.54 177.27 15.91 27.55h-31.81z" fill="#95e200"/><path d="m217.35 177.27 15.91 27.55h-31.81z" fill="#95e200"/><path d="m280.97 177.27 15.91 27.55h-31.81z" fill="#32cd33"/><path d="m312.78 177.27 15.91 27.55h-31.81z" fill="#95e200"/><path d="m344.59 177.27 15.91 27.55h-31.81z" fill="#95e200"/><path d="m408.21 177.27 15.91 27.55h-31.81z" fill="#32cd33"/><path d="m471.83 177.27 15.91 27.55h-31.81z" fill="#95e200"/><path d="m503.64 177.27 15.9 27.55h-31.8z" fill="#32cd33"/><path d="m424.13 204.21-15.91-27.55h31.81z" fill="#32cd33"/><path d="m392.32 204.21-15.91-27.55h31.81z" fill="#95e200"/><path d="m360.51 204.21-15.91-27.55h31.81z" fill="#32cd33"/><path d="m201.44 205.43 15.9 27.55h-31.81z" fill="#95e200"/><path d="m233.25 205.43 15.9 27.55h-31.81z" fill="#95e200"/><path d="m265.06 205.43 15.9 27.55h-31.81z" fill="#32cd33"/><path d="m296.87 205.43 15.9 27.55h-31.81z" fill="#32cd33"/><path d="m360.49 205.43 15.9 27.55h-31.81z" fill="#95e200"/><path d="m424.1 205.43 15.91 27.55h-31.81z" fill="#95e200"/><path d="m455.91 205.43 15.91 27.55h-31.81z" fill="#95e200"/><path d="m487.72 205.43 15.91 27.55h-31.81z" fill="#32cd33"/><path d="m519.53 205.43 15.91 27.55h-31.81z" fill="#95e200"/><path d="m503.64 232.37-15.9-27.55h31.8z" fill="#32cd33"/><path d="m408.21 232.37-15.9-27.55h31.81z" fill="#32cd33"/><path d="m312.78 232.37-15.9-27.55h31.81z" fill="#95e200"/><path d="m280.97 232.37-15.9-27.55h31.81z" fill="#32cd33"/><path d="m249.16 232.37-15.9-27.55h31.81z" fill="#95e200"/><path d="m185.54 232.37-15.9-27.55h31.81z" fill="#32cd33"/><path d="m217.38 233.59 15.9 27.55h-31.81z" fill="#95e200"/><path d="m249.19 233.59 15.9 27.55h-31.81z" fill="#95e200"/><path d="m281 233.59 15.9 27.55h-31.81z" fill="#32cd33"/><path d="m503.66 233.59 15.91 27.55h-31.81z" fill="#32cd33"/><path d="m455.96 260.53-15.9-27.55h31.81z" fill="#95e200"/><path d="m424.15 260.53-15.9-27.55h31.81z" fill="#32cd33"/><path d="m265.1 260.53-15.9-27.55h31.81z" fill="#95e200"/><path d="m201.46 261.75 15.91 27.55h-31.81z" fill="#95e200"/><path d="m455.94 261.75 15.9 27.55h-31.81z" fill="#95e200"/><path d="m440.04 288.69-15.9-27.55h31.81z" fill="#32cd33"/><path d="m249.19 288.69-15.91-27.55h31.81z" fill="#32cd33"/><path d="m185.57 288.69-15.91-27.55h31.81z" fill="#95e200"/><path d="m503.65 176.47-15.9-27.55h31.81z" fill="#32cd33"/><path d="m471.84 176.47-15.9-27.55h31.81z" fill="#95e200"/><path d="m408.22 176.47-15.9-27.55h31.81z" fill="#95e200"/><path d="m376.41 176.47-15.9-27.55h31.81z" fill="#32cd33"/><g fill="#95e200"><path d="m312.79 176.47-15.9-27.55h31.81z"/><path d="m280.98 176.47-15.9-27.55h31.81z"/><path d="m249.17 176.47-15.9-27.55h31.81z"/><path d="m217.37 176.47-15.91-27.55h31.81z"/></g><path d="m185.56 176.47-15.91-27.55h31.81z" fill="#32cd33"/><path d="m169.64 149.53 15.9 27.55h-31.81z" fill="#95e200"/><path d="m233.26 149.53 15.9 27.55h-31.81z" fill="#32cd33"/><path d="m296.88 149.53 15.9 27.55h-31.81z" fill="#32cd33"/><path d="m328.69 149.53 15.9 27.55h-31.81z" fill="#95e200"/><path d="m360.5 149.53 15.9 27.55h-31.81z" fill="#95e200"/><path d="m392.31 149.53 15.9 27.55h-31.81z" fill="#32cd33"/><path d="m424.12 149.53 15.9 27.55h-31.81z" fill="#95e200"/><path d="m519.54 149.53 15.91 27.55h-31.81z" fill="#95e200"/><path d="m519.57 148.31-15.91-27.55h31.81z" fill="#95e200"/><path d="m455.95 148.31-15.91-27.55h31.81z" fill="#32cd33"/><path d="m392.33 148.31-15.9-27.55h31.81z" fill="#95e200"/><path d="m328.71 148.31-15.9-27.55h31.81z" fill="#32cd33"/><path d="m265.09 148.31-15.9-27.55h31.81z" fill="#32cd33"/><path d="m201.47 148.31-15.9-27.55h31.81z" fill="#32cd33"/><path d="m169.66 148.31-15.9-27.55h31.81z" fill="#95e200"/><path d="m312.79 121.37 15.91 27.55h-31.81z" fill="#32cd33"/><path d="m376.41 121.37 15.91 27.55h-31.81z" fill="#32cd33"/><path d="m440.03 121.37 15.91 27.55h-31.81z" fill="#95e200"/><path d="m503.65 121.37 15.91 27.55h-31.81z" fill="#32cd33"/><path d="m471.82 120.15-15.91-27.55h31.81z" fill="#95e200"/><path d="m440.01 120.15-15.91-27.55h31.81z" fill="#95e200"/><path d="m249.15 120.15-15.9-27.55h31.81z" fill="#32cd33"/><path d="m185.53 120.15-15.9-27.55h31.81z" fill="#32cd33"/><path d="m201.43 93.21 15.9 27.55h-31.81z" fill="#95e200"/><path d="m233.23 93.21 15.91 27.55h-31.81z" fill="#95e200"/><path d="m265.04 93.21 15.91 27.55h-31.81z" fill="#32cd33"/><path d="m424.09 93.21 15.91 27.55h-31.81z" fill="#95e200"/><path d="m487.74 91.99-15.91-27.55h31.81z" fill="#32cd33"/><path d="m424.12 91.99-15.91-27.55h31.81z" fill="#95e200"/><path d="m233.26 91.99-15.91-27.55h31.81z" fill="#95e200"/><path d="m185.53 65.05 15.91 27.55h-31.81z" fill="#32cd33"/><path d="m312.77 65.05 15.91 27.55h-31.81z" fill="#32cd33"/><path d="m503.63 65.05 15.9 27.55h-31.81z" fill="#95e200"/><path d="m469.9 101.42h86.89v4.34h-86.89z" fill="#95e200"/><path d="m516.5 169.47h86.89v4.34h-86.89z" fill="#95e200"/><path d="m502.61 248.56h52.14v4.34h-52.14z" fill="#32cd33"/><path d="m130.5 248.56h86.89v4.34h-86.89z" fill="#95e200"/><path d="m82.73 165.48h86.89v4.34h-86.89z" fill="#95e200"/><path d="m281.42 247h86.89v4.34h-86.89z" fill="#32cd33"/><path d="m270.38 111.51h86.89v4.34h-86.89z" fill="#32cd33"/><path d="m327.06 219.43h34.76v4.34h-34.76z" fill="#95e200"/><path d="m569.07 215.65c-.6 0-2.57-.27-2.61-3.79l-.53-48.73-6 .06-.09-8.36 6-.06v-2.74l-52.92.58-.2.57 5.95-.06-2.58 7.44 15.08 45.95-10 .11-10.94-34.33.38 34.45-9.46.1-.58-52.53-5.95.07-.09-8.36 5.95-.07-.21-19.71a2.84 2.84 0 0 1 .45-2.35c.72-1 2.12-1.48 4.14-1.48h.25 3 .6v-.15l.56.07h.18.26v.17a.47.47 0 0 1 .14.36.47.47 0 0 1 -.13.33l.25 22.61h1.54l7.83-23.34 10-.11-8.44 24.35h-6l-.2.57 51-.56-.07-6.07-12 .13-.07-6.28a2.24 2.24 0 0 1 .38-1.76c.7-1 2.15-1.44 4.31-1.47l33.24-.36-3.09 6.9c-.13.42-1.07 2.6-6.3 2.66l-5.34.06a1.28 1.28 0 0 0 -.89.41 3.64 3.64 0 0 0 -.72 2.58v3.1l51.39-.57.06 5.25-51.4.56v3.74l-5.95.07.07 6.36 6-.07.59 53.53-6.53.07a2.41 2.41 0 0 1 -.31.1z" fill="#fff"/><path d="m509.17 122.87s.3 0 0 .06zm19.41 0-8.08 23.34h-6l-.54 1.58 52.26-.57-.08-7.08-12 .13-.07-5.83s-.8-2.61 4.2-2.67l32.46-.35-2.73 6.28s-.5 2.27-5.84 2.33l-5.33.06c-.2 0-2.13.09-2.09 3.49v3.6l51.4-.56v4.24l-51.39.57v3.74l-6 .06.08 7.36 6-.06.58 52.52-6.08.07a1.41 1.41 0 0 1 -.31 0c-.65 0-2.07-.34-2.11-3.3 0-3.83-.54-49.23-.54-49.23l-5.95.07-.08-7.36 6-.07v-3.74l-53.77.59-.55 1.58 6-.07-2.4 6.94 14.83 45.47-8.93.1-11.85-37.1.41 37.28-8.46.09-.57-52.52-6 .06-.08-7.36 6-.06-.23-20.27s-1-3.27 4.1-3.27h.24 3s.95 0 1.11 0l.25 23.43h2.4l7.81-23.38 8.93-.1m-20.43-1.15v.25h-.1c-.63 0-1.57 0-3 0h-.26c-2.19 0-3.72.56-4.55 1.68a3.36 3.36 0 0 0 -.54 2.71l.21 19.16h-5-1v1l.08 7.36v1h1l5-.05.56 51.53v1h1l8.45-.09h1v-1l-.33-30.61 9.81 30.8.23.7h.74l8.93-.1h1.36l-.42-1.29-14.81-45.14 2.29-6.62.32-.91 46.11-.51v1.74l-5 .06h-1v1l.08 7.36v1h1l4.95-.06.53 48.23c0 4 2.39 4.29 3.11 4.29a3.68 3.68 0 0 0 .41 0l6-.07h1v-1l-.58-52.52v-1h-1l-5 .05-.06-5.36 5-.05h1v-1-2.74l50.39-.56h1v-1-4.24-1h-1l-50.4.55v-2.6c0-1.81.58-2.47 1.1-2.48l5.36-.06c5.43-.06 6.55-2.34 6.76-3l2.76-6.17.64-1.42h-1.56l-32.46.35c-2.33 0-3.92.59-4.71 1.68a2.74 2.74 0 0 0 -.48 2.11l.07 5.73v1h1l11-.12v5.08l-43.87.48.07-.21 8.09-23.34.46-1.34h-1.42l-8.93.1h-.71l-.23.67-7.6 22.67h-.69l-.24-22a1 1 0 0 0 0-1v-.55l-.7.06h-.17l-1.13-.13z" fill="#1d1d1b"/><path d="m561.94 176.98h2.79v26.32h-2.79z" fill="#fff" transform="matrix(.99993762 -.01116987 .01116987 .99993762 -2.1 6.33)"/><path d="m564.09 177.48.28 25.32h-1.79l-.28-25.33h1.79m1-1h-1-1.79-1v1l.28 25.32v1h1 1.79 1v-1l-.28-25.33v-1z" fill="#1d1d1b"/><path d="m496.92 163.95h2.79v34.77h-2.79z" fill="#fff" transform="matrix(.99994145 -.01082083 .01082083 .99994145 -1.94 5.42)"/><path d="m499 164.44.37 33.76h-1.79l-.37-33.76zm1-1h-1-1.78-1v1l.37 33.76v1h1 1.79 1v-1l-.38-33.77v-1z" fill="#1d1d1b"/><path d="m440.09 188.37-40.15.44.2 18.95-9.57.11-.21-19-7.93.09.21 19-9.58.1-.21-19h-.85l.16 14.46h-2.78l-.46-14.45-34.79.38-.06-5.22 35.08-.39-.25-23.53h2.79l.13 23.53h1l-.31-28.34-6 .06-.1-8.36 6-.06-.26-23.49h.5c.09 0 9.53-.17 15.56-.17h.1c11.61 1.24 11 10.81 11 10.9l.15 13.47-6 .06.07 6.36 6-.06s.05 4.73.07 7.06a8.52 8.52 0 0 1 -2.56 6.09c2.63 1.67 2.72 7.68 2.72 8l.09 8.24 40.94-.45 3-21.24-6 .07 1.18-8.38 6-.06 3.3-23.53 5.08-.06a5.2 5.2 0 0 1 4.67 3.15l3.58 21.2-6 .07.25 1.51 13.76.13v2.76l-13.23.52.23 1.43 6-.07 8.75 53.44-10.43.11-3.7-26.07h-7.23l-3.14 26.24-10.43.11zm-49.79-4.59-.07-7a4.31 4.31 0 0 0 -.74-3.26c-.89-1.11-2.49-1.67-4.75-1.67a17.94 17.94 0 0 0 -2.51.2l.13 11.74zm60.3-.75 5.94-.07-3-21.17h-.4zm-68.46-20h4 .31c1 0 3.46-.43 3.55-4.34 0-1.81 0-2.78 0-3.3l-8 .09zm65.16-2.15h.14l-.07-.52zm-65.3-13.81 7.93-.09-.12-10.72a4.22 4.22 0 0 0 -1.07-2.74 3.75 3.75 0 0 0 -2.8-1v-.52l-.08.5h-4z" fill="#fff"/><path d="m388.2 124c11.26 1.2 10.6 10.37 10.6 10.37l.14 13-6 .07.08 7.36 5.95-.07s.05 4.24.07 6.56a7.75 7.75 0 0 1 -3 6.22c3.13.72 3.19 7.83 3.19 7.83l.09 8.74 41.88-.46 3.11-22.24-5.95.07 1-7.37 6-.07 3.3-23.53 4.64-.05a4.71 4.71 0 0 1 4.16 2.84l3.54 20.58-6 .07.41 2.49 13.69.14v1.78l-13.31.53.4 2.4 6-.06 8.59 52.44-9.41.1-3.69-26.07h-8.17l-3.14 26.25-9.37.08 3.66-26.15-41.23.45.21 19-8.58.09-.21-19-8.93.09.21 19-8.58.1-.2-19h-1.91l.16 14.45h-1.78l-.47-14.45-34.78.38v-4.22l35.08-.38-.26-23.53h1.79l.13 23.53h2l-.31-29.36-6 .07-.08-7.36 6-.07-.26-23.49s9.47-.17 15.56-.17m-6.73 23.57 8.93-.1-.12-11.22a4.14 4.14 0 0 0 -4.37-4.24h-.08-4.53l.17 15.51m.18 15.93h4.52a2.08 2.08 0 0 0 .31 0c1 0 3.95-.37 4-4.83a32.24 32.24 0 0 0 0-4s0 .21 0 .21l-8.94.1.1 8.57m65.09-2.14h1.28l-.69-4.87-.59 4.89m3.3 22.16 7.08-.07-3.13-22.16h-1.3l-2.7 22.24m-68.17.75h8.94l-.08-7.41s1.22-5.53-6-5.53a19.57 19.57 0 0 0 -3 .27l.13 12.67m6.47-61.28h-.09c-6 0-15.49.17-15.58.17h-1v1l.25 22.49-5 .06h-1v1l.08 7.36v1h1l5-.06v3.82h-.9-1.79-1v1l.25 22.53-34.08.37h-1v1 4.22 1h1l33.8-.37.44 13.47v1h1 1.78.91v3.51 1h1l8.57-.1h1v-1l-.2-18 6.94-.07.19 18v1h1l8.58-.09h1v-1l-.2-18 39.07-.43-3.5 25-.16 1.15h1.35l9.41-.11h.88l.1-.87 3-25.36h6.42l3.57 25.21.13.87h.88l9.41-.1h1.16l-.19-1.15-8.55-52.52-.14-.85h-.86l-5.09.05-.08-.44 12.18-.48h1v-1-1.78-1h-1l-12.85-.13-.08-.52 4.79-.05h1.17l-.19-1.16-3.47-20.57v-.11-.1a5.7 5.7 0 0 0 -5.08-3.46h-.07l-4.64.05h-.86l-.12.85-3.29 22.7-5.1.06h-.86l-.12.85-1 7.37-.16 1.15h1.16l4.79-.05-2.83 20.23-40 .44-.08-7.74c0-.68-.13-5.89-2.47-8a9.14 9.14 0 0 0 2.31-6.05c0-2.32-.07-6.56-.07-6.56v-1h-1l-5 .06v-5.36l4.95-.06h1v-1l-.14-13c0-.83.11-10.14-11.49-11.37zm-6 10h3.53.07a3.29 3.29 0 0 1 2.45.86 3.71 3.71 0 0 1 .92 2.36l.11 10.25-6.93.08-.15-13.51zm.25 22.87 7-.08v2.78c-.08 3.35-1.94 3.85-3 3.85h-.32-3.52l-.08-6.57zm68.61 26.59 2.2-18.39 2.6 18.34zm-68.42-10a16.2 16.2 0 0 1 2-.14c2.09 0 3.55.5 4.34 1.47a3.77 3.77 0 0 1 .65 2.85v.11.11l.07 6.4h-6.94l-.11-10.8zm-10.49 10.91v-4.62l.05 4.62z" fill="#1d1d1b"/><path d="m322.57 220.09a3.64 3.64 0 0 1 -3-1.23 4.14 4.14 0 0 1 -.6-3.19l-.52-48.07-6 .07-.09-8.36 5.95-.07-.15-14-12 .13-.07-5.11a4.55 4.55 0 0 1 1.11-3.36 4.07 4.07 0 0 1 2.88-1.08 4.12 4.12 0 0 1 .68.05l33.26-.37-2.74 6.12a5.88 5.88 0 0 1 -5.28 3.38l-5.15.06c-1.56 0-2.63.39-3.08 1.07a2.25 2.25 0 0 0 -.12 1.87v.09l.13 12-5.95.06.07 6.36 6-.06.59 53.52z" fill="#fff"/><path d="m343.22 136s-1 2.17-2.43 5.41a5.36 5.36 0 0 1 -4.82 3.13l-5.11.06c-5.12.05-3.67 3.63-3.67 3.63l.13 11.44-6 .07.08 7.36 6-.07.58 52.53-5.29.06h-.08c-4.08 0-3.13-3.87-3.13-3.87l-.54-48.63-5.95.07-.08-7.36 5.95-.06-.16-15-12 .13-.07-4.61c-.05-3.51 2.35-3.93 3.49-3.93a4 4 0 0 1 .6 0l32.57-.36m1.55-1h-1.56l-32.5.36a4.65 4.65 0 0 0 -.66 0 4.48 4.48 0 0 0 -3.23 1.23 5 5 0 0 0 -1.26 3.72l.07 4.61v1h1l11-.12.14 13-5 .05h-1v1l.08 7.36v1h1 5l.52 47.51a4.57 4.57 0 0 0 .7 3.55 4.13 4.13 0 0 0 3.44 1.42h.09l5.29-.06h1v-1l-.6-52.63v-1h-1l-5 .06-.06-5.36 5-.06h1v-1l-.13-11.44v-.2l-.07-.18a1.76 1.76 0 0 1 .08-1.41c.36-.53 1.31-.83 2.67-.84l5.11-.06a6.41 6.41 0 0 0 5.77-3.72l2.42-5.41.64-1.42z" fill="#1d1d1b"/><path d="m314.42 177.26h2.79v34.77h-2.79z" fill="#fff" transform="matrix(.99994145 -.01082083 .01082083 .99994145 -2.1 3.44)"/><path d="m316.52 177.75.37 33.77h-1.79l-.37-33.77zm1-1h-1-1.79-1v1l.37 33.77v1h1 1.79 1v-1l-.37-33.77z" fill="#1d1d1b"/><path d="m261.65 208.78h-3.58c-.13 0-8-.81-9.44-10.92.08-7.06-.09-8.53-.1-8.59a5.85 5.85 0 0 1 3.8-5.67l5.11-2.32.69-.32.15 13.61c0 .08-.25 3.06 1.22 4.66a3.29 3.29 0 0 0 2.55 1h.3a3.9 3.9 0 0 0 2.92-1.31 6.44 6.44 0 0 0 1.07-4.29l-.17-9.23a56.09 56.09 0 0 0 -4.31-11.09c-2.58-4.7-9.24-16.88-10.31-18.82l-6 .06-3.11-8.32 6.11-.07-.51-4.11-.1-10.16v-.06c.09-.39 2.34-9.39 8.62-9.78 5.92-.37 7.75-.39 7.82-.39s8.24.13 10.49 8.28a50.93 50.93 0 0 1 .53 6.39c0 .09.5 3.75-4.34 6l-5.25 2.41-.25-11.39c-.12-.42-1-3.13-3.83-3.13h-.11a4 4 0 0 0 -4 4.19c0 1.7.25 9.62.25 9.7l.7 3-5.87.06.64 1.78 15.68-.17v2.78l-14.27.49.78 1.45 6-.06 11.15 20.49c.14.27 3.21 6.4 3.27 12l.12 10.6c0 .11-.29 9.2-9.56 11.27h-.06z" fill="#fff"/><path d="m264.39 123.18s7.82 0 10 7.91a49.43 49.43 0 0 1 .51 6.27s.51 3.42-4 5.51l-4.61 2.13-.23-10.69s-.89-3.56-4.33-3.56h-.12a4.43 4.43 0 0 0 -4.48 4.7c0 1.72.25 9.7.25 9.7l.57 2.47-5.95.06 1 2.78 15.53-.17v1.78l-14.59.5 1.31 2.44 6-.07 11 20.23s3.15 6.22 3.21 11.78.12 10.6.12 10.6-.17 8.76-9.17 10.78h-8.34s-7.54-.66-8.94-10.49c.09-7.17-.09-8.58-.09-8.58s-.39-3.39 3.5-5.16 5.11-2.32 5.11-2.32l.14 12.85s-.56 6.17 4.27 6.17h.33c5.18-.28 4.46-6.16 4.46-6.16l-.18-9.24a55 55 0 0 0 -4.36-11.26c-2.82-5.14-10.46-19.14-10.46-19.14l-6 .07-2.74-7.33 5.95-.07-.58-4.66-.09-10s2.18-9 8.16-9.4 7.8-.39 7.8-.39m0-1c-.07 0-1.9 0-7.84.39-6.64.41-9 9.76-9.08 10.16v.12.11l.09 10.05v.11l.44 3.56-4.84.05h-1.42l.5 1.34 2.74 7.33.25.66h.7l5.36-.06c1.41 2.59 7.68 14 10.16 18.56a55.2 55.2 0 0 1 4.25 10.92l.17 9.12v.1a5.91 5.91 0 0 1 -1 3.91 3.39 3.39 0 0 1 -2.57 1.13h-.27a2.76 2.76 0 0 1 -2.18-.86c-1.31-1.43-1.09-4.19-1.09-4.22v-.1l-.14-12.85v-1.54l-1.4.64-5.11 2.32c-4.51 2-4.1 6-4.08 6.19s.17 1.55.08 8.45v.15c.77 5.44 3.38 8.23 5.43 9.62a10.21 10.21 0 0 0 4.42 1.72h8.53.11c9.65-2.16 9.94-11.64 9.95-11.73l-.12-10.63c-.06-5.73-3.19-12-3.32-12.22l-11-20.26-.29-.53h-.6l-5.35.06-.26-.48 13-.45h1v-1-1.78-1h-1l-14.83.16-.28-.78h4.54 1.25l-.28-1.21-.55-2.37c0-.92-.23-8-.25-9.58a3.48 3.48 0 0 1 3.5-3.69h.1a3.62 3.62 0 0 1 3.33 2.71l.23 10.56v1.52l1.38-.63 4.56-2.09c4.83-2.22 4.69-5.87 4.63-6.48a48.5 48.5 0 0 0 -.52-6.37v-.05-.06c-2.35-8.51-10.87-8.64-11-8.64z" fill="#1d1d1b"/><path d="m184.08 199.84h-1.71v10.76h-2.78l-.12-10.76-29.29.32 1.53 9.34-10.43.12-1.28-9.29-11.69.12-1.12 9.37-10.43.12 1.42-9.38-39.83.44-.06-5.22 40.48-.44 5.33-38-6 .06 1.18-8.37 6-.07 3.3-23.53h5.06a2.17 2.17 0 0 1 .46 0c1.15 0 3.9.48 4.63 4.92l3.2 19.51-6 .06.25 1.51 14.95.12v2.77l-14.42.53.23 1.42 6-.06 6.39 38.79 30.08-.49-.2-18.63h2.78l.37 18.65h1.46l-.31-28.3-6 .07-.09-8.36 6-.07-.26-23.49 16-.17a11.28 11.28 0 0 1 11.2 10.79c.15 7.12.15 13 .15 13.05v.5l-5.95.06.07 6.36 6-.07v4.55c0 .08-.21 5.48-4 7 2.34 1.44 4.15 3.13 4.18 6.56 0 3.67.27 25.73.27 25.73v.06c-.1.38-2.51 9.28-9.06 9.54-6.19.24-17.27.36-17.38.36h-.51zm9.36 9.33h4.14c.13 0 3.91-.35 3.87-4 0-2.88 0-4.7 0-5.52l-8 .09zm-64.56-13.94 10.34-.12-5.38-37.89h-.4zm64.4-.74 8.05-.06-.1-9.39a4.91 4.91 0 0 0 -1.13-3.2 3.69 3.69 0 0 0 -2.76-1v-.5l-.07.5-4.14.05zm-.28-22.49 5-.1a2.38 2.38 0 0 0 1.84-.83c1.2-1.37 1.23-4 1.18-5.06l-8.07.09zm-.16-14.26 8.06-.09-.11-10.13c0-.06-.76-3.74-3.91-3.74v-.5.5l-4.15.05zm-65.26-1.45h.13l-.07-.53z" fill="#fff"/><path d="m134.09 125.84c1 0 3.47.43 4.14 4.5.85 5.17 3.1 18.94 3.1 18.94l-6 .06.4 2.5 14.88.12v1.79l-14.5.53.4 2.41 5.95-.07 6.37 38.89 31-.51-.21-18.62h1.79l.37 18.64h2.46l-.24-29.32-5.95.06-.05-7.36 5.95-.06-.25-23.49 15.48-.17c.46 0 9.72.13 10.69 10.36.15 7.17.15 13 .15 13l-6 .07.08 7.36 6-.07v4.05s-.18 6.1-4.81 6.84c2.76 1.56 4.92 3.07 5 6.74s.27 25.66.27 25.66-2.35 8.92-8.6 9.16-17.37.36-17.37.36v-18.88h-2.71v10.76h-1.79l-.09-10.7-30.38.33 1.54 9.34-9.41.1-1.33-9.34-12.56.14-1.12 9.37-9.41.1 1.42-9.37-39.88.44v-4.22l40.41-.45 5.47-39-6 .06 1-7.37 6-.06 3.3-23.53h4.64a2.79 2.79 0 0 1 .44 0m58.29 32.4 9.05-.09-.11-10.63s-.79-4.24-4.41-4.24l-4.64.05.16 14.91m-65.47-1.54h1.28l-.69-4.88-.59 4.89m1.28 38.94 11.47-.12-5.52-38.9h-1.27l-4.68 39m64.22-23.22s1.32 0 5.5-.11 3.47-6.9 3.47-6.9l-9 .1.08 6.91m.24 22.49 9.06-.08-.11-9.88s.18-4.72-4.39-4.72h-.07l-4.65.05zm.16 14.67h4.65s4.4-.33 4.36-4.45 0-6 0-6l-9 .1v10.43m-58.85-84.83a3 3 0 0 0 -.51 0h-4.58-.86l-.12.85-3.18 22.68h-5.1-.86l-.12.85-1 7.38-.16 1.15h1.16 4.79l-5.19 37-39.54.44h-1v1 4.22 1h1l38.71-.43-1.25 8.21-.18 1.17h1.18l9.41-.1h.88l.1-.87 1-8.5 10.8-.12 1.21 8.47.12.87h.88l9.41-.1h1.16l-.19-1.15-1.34-8.19 28.26-.34.1 9.75v1h1 1.78 1v-10.8h.71v18.88h1c.11 0 11.2-.12 17.4-.36 6.91-.27 9.42-9.52 9.53-9.91v-.13-.13s-.23-22-.27-25.66a7.39 7.39 0 0 0 -3.69-6.51c2.63-1.6 3.48-5.08 3.54-7v-4.09-1h-1l-5 .05-.06-5.35 5-.06h1v-1c0-.06 0-5.93-.15-13v-.08c-1.06-11.14-11.26-11.27-11.69-11.27l-15.52.17h-1v1l.24 22.49-4.95.05h-1v1l.08 7.36v1h1 5l.29 27.29h-.46l-.35-17.66v-1h-1-1.79-1v1l.2 17.62-29.16.48-6.23-38-.14-.85h-.86l-5.09.06-.08-.44 13.37-.49h1v-1-1.79-1h-1l-14-.12-.08-.51 4.79-.05h1.17l-.19-1.15-3.1-18.93c-.82-5-4.13-5.34-5.13-5.34zm59.14 19.48h3.64c2.56 0 3.33 2.85 3.45 3.35l.1 9.53-7 .07-.14-12.91zm-63.78 50.4 4.22-35.17 5 35.07-9.19.1zm64-28.13 7.09-.08c0 1.29-.19 3.23-1.07 4.23a2 2 0 0 1 -1.48.66l-4.48.1zm.16 14.77h3.65.06a3.16 3.16 0 0 1 2.4.86 4.4 4.4 0 0 1 1 2.82l.1 8.93-7.06.06-.14-12.63zm.31 18.87 7-.07v5c0 3-3.06 3.41-3.41 3.44h-3.6v-8.43z" fill="#1d1d1b"/></svg>