<svg viewBox="0 0 703 358" xmlns="http://www.w3.org/2000/svg"><path d="m-7-10h717v379h-717z" fill="#1d1d1b"/><path d="m310.82 79.65h93.42v4.67h-93.42z" fill="#ce0e2d"/><path d="m176.31 181.81 17.24 29.53-34.2.17z" fill="#f00"/><path d="m210.51 181.64 17.24 29.54-34.2.16z" fill="#f00"/><path d="m278.91 181.31 17.24 29.54-34.2.16z" fill="#ce0e2d"/><path d="m313.11 181.15 17.25 29.53-34.21.17z" fill="#f00"/><path d="m347.31 180.98 17.25 29.54-34.2.16z" fill="#f00"/><path d="m415.71 180.65 17.25 29.54-34.2.16z" fill="#ce0e2d"/><path d="m484.11 180.32 17.25 29.54-34.2.16z" fill="#f00"/><path d="m518.31 180.16 17.25 29.53-34.2.17z" fill="#ce0e2d"/><path d="m432.97 209.53-17.25-29.54 34.2-.16z" fill="#ce0e2d"/><path d="m398.76 209.69-17.24-29.53 34.2-.17z" fill="#f00"/><path d="m364.56 209.86-17.24-29.54 34.2-.16z" fill="#ce0e2d"/><path d="m193.54 212 17.25 29.54-34.2.17z" fill="#f00"/><path d="m227.74 211.84 17.25 29.53-34.2.17z" fill="#f00"/><path d="m261.94 211.67 17.25 29.54-34.2.16z" fill="#ce0e2d"/><path d="m296.14 211.51 17.25 29.53-34.2.17z" fill="#ce0e2d"/><path d="m364.55 211.18 17.24 29.53-34.2.17z" fill="#f00"/><path d="m432.95 210.84 17.24 29.54-34.2.17z" fill="#f00"/><path d="m467.15 210.68 17.24 29.54-34.2.16z" fill="#f00"/><path d="m501.35 210.51 17.24 29.54-34.2.17z" fill="#ce0e2d"/><path d="m535.55 210.35 17.24 29.53-34.2.17z" fill="#f00"/><path d="m518.6 239.39-17.24-29.53 34.2-.17z" fill="#ce0e2d"/><path d="m416 239.89-17.24-29.54 34.2-.16z" fill="#ce0e2d"/><path d="m313.4 240.38-17.25-29.53 34.21-.17z" fill="#f00"/><path d="m279.2 240.55-17.25-29.54 34.2-.16z" fill="#ce0e2d"/><path d="m245 240.72-17.25-29.54 34.2-.17z" fill="#f00"/><path d="m176.6 241.05-17.25-29.54 34.2-.17z" fill="#ce0e2d"/><path d="m210.83 242.2 17.24 29.53-34.2.17z" fill="#f00"/><path d="m245.03 242.03 17.24 29.54-34.2.16z" fill="#f00"/><path d="m279.23 241.87 17.24 29.53-34.2.17z" fill="#ce0e2d"/><path d="m518.63 240.71 17.25 29.53-34.2.17z" fill="#ce0e2d"/><path d="m467.48 269.92-17.24-29.54 34.2-.16z" fill="#f00"/><path d="m433.28 270.08-17.24-29.53 34.2-.17z" fill="#ce0e2d"/><path d="m262.28 270.91-17.24-29.54 34.2-.16z" fill="#f00"/><path d="m193.86 272.56 17.24 29.53-34.19.17z" fill="#f00"/><path d="m467.46 271.23 17.25 29.54-34.2.16z" fill="#f00"/><path d="m450.52 300.28-17.25-29.54 34.21-.17z" fill="#ce0e2d"/><path d="m245.31 301.27-17.24-29.54 34.2-.16z" fill="#ce0e2d"/><path d="m176.91 301.6-17.24-29.54 34.2-.16z" fill="#f00"/><path d="m518.32 179.29-17.24-29.54 34.2-.16z" fill="#ce0e2d"/><path d="m484.12 179.45-17.24-29.53 34.2-.17z" fill="#f00"/><path d="m415.72 179.78-17.24-29.53 34.2-.17z" fill="#f00"/><path d="m381.52 179.95-17.24-29.54 34.2-.16z" fill="#ce0e2d"/><path d="m313.12 180.28-17.24-29.53 34.2-.17z" fill="#f00"/><path d="m278.92 180.45-17.24-29.54 34.2-.16z" fill="#f00"/><path d="m244.72 180.61-17.25-29.53 34.21-.17z" fill="#f00"/><path d="m210.52 180.78-17.24-29.54 34.19-.16z" fill="#f00"/><path d="m176.32 180.94-17.25-29.53 34.21-.17z" fill="#ce0e2d"/><path d="m159.06 152.07 17.25 29.53-34.2.17z" fill="#f00"/><path d="m227.47 151.74 17.24 29.53-34.2.17z" fill="#ce0e2d"/><path d="m295.87 151.4 17.24 29.54-34.2.16z" fill="#ce0e2d"/><path d="m330.07 151.24 17.24 29.53-34.2.17z" fill="#f00"/><path d="m364.27 151.07 17.24 29.54-34.2.16z" fill="#f00"/><path d="m398.47 150.91 17.24 29.53-34.2.17z" fill="#ce0e2d"/><path d="m432.67 150.74 17.24 29.54-34.2.16z" fill="#f00"/><path d="m535.27 150.25 17.24 29.53-34.2.17z" fill="#f00"/><path d="m535.29 148.93-17.25-29.54 34.21-.16z" fill="#f00"/><path d="m466.89 149.26-17.25-29.54 34.21-.16z" fill="#ce0e2d"/><path d="m398.49 149.59-17.25-29.53 34.2-.17z" fill="#f00"/><path d="m330.09 149.92-17.25-29.53 34.2-.17z" fill="#ce0e2d"/><path d="m261.69 150.25-17.25-29.53 34.2-.17z" fill="#ce0e2d"/><path d="m193.28 150.58-17.24-29.53 34.2-.17z" fill="#ce0e2d"/><path d="m159.08 150.75-17.24-29.54 34.2-.16z" fill="#f00"/><path d="m312.83 121.04 17.25 29.54-34.2.17z" fill="#ce0e2d"/><path d="m381.23 120.71 17.25 29.54-34.2.16z" fill="#ce0e2d"/><path d="m449.63 120.38 17.25 29.54-34.2.16z" fill="#f00"/><path d="m518.04 120.05 17.24 29.54-34.2.16z" fill="#ce0e2d"/><path d="m483.8 118.9-17.24-29.54 34.2-.16z" fill="#f00"/><path d="m449.6 119.07-17.24-29.54 34.2-.17z" fill="#f00"/><path d="m244.4 120.06-17.24-29.54 34.2-.16z" fill="#ce0e2d"/><path d="m176 120.39-17.24-29.54 34.2-.16z" fill="#ce0e2d"/><path d="m192.95 91.35 17.24 29.53-34.2.17z" fill="#f00"/><path d="m227.15 91.18 17.24 29.54-34.2.16z" fill="#f00"/><path d="m261.35 91.02 17.24 29.53-34.2.17z" fill="#ce0e2d"/><path d="m432.35 90.19 17.24 29.53-34.2.17z" fill="#f00"/><path d="m500.77 88.54-17.24-29.53 34.2-.17z" fill="#ce0e2d"/><path d="m432.37 88.87-17.24-29.53 34.2-.17z" fill="#f00"/><path d="m227.17 89.86-17.25-29.53 34.2-.17z" fill="#f00"/><path d="m175.71 61.15 17.25 29.54-34.2.16z" fill="#ce0e2d"/><path d="m312.51 60.49 17.25 29.54-34.2.16z" fill="#ce0e2d"/><path d="m517.72 59.5 17.24 29.53-34.2.17z" fill="#f00"/><path d="m481.18 101.11h93.42v4.67h-93.42z" fill="#f00"/><path d="m532.11 171.47h93.42v4.67h-93.42z" fill="#f00" transform="matrix(.99998806 -.0048869 .0048869 .99998806 -.83 2.8)"/><path d="m517.59 256.66h56.05v4.67h-56.05z" fill="#ce0e2d" transform="matrix(.99998806 -.0048869 .0048869 .99998806 -1.25 2.64)"/><path d="m116.25 259.31h93.42v4.67h-93.42z" fill="#f00"/><path d="m64.89 169.99h93.42v4.67h-93.42z" fill="#f00"/><path d="m279.76 256.05h93.42v4.67h-93.42z" fill="#ce0e2d" transform="matrix(.99998806 -.0048869 .0048869 .99998806 -1.25 1.58)"/><path d="m267.19 110.43h93.42v4.67h-93.42z" fill="#ce0e2d" transform="matrix(.99998806 -.0048869 .0048869 .99998806 -.54 1.52)"/><path d="m328.69 226.31h37.37v4.67h-37.37z" fill="#f00" transform="matrix(.99998806 -.0048869 .0048869 .99998806 -1.1 1.68)"/><g fill="#fff"><path d="m629 152.75-51.4.57v3.74l-6 .06.08 7.36 6-.06.58 52.52-6.07.07s-2.38.57-2.42-3.27l-.54-49.23-6 .07-.08-7.36 6-.07v-3.74l-53.77.59-.54 1.58 6-.07-2.4 6.94 14.91 45.46-8.93.1-11.92-37.16.4 37.28-8.45.09-.58-52.52-5.95.06-.09-7.36 6-.06-.22-20.28s-1-3.37 4.34-3.26 4.08 0 4.08 0l.26 23.49h2.39l7.83-23.34 8.94-.1-8.09 23.34h-6l-.55 1.58 52.26-.57-.08-7.08-12 .13-.06-5.83s-.81-2.61 4.19-2.67l32.46-.36-2.79 6.23s-.5 2.27-5.83 2.33l-5.34.06s-2.14-.1-2.1 3.49v3.6l51.4-.56z"/><path d="m565.27 179.37h1.79v25.32h-1.79z" transform="matrix(.99993955 -.01099535 .01099535 .99993955 -2.08 6.23)"/><path d="m500.25 166.34h1.79v33.77h-1.79z" transform="matrix(.99993955 -.01099535 .01099535 .99993955 -1.98 5.52)"/><path d="m465.06 163.09-6 .06-.39-2.4 13.31-.53v-1.78l-13.69-.14-.41-2.5 6-.06-3.47-20.57a4.72 4.72 0 0 0 -4.2-2.84h-4.65l-3.3 23.53-6 .07-1 7.37 6-.07-3.12 22.24-41.87.46-.1-8.74s-.06-7.11-3.18-7.83a7.77 7.77 0 0 0 3-6.22c0-2.33-.07-6.56-.07-6.56l-5.95.07-.08-7.36 5.95-.07-.14-13s.67-9.17-10.6-10.37c-6.09 0-15.6.17-15.6.17l.26 23.49-6 .07.08 7.35 6-.06.32 29.35h-2l-.16-23.46h-1.79l.26 23.53-35.08.38v4.22l34.77-.38.47 14.45h1.79l-.16-14.45h1.9l.21 19 8.57-.1-.21-19 8.94-.09.21 18.95 8.57-.09-.21-19 41.24-.45-3.67 26.15 9.41-.11 3.14-26.25h8.17l3.7 26.07 9.41-.11zm-80.94-29.09 4.53-.05a4.14 4.14 0 0 1 4.45 4.24l.13 11.22-8.94.1zm.26 22.87 8.93-.1s.16-1.53 0 3.81-4.35 4.81-4.35 4.81l-4.53.05zm.32 29.34-.14-12.67c10.53-1.69 9 5.26 9 5.26l.08 7.41zm64.86-22.91.59-4.89.69 4.87zm3.3 22.16 2.66-22.23h1.28l3.14 22.17z"/><path d="m313.47 138.22s-4.15-.72-4.09 3.89l.07 4.61 12-.13.16 15-5.95.07.08 7.36 6-.07.54 48.63s-1 3.91 3.21 3.87l5.29-.06-.58-52.53-5.95.07-.08-7.36 6-.07-.17-11.41s-1.44-3.58 3.67-3.63l5.11-.06a5.37 5.37 0 0 0 4.87-3.13l2.42-5.41z"/><path d="m317.74 179.65h1.79v33.77h-1.79z" transform="matrix(.99993955 -.01099535 .01099535 .99993955 -2.14 3.51)"/><path d="m264.05 156.79 11 20.23s3.15 6.22 3.21 11.78l.12 10.6s-.17 8.76-9.17 10.77h-8.33s-7.55-.65-8.94-10.48c.08-7.17-.1-8.58-.1-8.58s-.39-3.39 3.51-5.16l5.11-2.32.14 12.85s-.59 6.44 4.59 6.16 4.46-6.16 4.46-6.16l-.17-9.24a55.38 55.38 0 0 0 -4.36-11.24c-2.81-5.12-10.45-19.09-10.45-19.09l-6 .07-2.67-7.35 5.95-.07-.58-4.66-.09-10.05s2.18-9 8.16-9.39 7.8-.39 7.8-.39 7.83 0 10 7.91a50.51 50.51 0 0 1 .52 6.27s.5 3.42-4.06 5.51l-4.55 2.09-.24-10.69s-.9-3.64-4.45-3.56a4.43 4.43 0 0 0 -4.47 4.7c0 1.72.25 9.7.25 9.7l.57 2.47-6 .06 1 2.78 15.53-.17v1.78l-14.59.5 1.31 2.44z"/><path d="m213.11 184.93c0-3.67-2.21-5.18-5-6.74 4.62-.74 4.81-6.84 4.81-6.84l-.05-4-5.95.07-.08-7.36 6-.07s0-5.84-.14-13a10.76 10.76 0 0 0 -10.7-10.42l-15.48.17.26 23.49-6 .06.08 7.36 6-.06.32 29.3h-2.46l-.37-18.64h-1.78l.2 18.62-31 .51-6.37-38.89-6 .07-.39-2.41 14.49-.53v-1.79l-14.87-.12-.41-2.5 6-.07s-2.25-13.76-3.1-18.93-4.57-4.47-4.57-4.47h-4.65l-3.3 23.53-6 .06-1 7.37 6-.06-5.47 39-40.41.45v4.22l39.87-.44-1.42 9.37 9.41-.1 1.12-9.37 12.56-.14 1.33 9.34 9.41.03-1.53-9.34 30.37-.34.12 10.76h1.78v-10.83h2.71v18.89s11.12-.12 17.37-.36 8.6-9.16 8.6-9.16-.27-22.03-.31-25.69zm-83.25-26.25.59-4.89.69 4.88zm1.28 38.94 4.68-39h1.28l5.52 38.9zm63.9-52.4 4.64-.05c3.66 0 4.46 4.24 4.46 4.24l.11 10.62-9.05.1zm.24 22.27 9.06-.1s.69 6.79-3.48 6.89-5.5.12-5.5.12zm.17 14.77h4.64c4.65-.05 4.46 4.72 4.46 4.72l.11 9.88-9 .08zm9.32 24.8c0 4.12-4.36 4.45-4.36 4.45l-4.64.05v-10.43l9-.1s-.04 1.9 0 6.03z"/></g></svg>