<svg viewBox="0 0 703 358" xmlns="http://www.w3.org/2000/svg"><path d="m-3.54-9.13h710.54v378.13h-710.54z" fill="#c0ff00"/><path d="m313.6 80.6h90.92v4.55h-90.92z" fill="#575756"/><path d="m181.85 180.85 16.64 28.83h-33.28z" fill="#9d9d9c"/><path d="m215.13 180.85 16.64 28.83h-33.28z" fill="#9d9d9c"/><path d="m281.7 180.85 16.64 28.83h-33.28z" fill="#575756"/><path d="m314.98 180.85 16.65 28.83h-33.29z" fill="#9d9d9c"/><path d="m348.27 180.85 16.64 28.83h-33.28z" fill="#9d9d9c"/><path d="m414.83 180.85 16.65 28.83h-33.29z" fill="#575756"/><path d="m481.4 180.85 16.64 28.83h-33.28z" fill="#9d9d9c"/><path d="m514.68 180.85 16.65 28.83h-33.29z" fill="#575756"/><path d="m431.49 209.03-16.64-28.82h33.28z" fill="#575756"/><path d="m398.2 209.03-16.64-28.82h33.29z" fill="#9d9d9c"/><path d="m364.92 209.03-16.64-28.82h33.28z" fill="#575756"/><path d="m198.48 210.32 16.64 28.82h-33.28z" fill="#9d9d9c"/><path d="m231.76 210.32 16.64 28.82h-33.28z" fill="#9d9d9c"/><path d="m265.05 210.32 16.64 28.82h-33.29z" fill="#575756"/><path d="m298.33 210.32 16.64 28.82h-33.28z" fill="#575756"/><path d="m364.9 210.32 16.64 28.82h-33.29z" fill="#9d9d9c"/><path d="m431.46 210.32 16.65 28.82h-33.29z" fill="#9d9d9c"/><path d="m464.75 210.32 16.64 28.82h-33.28z" fill="#9d9d9c"/><path d="m498.03 210.32 16.64 28.82h-33.28z" fill="#575756"/><path d="m531.31 210.32 16.65 28.82h-33.29z" fill="#9d9d9c"/><path d="m514.68 238.5-16.64-28.82h33.29z" fill="#575756"/><path d="m414.83 238.5-16.64-28.82h33.29z" fill="#575756"/><path d="m314.98 238.5-16.64-28.82h33.29z" fill="#9d9d9c"/><path d="m281.7 238.5-16.64-28.82h33.28z" fill="#575756"/><path d="m248.42 238.5-16.65-28.82h33.29z" fill="#9d9d9c"/><path d="m181.85 238.5-16.64-28.82h33.28z" fill="#575756"/><path d="m215.16 239.78 16.64 28.83h-33.29z" fill="#9d9d9c"/><path d="m248.44 239.78 16.64 28.83h-33.28z" fill="#9d9d9c"/><path d="m281.72 239.78 16.65 28.83h-33.29z" fill="#575756"/><path d="m514.71 239.78 16.64 28.83h-33.28z" fill="#575756"/><path d="m464.8 267.96-16.65-28.82h33.29z" fill="#9d9d9c"/><path d="m431.51 267.96-16.64-28.82h33.28z" fill="#575756"/><path d="m265.1 267.96-16.65-28.82h33.29z" fill="#9d9d9c"/><path d="m198.5 269.25 16.65 28.82h-33.29z" fill="#9d9d9c"/><path d="m464.77 269.25 16.64 28.82h-33.28z" fill="#9d9d9c"/><path d="m448.14 297.43-16.64-28.82h33.28z" fill="#575756"/><path d="m248.44 297.43-16.64-28.82h33.28z" fill="#575756"/><path d="m181.87 297.43-16.64-28.82h33.28z" fill="#9d9d9c"/><path d="m514.7 180.01-16.64-28.83h33.28z" fill="#575756"/><path d="m481.41 180.01-16.64-28.83h33.29z" fill="#9d9d9c"/><path d="m414.85 180.01-16.65-28.83h33.29z" fill="#9d9d9c"/><path d="m381.56 180.01-16.64-28.83h33.28z" fill="#575756"/><g fill="#9d9d9c"><path d="m315 180.01-16.65-28.83h33.29z"/><path d="m281.71 180.01-16.64-28.83h33.28z"/><path d="m248.43 180.01-16.64-28.83h33.28z"/><path d="m215.15 180.01-16.65-28.83h33.29z"/></g><path d="m181.86 180.01-16.64-28.83h33.28z" fill="#575756"/><path d="m165.21 151.82 16.64 28.83h-33.29z" fill="#9d9d9c"/><path d="m231.77 151.82 16.65 28.83h-33.29z" fill="#575756"/><path d="m298.34 151.82 16.64 28.83h-33.28z" fill="#575756"/><path d="m331.63 151.82 16.64 28.83h-33.29z" fill="#9d9d9c"/><path d="m364.91 151.82 16.64 28.83h-33.28z" fill="#9d9d9c"/><path d="m398.19 151.82 16.64 28.83h-33.28z" fill="#575756"/><path d="m431.48 151.82 16.64 28.83h-33.29z" fill="#9d9d9c"/><path d="m531.33 151.82 16.64 28.83h-33.29z" fill="#9d9d9c"/><path d="m531.35 150.54-16.64-28.82h33.28z" fill="#9d9d9c"/><path d="m464.78 150.54-16.64-28.82h33.29z" fill="#575756"/><path d="m398.22 150.54-16.65-28.82h33.29z" fill="#9d9d9c"/><path d="m331.65 150.54-16.64-28.82h33.28z" fill="#575756"/><path d="m265.08 150.54-16.64-28.82h33.28z" fill="#575756"/><path d="m198.51 150.54-16.64-28.82h33.29z" fill="#575756"/><path d="m165.23 150.54-16.64-28.82h33.28z" fill="#9d9d9c"/><path d="m315 122.36 16.64 28.82h-33.29z" fill="#575756"/><path d="m381.56 122.36 16.64 28.82h-33.28z" fill="#575756"/><path d="m448.13 122.36 16.64 28.82h-33.28z" fill="#9d9d9c"/><path d="m514.7 122.36 16.64 28.82h-33.28z" fill="#575756"/><path d="m481.39 121.08-16.64-28.83h33.28z" fill="#9d9d9c"/><path d="m448.11 121.08-16.65-28.83h33.29z" fill="#9d9d9c"/><path d="m248.4 121.08-16.64-28.83h33.29z" fill="#575756"/><path d="m181.84 121.08-16.65-28.83h33.29z" fill="#575756"/><path d="m198.47 92.89 16.64 28.83h-33.29z" fill="#9d9d9c"/><path d="m231.75 92.89 16.64 28.83h-33.28z" fill="#9d9d9c"/><path d="m265.03 92.89 16.65 28.83h-33.29z" fill="#575756"/><path d="m431.45 92.89 16.64 28.83h-33.28z" fill="#9d9d9c"/><path d="m498.04 91.61-16.64-28.82h33.28z" fill="#575756"/><path d="m431.48 91.61-16.65-28.82h33.29z" fill="#9d9d9c"/><path d="m231.77 91.61-16.64-28.82h33.29z" fill="#9d9d9c"/><path d="m181.84 63.43 16.64 28.82h-33.29z" fill="#575756"/><path d="m314.97 63.43 16.64 28.82h-33.28z" fill="#575756"/><path d="m514.67 63.43 16.64 28.82h-33.28z" fill="#9d9d9c"/><path d="m479.38 101.48h90.92v4.55h-90.92z" fill="#9d9d9c"/><path d="m528.14 172.69h90.92v4.55h-90.92z" fill="#9d9d9c"/><path d="m513.61 255.44h54.55v4.55h-54.55z" fill="#575756"/><path d="m124.25 255.44h90.92v4.55h-90.92z" fill="#9d9d9c"/><path d="m74.28 168.51h90.92v4.55h-90.92z" fill="#9d9d9c"/><path d="m282.16 253.8h90.92v4.55h-90.92z" fill="#575756"/><path d="m270.62 112.04h90.92v4.55h-90.92z" fill="#575756"/><path d="m329.92 224.96h36.37v4.55h-36.37z" fill="#9d9d9c"/><path d="m627.34 145.26-51.39.56v3.74l-6 .07.08 7.36 6-.07.58 52.53-6.08.06s-2.37.57-2.42-3.26l-.5-49.25-6 .07-.08-7.36 5.95-.07v-3.73l-53.77.59-.55 1.57 6-.06-2.4 6.93 14.91 45.46-8.93.1-11.85-37.15.41 37.28-8.46.09-.57-52.53-6 .07-.08-7.36 6-.07-.23-20.27s-1-3.37 4.34-3.26 4.09 0 4.09 0l.25 23.49h2.4l7.83-23.34 8.93-.09-8.08 23.34h-6l-.54 1.57 52.25-.57-.07-7.07-12 .13-.07-5.84s-.8-2.61 4.2-2.66l32.46-.36-2.79 6.22s-.5 2.27-5.84 2.33l-5.33.06s-2.15-.1-2.11 3.5v3.6l51.4-.57" fill="#fff" stroke="#1d1d1b" stroke-miterlimit="10"/><path d="m563.13 171.38h2.79v26.32h-2.79z" fill="#fff" transform="matrix(.99993762 -.01116987 .01116987 .99993762 -2.03 6.34)"/><path d="m565.28 171.87.28 25.32h-1.79l-.28-25.32zm1-1h-1-1.79-1v1l.28 25.32v1h1 1.79 1v-1l-.28-25.32z" fill="#1d1d1b"/><path d="m498.11 158.34h2.79v34.77h-2.79z" fill="#fff" transform="matrix(.99994145 -.01082083 .01082083 .99994145 -1.88 5.44)"/><path d="m500.22 158.83.37 33.77h-1.79l-.37-33.77zm1-1h-1-1.78-1v1l.37 33.77v1h1 1.79 1v-1l-.37-33.77v-1z" fill="#1d1d1b"/><path d="m441.28 182.76-40.15.44.2 19-9.57.1-.21-18.95-7.93.08.21 19-9.58.11-.21-19h-.9l.16 14.46h-2.78l-.46-14.45-34.79.38-.06-5.22 35.08-.38-.29-23.54h2.79l.13 23.53h1l-.31-28.35-5.95.07-.1-8.36 6-.07-.26-23.49h.5c.09 0 9.53-.18 15.56-.18h.1c11.61 1.24 11 10.8 11 10.9l.15 13.46-6 .07.07 6.36 6-.07v.5s.05 4.23.07 6.56a8.52 8.52 0 0 1 -2.56 6.1c2.63 1.67 2.72 7.67 2.72 8l.09 8.24 40.94-.45 3-21.24-6 .07 1.18-8.37 6-.07 3.3-23.53h5.08a5.21 5.21 0 0 1 4.67 3.14v.06l3.58 21.2-6 .06.25 1.51 13.76.14v2.76l-13.23.52.23 1.42 6-.06 8.75 53.43-10.43.12-3.7-26.08h-7.29l-3.09 26.1-10.43.12zm-49.79-4.58-.07-7v-.06a4.31 4.31 0 0 0 -.74-3.26c-.89-1.1-2.49-1.66-4.74-1.66a17.86 17.86 0 0 0 -2.52.19l.13 11.75zm60.3-.76 5.94-.06-3-21.17h-.4zm-68.46-20h4 .31c1 0 3.46-.42 3.55-4.34 0-1.8 0-2.77 0-3.29l-8 .08zm65.16-2.14h.14l-.07-.52zm-65.33-13.79 7.93-.09-.09-10.74a4.23 4.23 0 0 0 -1.06-2.74 3.8 3.8 0 0 0 -2.82-1v-.5l-.07.5h-4z" fill="#fff"/><path d="m389.39 118.4c11.26 1.21 10.6 10.37 10.6 10.37l.14 13-6 .06.09 7.36 5.95-.06s.05 4.23.07 6.56a7.77 7.77 0 0 1 -3 6.22c3.13.71 3.19 7.82 3.19 7.82l.09 8.75 41.88-.46 3.11-22.24-5.95.06 1-7.37 6-.06 3.3-23.53h4.64a4.73 4.73 0 0 1 4.16 2.83l3.47 20.57-6 .07.41 2.5 13.69.13v1.79l-13.31.52.4 2.41 5.95-.07 8.73 52.37-9.41.1-3.69-26.06h-8.18l-3.12 26.26-9.41.1 3.66-26.15-41.23.46.21 18.95-8.58.1-.21-19-8.93.1.21 19-8.58.09-.2-19h-1.91l.16 14.46h-1.79l-.46-14.41-34.78.38v-4.22l35.08-.39-.26-23.53h1.79l.13 23.53h2l-.32-29.35-6 .07-.08-7.36 6-.07-.26-23.49s9.46-.17 15.56-.17m-6.74 23.6 8.93-.1-.12-11.22a4.14 4.14 0 0 0 -4.38-4.24h-.09-4.53l.17 15.51m.18 15.94h4.52.31c1 0 3.95-.37 4.05-4.83a32.1 32.1 0 0 0 0-4s0 .2 0 .2l-8.94.1.1 8.58m65.09-2.15h1.28l-.7-4.88-.58 4.89m3.3 22.17 7.08-.08-3.15-22.17h-1.27l-2.66 22.23m-68.17.75h8.92l-.08-7.41s1.22-5.53-6-5.53a19.44 19.44 0 0 0 -3 .26l.13 12.68m6.42-61.28h-.09c-6 0-15.49.17-15.58.18h-1v1l.24 22.49h-4.95-1v1l.08 7.36v1h1l5-.05v3.81h-.9-1.79-1v1l.25 22.53-34.08.38h-1v1 4.22 1h1l33.8-.37.44 13.47v1h1 2.69v3.5 1h1l8.58-.09h1v-1l-.2-18 6.94-.08.19 18v1h1l8.58-.1h1v-1l-.2-18 39.07-.42-3.5 25-.16 1.15h1.16l9.41-.1h.88l.1-.87 3-25.37h6.57l3.57 25.21.13.87h.88l9.4-.1h1.17l-.19-1.15-8.59-52.44-.14-.85h-.86l-5.09.06-.08-.44 12.18-.48h1v-1-1.79-1h-1l-12.85-.13-.08-.51 4.79-.06h1.17l-.19-1.15-3.47-20.57v-.11-.1a5.69 5.69 0 0 0 -5.09-3.46h-.06-4.64-.96l-.12.85-3.18 22.68h-5.1-.86l-.12.85-1 7.37-.16 1.16h1.16 4.79l-2.83 20.23-40 .44-.08-7.74c0-.68-.13-5.89-2.47-8a9.11 9.11 0 0 0 2.31-6c0-2.33-.07-6.56-.07-6.56v-1h-1l-5 .05v-5.36l4.95-.05h1v-1l-.14-13c0-.83.11-10.13-11.49-11.37zm-6 10h3.53.07a3.32 3.32 0 0 1 2.44.85 3.72 3.72 0 0 1 .93 2.38l.11 10.24-6.93.08-.15-13.51zm.25 22.87 7-.08v2.78c-.08 3.35-1.94 3.85-3.05 3.85h-.32-3.52l-.08-6.57zm68.61 26.6 2.19-18.4 2.61 18.34zm-68.43-10a16.37 16.37 0 0 1 2-.13c2.09 0 3.55.49 4.34 1.47a3.77 3.77 0 0 1 .65 2.85v.1.12l.07 6.4h-6.94zm-10.48 10.91v-4.62l.05 4.62z" fill="#1d1d1b"/><path d="m323.76 214.48a3.67 3.67 0 0 1 -3.05-1.22 4.17 4.17 0 0 1 -.59-3.19l-.52-48.07-6 .07-.09-8.36 5.95-.07-.15-14-12 .13-.07-5.11a4.5 4.5 0 0 1 1.11-3.35 4.07 4.07 0 0 1 2.88-1.08 5.13 5.13 0 0 1 .68 0l33.26-.37-2.73 6.14a5.9 5.9 0 0 1 -5.28 3.43l-5.15.05c-1.56 0-2.63.39-3.08 1.07a2.27 2.27 0 0 0 -.12 1.88v.08l.13 12-6 .07.07 6.36 6-.07.59 53.53z" fill="#fff"/><path d="m344.41 130.37-2.41 5.41a5.36 5.36 0 0 1 -4.82 3.13l-5.18.09c-5.12.06-3.67 3.63-3.67 3.63l.13 11.45-6 .06.08 7.36 6-.06.57 52.52-5.29.06h-.07c-4.08 0-3.13-3.86-3.13-3.86l-.54-48.63-5.95.06-.09-7.36 6-.06-.17-15-12 .13-.07-4.61c-.05-3.52 2.35-3.93 3.49-3.93a4 4 0 0 1 .6 0l32.57-.36m1.55-1h-1.56l-32.5.36a4.65 4.65 0 0 0 -.66 0 4.44 4.44 0 0 0 -3.23 1.23 5 5 0 0 0 -1.26 3.71l.07 4.61v1h1l11-.12.14 13-5 .05h-1v1l.09 7.36v1h1l5-.05.52 47.52a4.57 4.57 0 0 0 .7 3.55 4.15 4.15 0 0 0 3.44 1.41h.09l5.29-.06h1v-1l-.57-52.53v-1h-1-5l-.06-5.36 5-.05h1v-1l-.13-11.45v-.19l-.07-.17a1.78 1.78 0 0 1 .08-1.42c.36-.52 1.31-.82 2.67-.84l5.11-.05a6.42 6.42 0 0 0 5.77-3.73l2.42-5.4.64-1.43z" fill="#1d1d1b"/><path d="m315.61 171.66h2.79v34.77h-2.79z" fill="#fff" transform="matrix(.99994145 -.01082083 .01082083 .99994145 -2.03 3.45)"/><path d="m317.71 172.15.37 33.76h-1.79l-.37-33.76zm1-1h-1-1.79-1v1l.37 33.76v1h1 1.79 1v-1l-.37-33.76z" fill="#1d1d1b"/><path d="m262.83 203.17h-3.57c-.13 0-8-.81-9.44-10.92.08-7.06-.09-8.52-.1-8.58a5.86 5.86 0 0 1 3.8-5.68l5.1-2.32.7-.32.15 13.62c0 .08-.25 3.05 1.22 4.65a3.29 3.29 0 0 0 2.55 1h.3a3.91 3.91 0 0 0 2.92-1.32 6.43 6.43 0 0 0 1.07-4.29l-.17-9.23a56.34 56.34 0 0 0 -4.31-11.08l-10.31-18.8-6 .07-3.11-8.33 6.11-.07-.52-4.11-.09-10.16v-.06c.09-.38 2.34-9.39 8.62-9.78 5.92-.36 7.75-.39 7.82-.39s8.24.13 10.49 8.28a50.9 50.9 0 0 1 .53 6.4c0 .08.5 3.74-4.34 6l-5.25 2.4-.25-11.39a4.12 4.12 0 0 0 -3.83-3.12h-.11a3.94 3.94 0 0 0 -4 4.19c0 1.69.25 9.61.25 9.69l.7 3-5.87.07.64 1.78 15.68-.17v2.77l-14.21.43.78 1.46 6-.07 11.15 20.49c.14.27 3.21 6.41 3.27 12l.11 10.6c0 .1-.28 9.19-9.55 11.27h-4.87z" fill="#fff"/><path d="m265.57 117.57s7.83 0 10 7.91a49.56 49.56 0 0 1 .51 6.27s.51 3.42-4 5.51l-4.56 2.09-.23-10.69s-.89-3.55-4.33-3.55h-.12a4.42 4.42 0 0 0 -4.48 4.69c0 1.72.25 9.7.25 9.7l.57 2.47-5.95.07 1 2.77 15.53-.17v1.79l-14.59.5 1.31 2.43 5.95-.07 11 20.23s3.15 6.22 3.21 11.78.12 10.6.12 10.6-.17 8.77-9.17 10.78h-8.34s-7.54-.65-8.94-10.49c.09-7.16-.09-8.57-.09-8.57s-.39-3.4 3.5-5.16l5.11-2.32.17 12.86s-.56 6.17 4.27 6.17h.33c5.18-.28 4.46-6.16 4.46-6.16l-.18-9.23a55.7 55.7 0 0 0 -4.36-11.26c-2.84-5.15-10.52-19.12-10.52-19.12l-6 .06-2.74-7.33 5.95-.06-.58-4.67-.09-10s2.18-9 8.16-9.4 7.79-.39 7.79-.39m0-1c-.07 0-1.9 0-7.84.39-6.64.41-9 9.77-9.08 10.16v.12.13l.09 10v.12l.44 3.55h-4.84-1.42l.5 1.33 2.74 7.33.25.66h.7l5.36-.06c1.41 2.59 7.68 14 10.16 18.57a55.45 55.45 0 0 1 4.25 10.91l.2 9.18v.1a5.81 5.81 0 0 1 -.95 3.91 3.43 3.43 0 0 1 -2.57 1.14h-.27a2.8 2.8 0 0 1 -2.18-.85c-1.32-1.44-1.09-4.2-1.09-4.23v-.07l-.14-12.84v-1.54l-1.4.64-5.11 2.32c-4.51 2-4.1 6-4.08 6.18s.17 1.56.08 8.45v.15c.77 5.45 3.38 8.24 5.43 9.62a10.31 10.31 0 0 0 4.42 1.73h8.53.11c9.65-2.17 9.94-11.64 9.94-11.74l-.11-10.63c-.06-5.73-3.19-12-3.32-12.22l-11-20.25-.29-.53h-.6l-5.35.06-.26-.48 13-.44h1v-1-1.79-1h-1l-14.83.16-.28-.78 4.54-.05h1.25l-.28-1.21-.55-2.37c0-.93-.23-8-.25-9.59a3.47 3.47 0 0 1 3.5-3.68h.1a3.63 3.63 0 0 1 3.33 2.7l.23 10.56v1.53l1.38-.64 4.56-2.09c4.83-2.22 4.69-5.86 4.63-6.48a48.28 48.28 0 0 0 -.52-6.36v-.06c-2.35-8.51-10.88-8.65-11-8.65z" fill="#1d1d1b"/><path d="m185.27 194.23h-1.71v10.77h-2.78l-.12-10.75-29.29.32 1.53 9.43-10.43.11-1.32-9.34-11.69.13-1.12 9.37-10.43.11 1.42-9.37-39.79.44-.06-5.22 40.48-.45 5.33-38-6 .06 1.18-8.37 5.95-.06 3.3-23.53 5.06-.06a3.44 3.44 0 0 1 .46 0c1.15 0 3.9.48 4.63 4.93l3.2 19.5-6 .07.25 1.5 14.94.13v2.76l-14.42.53.23 1.43 6-.07 6.37 38.88 30.08-.49-.2-18.62h2.78l.37 18.64h1.53l-.31-28.29-6 .06-.09-8.36 6-.06-.26-23.49 16-.18a11.28 11.28 0 0 1 11.22 10.82c.15 7.13.15 13 .15 13.05v.5l-5.95.06.07 6.36 6-.06v4.55c0 .08-.21 5.47-4 7 2.34 1.44 4.14 3.13 4.18 6.57 0 3.66.27 25.72.27 25.72v.07c-.1.38-2.51 9.28-9.06 9.53-6.19.24-17.27.37-17.38.37h-.51zm9.36 9.33h4.14c.13 0 3.91-.36 3.87-4 0-2.89 0-4.7 0-5.53l-8 .09zm-64.56-13.94 10.34-.11-5.41-37.9h-.4zm64.4-.73 8.05-.07-.1-9.38a4.9 4.9 0 0 0 -1.13-3.2 3.65 3.65 0 0 0 -2.76-1v-.5l-.07.5h-4.14zm-.25-22.49 5-.11a2.38 2.38 0 0 0 1.84-.83c1.2-1.36 1.23-4 1.18-5.06l-8.07.09zm-.16-14.27 8.06-.09-.12-10.12c0-.07-.75-3.75-3.9-3.75v-.5.5l-4.15.05zm-65.27-1.45h.14l-.07-.53z" fill="#fff"/><path d="m135.28 120.23c1 0 3.47.43 4.14 4.51.85 5.16 3.1 18.93 3.1 18.93l-6 .06.41 2.5 14.88.12v1.79l-14.5.54.4 2.4 5.95-.06 6.37 38.88 31-.51-.21-18.62h1.79l.37 18.64h2.46l-.33-29.3-5.95.07-.08-7.36 6-.07-.26-23.49 15.49-.17c.46 0 9.72.13 10.69 10.37.15 7.16.15 13 .15 13l-6 .07.08 7.36 6-.07v4s-.18 6.11-4.81 6.85c2.76 1.56 4.92 3.07 5 6.73s.27 25.66.27 25.66-2.35 8.92-8.6 9.16-17.37.37-17.37.37v-18.86h-2.71v10.76h-1.79l-.11-10.75-30.38.33 1.53 9.34-9.4.11-1.33-9.35-12.56.14-1.12 9.37-9.41.11 1.42-9.38-39.86.48v-4.22l40.41-.44 5.47-39-6 .07 1-7.37 6-.07 3.3-23.53h4.64a2.79 2.79 0 0 1 .44 0m58.29 32.41 9.05-.1-.12-10.63s-.78-4.24-4.4-4.24l-4.64.05.16 14.92m-65.34-1.45h1.28l-.69-4.87-.59 4.89m1.28 38.94 11.46-.25-5.52-38.89h-1.27l-4.68 39m64.22-23.22 5.5-.12c4.17-.1 3.47-6.89 3.47-6.89l-9 .1.08 6.91m.24 22.48 9.06-.07-.11-9.89s.18-4.71-4.39-4.71h-.07l-4.65.05zm.16 14.68h4.65s4.4-.34 4.36-4.46 0-6 0-6l-9 .1v10.43m-58.85-84.84a5.2 5.2 0 0 0 -.52 0h-4.57-.86l-.12.85-3.29 22.72-5.1.06h-.86l-.12.85-1 7.37-.16 1.15h1.16l4.79-.05-5.19 37-39.52.44h-1v1 4.22 1h1l38.7-.42-1.24 8.21-.18 1.16h1.18l9.41-.11h.88l.1-.87 1-8.5 10.8-.12 1.21 8.48.12.87h.88l9.41-.11h1.16l-.19-1.15-1.24-8.23 28.21-.31.1 9.76v1h1 1.78 1v-10.8h.71v18.89h1c.11 0 11.2-.13 17.4-.37 6.91-.27 9.42-9.51 9.53-9.91v-.13-.13s-.23-22-.27-25.66a7.4 7.4 0 0 0 -3.69-6.51c2.63-1.6 3.48-5.08 3.54-7v-4.09-1h-1l-5 .06-.06-5.36 5-.06h1v-1c0-.05 0-5.93-.15-13v-.08c-1.06-11.14-11.26-11.27-11.69-11.27l-15.52.17h-1v1l.25 22.49-4.95.06h-1v1l.08 7.36v1h1l4.95-.06.3 27.29h-.52l-.35-17.66v-1h-1-1.79-1v1l.2 17.63-29.16.48-6.23-38-.14-.84h-.86-5.09l-.08-.44 13.37-.49h1v-1-1.79-1h-1l-14-.11-.08-.52 4.79-.05h1.17l-.19-1.15-3.1-18.93c-.82-5-4.14-5.35-5.13-5.35zm59.14 19.48h3.64c2.56 0 3.33 2.86 3.45 3.35l.1 9.53-7.05.08-.14-12.92zm-63.78 50.4 4.22-35.17 5 35.07-9.19.1zm64-28.12 7.09-.08c0 1.28-.19 3.22-1.07 4.22a1.92 1.92 0 0 1 -1.48.66l-4.49.1zm.16 14.77h3.65.06a3.18 3.18 0 0 1 2.4.86 4.37 4.37 0 0 1 1 2.82l.09 8.93h-7l-.14-12.62zm.31 18.87 7-.08v5c0 3-2.94 3.4-3.41 3.45h-3.6v-8.43z" fill="#1d1d1b"/></svg>