<svg viewBox="0 0 703 358" xmlns="http://www.w3.org/2000/svg"><path d="m-5-9h717v379h-717z" fill="#1d1d1b"/><path d="m308.75 83.38h89.61v4.48h-89.61z" fill="#febd2d"/><path d="m178.9 182.18 16.4 28.41h-32.8z" fill="#feec34"/><path d="m211.71 182.18 16.4 28.41h-32.81z" fill="#feec34"/><path d="m277.31 182.18 16.41 28.41h-32.81z" fill="#febd2d"/><path d="m310.12 182.18 16.4 28.41h-32.8z" fill="#feec34"/><path d="m342.92 182.18 16.4 28.41h-32.8z" fill="#feec34"/><path d="m408.53 182.18 16.4 28.41h-32.8z" fill="#febd2d"/><path d="m474.14 182.18 16.4 28.41h-32.8z" fill="#feec34"/><path d="m506.94 182.18 16.4 28.41h-32.8z" fill="#febd2d"/><path d="m424.94 209.96-16.4-28.41h32.81z" fill="#febd2d"/><path d="m392.14 209.96-16.4-28.41h32.8z" fill="#feec34"/><path d="m359.33 209.96-16.4-28.41h32.81z" fill="#febd2d"/><path d="m195.29 211.22 16.4 28.41h-32.8z" fill="#feec34"/><path d="m228.1 211.22 16.4 28.41h-32.81z" fill="#feec34"/><path d="m260.9 211.22 16.4 28.41h-32.8z" fill="#febd2d"/><path d="m293.7 211.22 16.41 28.41h-32.81z" fill="#febd2d"/><path d="m359.31 211.22 16.4 28.41h-32.8z" fill="#feec34"/><path d="m424.92 211.22 16.4 28.41h-32.8z" fill="#feec34"/><path d="m457.72 211.22 16.41 28.41h-32.81z" fill="#feec34"/><path d="m490.53 211.22 16.4 28.41h-32.8z" fill="#febd2d"/><path d="m523.33 211.22 16.4 28.41h-32.8z" fill="#feec34"/><path d="m506.94 239-16.4-28.41h32.8z" fill="#febd2d"/><path d="m408.53 239-16.4-28.41h32.8z" fill="#febd2d"/><path d="m310.12 239-16.4-28.41h32.8z" fill="#feec34"/><path d="m277.31 239-16.4-28.41h32.81z" fill="#febd2d"/><path d="m244.51 239-16.4-28.41h32.8z" fill="#feec34"/><path d="m178.9 239-16.4-28.41h32.8z" fill="#febd2d"/><path d="m211.73 240.26 16.4 28.41h-32.8z" fill="#feec34"/><path d="m244.53 240.26 16.41 28.41h-32.81z" fill="#feec34"/><path d="m277.34 240.26 16.4 28.41h-32.8z" fill="#febd2d"/><path d="m506.96 240.26 16.41 28.41h-32.81z" fill="#febd2d"/><path d="m457.77 268.04-16.4-28.41h32.8z" fill="#feec34"/><path d="m424.97 268.04-16.4-28.41h32.8z" fill="#febd2d"/><path d="m260.95 268.04-16.4-28.41h32.8z" fill="#feec34"/><path d="m195.32 269.3 16.4 28.41h-32.81z" fill="#feec34"/><path d="m457.75 269.3 16.4 28.41h-32.8z" fill="#feec34"/><path d="m441.36 297.08-16.41-28.41h32.81z" fill="#febd2d"/><path d="m244.53 297.08-16.4-28.41h32.81z" fill="#febd2d"/><path d="m178.93 297.08-16.41-28.41h32.81z" fill="#feec34"/><path d="m506.95 181.35-16.4-28.41h32.81z" fill="#febd2d"/><path d="m474.15 181.35-16.4-28.41h32.8z" fill="#feec34"/><path d="m408.54 181.35-16.4-28.41h32.8z" fill="#feec34"/><path d="m375.74 181.35-16.41-28.41h32.81z" fill="#febd2d"/><g fill="#feec34"><path d="m310.13 181.35-16.4-28.41h32.8z"/><path d="m277.33 181.35-16.41-28.41h32.81z"/><path d="m244.52 181.35-16.4-28.41h32.8z"/><path d="m211.72 181.35-16.4-28.41h32.8z"/></g><path d="m178.91 181.35-16.4-28.41h32.81z" fill="#febd2d"/><path d="m162.5 153.57 16.4 28.41h-32.8z" fill="#feec34"/><path d="m228.11 153.57 16.4 28.41h-32.8z" fill="#febd2d"/><path d="m293.72 153.57 16.4 28.41h-32.81z" fill="#febd2d"/><path d="m326.52 153.57 16.4 28.41h-32.8z" fill="#feec34"/><path d="m359.32 153.57 16.41 28.41h-32.81z" fill="#feec34"/><path d="m392.13 153.57 16.4 28.41h-32.8z" fill="#febd2d"/><path d="m424.93 153.57 16.4 28.41h-32.8z" fill="#feec34"/><path d="m523.34 153.57 16.41 28.41h-32.81z" fill="#feec34"/><path d="m523.37 152.31-16.41-28.41h32.81z" fill="#feec34"/><path d="m457.76 152.31-16.4-28.41h32.8z" fill="#febd2d"/><path d="m392.15 152.31-16.4-28.41h32.8z" fill="#feec34"/><path d="m326.54 152.31-16.4-28.41h32.81z" fill="#febd2d"/><path d="m260.94 152.31-16.41-28.41h32.81z" fill="#febd2d"/><path d="m195.33 152.31-16.4-28.41h32.8z" fill="#febd2d"/><path d="m162.52 152.31-16.4-28.41h32.81z" fill="#feec34"/><path d="m310.13 124.53 16.4 28.41h-32.8z" fill="#febd2d"/><path d="m375.74 124.53 16.4 28.41h-32.81z" fill="#febd2d"/><path d="m441.35 124.53 16.4 28.41h-32.81z" fill="#feec34"/><path d="m506.95 124.53 16.41 28.41h-32.81z" fill="#febd2d"/><path d="m474.13 123.27-16.41-28.41h32.81z" fill="#feec34"/><path d="m441.32 123.27-16.4-28.41h32.8z" fill="#feec34"/><path d="m244.5 123.27-16.4-28.41h32.8z" fill="#febd2d"/><path d="m178.89 123.27-16.4-28.41h32.8z" fill="#febd2d"/><path d="m195.28 95.49 16.4 28.41h-32.8z" fill="#feec34"/><path d="m228.08 95.49 16.41 28.41h-32.81z" fill="#feec34"/><path d="m260.89 95.49 16.4 28.41h-32.8z" fill="#febd2d"/><path d="m424.91 95.49 16.4 28.41h-32.81z" fill="#feec34"/><path d="m490.54 94.23-16.4-28.41h32.8z" fill="#febd2d"/><path d="m424.93 94.23-16.4-28.41h32.8z" fill="#feec34"/><path d="m228.11 94.23-16.4-28.41h32.8z" fill="#feec34"/><path d="m178.89 66.45 16.4 28.41h-32.8z" fill="#febd2d"/><path d="m310.11 66.45 16.4 28.41h-32.81z" fill="#febd2d"/><path d="m506.93 66.45 16.4 28.41h-32.8z" fill="#feec34"/><path d="m472.15 103.95h89.61v4.48h-89.61z" fill="#feec34"/><path d="m520.2 174.13h89.61v4.48h-89.61z" fill="#feec34"/><path d="m505.88 255.69h53.76v4.48h-53.76z" fill="#febd2d"/><path d="m122.13 255.69h89.61v4.48h-89.61z" fill="#feec34"/><path d="m72.88 170.01h89.61v4.48h-89.61z" fill="#feec34"/><path d="m277.77 254.08h89.61v4.48h-89.61z" fill="#febd2d"/><path d="m266.39 114.36h89.61v4.48h-89.61z" fill="#febd2d"/><path d="m324.84 225.65h35.84v4.48h-35.84z" fill="#feec34"/><path d="m565.07 212.69c-.6 0-2.57-.27-2.61-3.79l-.53-48.73-6 .06-.09-8.35 6-.07v-2.74l-52.92.58-.2.57 5.95-.06-2.58 7.45 15.08 45.94-10 .11-10.94-34.32.38 34.44-9.46.1-.58-52.52-5.95.06-.09-8.36 5.95-.06-.21-19.71a2.86 2.86 0 0 1 .45-2.36c.72-1 2.12-1.48 4.14-1.48h.25 3 .6v-.14l.56.06h.18.26v.17a.46.46 0 0 1 .14.35.47.47 0 0 1 -.13.33l.25 22.61h1.54l7.83-23.34 10-.11-8.44 24.35h-6l-.2.57 51.05-.56-.07-6.08-12 .13-.07-6.28a2.21 2.21 0 0 1 .38-1.75c.7-1 2.15-1.45 4.31-1.47l33.24-.37-3.09 6.91c-.13.42-1.07 2.59-6.3 2.65l-5.34.06a1.28 1.28 0 0 0 -.89.41 3.65 3.65 0 0 0 -.72 2.58v3.1l51.39-.56.06 5.24-51.4.57v3.74l-5.95.06.07 6.36 6-.06.59 53.52-6.53.07a1.54 1.54 0 0 1 -.36.12z" fill="#fff"/><path d="m505.17 119.91s.3 0 0 .06zm19.41 0-8.08 23.34h-6l-.54 1.57 52.26-.57-.08-7.07-12 .13-.07-5.84s-.8-2.61 4.2-2.66l32.46-.36-2.73 6.29s-.5 2.27-5.84 2.33l-5.33.06c-.2 0-2.13.09-2.09 3.5v3.6l51.4-.57v4.25l-51.39.56v3.74l-6 .07.08 7.36 6-.07.58 52.53-6.08.06a1.41 1.41 0 0 1 -.31 0c-.65 0-2.07-.33-2.11-3.29 0-3.84-.54-49.24-.54-49.24l-5.95.07-.08-7.36 6-.07v-3.73l-53.77.59-.55 1.57 6-.06-2.4 6.93 14.91 45.46-8.93.1-11.93-37.13.41 37.28-8.46.09-.57-52.53-6 .07-.08-7.36 6-.07-.23-20.27s-1-3.27 4.1-3.27h.24 3s.95 0 1.11 0l.25 23.43h2.4l7.81-23.37zm-20.43-1.16v.25h-.1-3-.26c-2.19 0-3.72.57-4.55 1.68a3.38 3.38 0 0 0 -.54 2.72l.3 19.1-5 .06h-1v1l.08 7.36v1h1l5-.06.56 51.53v1h1l8.45-.09h1v-1l-.33-30.61 9.81 30.8.23.71h.74l8.93-.1h1.36l-.42-1.3-14.81-45.14 2.29-6.62.32-.91 46.11-.5v1.74l-5 .05h-1v1l.08 7.36v1h1l4.95-.06.53 48.24c0 4 2.39 4.28 3.11 4.28a2.22 2.22 0 0 0 .41 0l6-.06h1v-1l-.58-52.53v-1h-1l-5 .06-.06-5.36 5-.06h1v-1-2.74l50.39-.55h1v-1-4.25-1h-1l-50.4.56v-2.6c0-1.81.58-2.47 1.1-2.49l5.36-.06c5.43-.06 6.55-2.34 6.76-3l2.76-6.16.64-1.43h-1.56l-32.46.36c-2.33 0-3.92.58-4.71 1.67a2.74 2.74 0 0 0 -.48 2.11l.07 5.73v1h1l11-.12v5.07l-43.87.48.07-.2 8.09-23.35.46-1.34h-1.42l-8.93.09h-.71l-.23.68-7.6 22.66h-.69l-.24-22a1 1 0 0 0 .13-.47 1.07 1.07 0 0 0 -.14-.53v-.54h-.7-.17l-1.13-.14z" fill="#1d1d1b"/><path d="m557.94 174.03h2.79v26.32h-2.79z" fill="#fff" transform="matrix(.99994145 -.01082083 .01082083 .99994145 -2 6.09)"/><path d="m560.09 174.52.28 25.32h-1.79l-.28-25.32zm1-1h-1-1.79-1v1l.28 25.32v1h1 1.79 1v-1l-.28-25.32z" fill="#1d1d1b"/><path d="m492.92 160.99h2.79v34.77h-2.79z" fill="#fff" transform="matrix(1 -.01 .01 1 -1.97 5.56)"/><path d="m495 161.48.37 33.77h-1.79l-.37-33.77zm1-1h-1-1.78-1v1l.37 33.77v1h1 1.79 1v-1l-.38-33.78v-1z" fill="#1d1d1b"/><path d="m436.09 185.41-40.15.44.2 19-9.57.1-.21-19-7.93.09.21 19-9.58.11-.21-19h-.85l.16 14.45h-2.78l-.46-14.45-34.79.38-.06-5.22 35.03-.31-.25-23.53h2.79l.13 23.53h1l-.31-28.35-6 .06-.1-8.35 6-.07-.26-23.49h.5c.09 0 9.53-.17 15.56-.17h.1c11.61 1.24 11 10.8 11 10.9l.15 13.46-6 .07.07 6.36 6-.07s.05 4.73.07 7.06a8.56 8.56 0 0 1 -2.56 6.1c2.63 1.67 2.72 7.67 2.72 7.95l.09 8.24 40.94-.45 3-21.24-6 .07 1.18-8.37 6-.07 3.3-23.53 5.08-.05a5.19 5.19 0 0 1 4.67 3.14v.06l3.58 21.2-6 .06.25 1.51 13.76.14v2.76l-13.23.52.23 1.42 6-.06 8.75 53.43-10.43.12-3.7-26.08h-7.18l-3.14 26.24-10.43.12zm-49.79-4.58-.07-7v-.06a4.31 4.31 0 0 0 -.74-3.26c-.89-1.1-2.49-1.66-4.75-1.66a17.83 17.83 0 0 0 -2.51.19l.13 11.75zm60.3-.76 5.94-.06-3-21.17h-.4zm-68.46-20h4 .31c1 0 3.46-.42 3.55-4.34 0-1.8 0-2.77 0-3.29l-8 .08zm65.16-2.15h.14l-.07-.52zm-65.3-13.81 7.93-.08-.12-10.72a4.24 4.24 0 0 0 -1.07-2.75 3.79 3.79 0 0 0 -2.8-1v-.5l-.08.5-4 .05z" fill="#fff"/><path d="m384.2 121.05c11.26 1.21 10.6 10.37 10.6 10.37l.14 13-6 .06.08 7.36 5.95-.06s.05 4.23.07 6.56a7.77 7.77 0 0 1 -3 6.22c3.13.71 3.19 7.82 3.19 7.82l.09 8.74 41.88-.46 3.11-22.23-5.95.06 1-7.37 6-.06 3.3-23.53 4.64-.05h.06a4.7 4.7 0 0 1 4.15 2.83l3.49 20.58-6 .07.41 2.5 13.69.13v1.79l-13.31.52.4 2.41 6-.07 8.59 52.44-9.41.1-3.69-26.07h-8.17l-3.1 26.29-9.41.1 3.66-26.15-41.23.46.21 18.95-8.58.1-.21-19-8.93.1.21 19-8.58.09-.2-19h-1.91l.16 14.45h-1.78l-.47-14.44-34.78.38v-4.22l35.08-.39-.26-23.53h1.79l.13 23.53h2l-.31-29.36-6 .07-.08-7.36 6-.07-.26-23.49s9.46-.17 15.56-.17m-6.73 23.57 8.93-.1-.12-11.22a4.14 4.14 0 0 0 -4.37-4.24h-.08l-4.53.05zm.18 15.94 4.52-.05h.31c1 0 3.95-.37 4-4.83a32.1 32.1 0 0 0 0-4s0 .2 0 .2l-8.94.1.1 8.58m65.09-2.15h1.25l-.69-4.88-.59 4.89m3.3 22.17 7.08-.08-3.1-22.18h-1.27l-2.73 22.25m-68.16.75h8.93l-.08-7.41s1.22-5.53-6-5.53a19.44 19.44 0 0 0 -3 .26l.14 12.68m6.41-61.28h-.09c-6 0-15.49.17-15.58.17h-1v1l.25 22.49-5 .05h-1v1l.08 7.36v1h1l5-.06v3.82h-.9-1.79-1v1l.25 22.53-34.08.38h-1v1 4.22 1h1l33.8-.37.44 13.47v1h1 1.78.91v3.5 1h1l8.57-.09h1v-1l-.2-18 6.94-.08.19 18v1h1l8.58-.1h1v-1l-.2-18 39.07-.42-3.5 25-.16 1.15h1.4l9.41-.1h.88l.1-.87 3-25.37h6.42l3.57 25.21.13.87h.88l9.41-.1h1.2l-.19-1.15-8.59-52.44-.14-.85h-.86l-5.09.06-.08-.44 12.18-.48h1v-1-1.79-1h-1l-12.85-.13-.08-.51 4.79-.06h1.17l-.19-1.15-3.47-20.57v-.11-.1a5.68 5.68 0 0 0 -5.08-3.46h-.07l-4.64.05h-.86l-.12.85-3.18 22.67-5.1.06h-.86l-.12.85-1 7.37-.16 1.16h1.16l4.79-.05-2.83 20.23-40 .44-.08-7.74c0-.68-.13-5.89-2.47-8a9.11 9.11 0 0 0 2.31-6c0-2.33-.07-6.56-.07-6.56v-1h-1l-5 .05v-5.36h4.95 1v-1l-.14-13c0-.83.11-10.13-11.49-11.37zm-6 10h3.53.07a3.29 3.29 0 0 1 2.45.86 3.71 3.71 0 0 1 .92 2.36l.11 10.25-6.93.08-.15-13.51zm.25 22.87 7-.08v2.78c-.08 3.35-1.94 3.85-3 3.85h-.32-3.52l-.08-6.57zm68.61 26.6 2.2-18.4 2.6 18.34zm-68.42-10a16.09 16.09 0 0 1 2-.13c2.09 0 3.55.49 4.34 1.47a3.76 3.76 0 0 1 .65 2.85v.1.12l.07 6.4h-6.94l-.11-10.81zm-10.49 10.91v-4.62l.05 4.62z" fill="#1d1d1b"/><path d="m318.57 217.13a3.64 3.64 0 0 1 -3-1.22 4.16 4.16 0 0 1 -.6-3.2l-.52-48.07-6 .07-.09-8.36 5.95-.07-.15-14-12 .13-.07-5.11a4.54 4.54 0 0 1 1.11-3.35 4.4 4.4 0 0 1 3.56-1l33.26-.37-2.74 6.12a5.9 5.9 0 0 1 -5.28 3.43l-5.15.05c-1.56 0-2.63.39-3.08 1.07a2.28 2.28 0 0 0 -.12 1.88v.08l.13 12-5.95.07.07 6.36 6-.07.59 53.53z" fill="#fff"/><path d="m339.22 133-2.43 5.4a5.36 5.36 0 0 1 -4.82 3.14l-5.11.05c-5.12.06-3.67 3.63-3.67 3.63l.13 11.45-6 .06.08 7.36 6-.06.58 52.52-5.29.06h-.08c-4.08 0-3.13-3.86-3.13-3.86l-.54-48.63-5.95.06-.08-7.36 5.95-.06-.16-15-12 .13-.07-4.61c-.05-3.52 2.35-3.93 3.49-3.93a4 4 0 0 1 .6 0l32.57-.36m1.55-1h-1.56l-32.5.36a4.65 4.65 0 0 0 -.66 0 4.44 4.44 0 0 0 -3.23 1.23 5 5 0 0 0 -1.26 3.71l.07 4.61v1h1l11-.12.14 13-5 .05h-1v1l.08 7.35v1h1 5l.52 47.52a4.54 4.54 0 0 0 .7 3.54 4.13 4.13 0 0 0 3.44 1.42h.09l5.29-.06h1v-1l-.6-52.6v-1h-1-5l-.06-5.36 5-.05h1v-1l-.13-11.45v-.14l-.07-.17a1.78 1.78 0 0 1 .08-1.42c.36-.52 1.31-.82 2.67-.84l5.11-.05a6.42 6.42 0 0 0 5.77-3.73l2.42-5.4.64-1.43z" fill="#1d1d1b"/><path d="m310.42 174.31h2.79v34.77h-2.79z" fill="#fff" transform="matrix(.99994145 -.01082083 .01082083 .99994145 -2.06 3.4)"/><path d="m312.52 174.8.37 33.76h-1.79l-.37-33.76zm1-1h-1-1.79-1v1l.37 33.76v1h1 1.79 1v-1l-.37-33.76z" fill="#1d1d1b"/><path d="m257.65 205.82h-3.58c-.13 0-8-.81-9.44-10.92.08-7.06-.09-8.52-.1-8.58a5.86 5.86 0 0 1 3.8-5.68l5.11-2.32.69-.32.15 13.61c0 .09-.25 3.06 1.22 4.66a3.29 3.29 0 0 0 2.55 1h.3a3.87 3.87 0 0 0 2.92-1.31 6.43 6.43 0 0 0 1.07-4.29l-.17-9.23a56.34 56.34 0 0 0 -4.31-11.08c-2.58-4.71-9.24-16.89-10.31-18.83l-6 .07-3.11-8.33 6.11-.07-.51-4.11-.1-10.16v-.06c.09-.38 2.34-9.39 8.62-9.78 5.92-.36 7.75-.39 7.82-.39s8.24.13 10.49 8.28a50.9 50.9 0 0 1 .53 6.4c0 .08.5 3.74-4.34 6l-5.25 2.4-.25-11.39a4.12 4.12 0 0 0 -3.83-3.12h-.11a3.94 3.94 0 0 0 -4 4.19c0 1.69.25 9.61.25 9.69l.7 3-5.87.07.64 1.78 15.68-.17v2.77l-14.27.49.78 1.46 6-.07 11.15 20.49c.14.27 3.21 6.4 3.27 12l.12 10.6c0 .1-.29 9.19-9.56 11.27h-4.86z" fill="#fff"/><path d="m260.39 120.22s7.82 0 10 7.91a49.56 49.56 0 0 1 .51 6.27s.51 3.42-4 5.51l-4.61 2.09-.23-10.69s-.89-3.55-4.33-3.55h-.12a4.43 4.43 0 0 0 -4.48 4.69c0 1.72.25 9.7.25 9.7l.57 2.47-5.95.07 1 2.77 15.53-.17v1.79l-14.59.5 1.31 2.43 6-.07 11 20.23s3.15 6.22 3.21 11.78.12 10.6.12 10.6-.17 8.77-9.17 10.78h-8.34s-7.54-.66-8.94-10.49c.09-7.16-.09-8.57-.09-8.57s-.39-3.4 3.5-5.16l5.11-2.32.14 12.84s-.56 6.17 4.27 6.17h.33c5.18-.28 4.46-6.16 4.46-6.16l-.18-9.23a55 55 0 0 0 -4.36-11.26c-2.81-5.12-10.45-19.09-10.45-19.09l-6 .06-2.74-7.33 5.95-.06-.58-4.67-.09-10s2.18-9 8.16-9.4 7.8-.39 7.8-.39m0-1c-.07 0-1.9 0-7.84.39-6.64.41-9 9.77-9.08 10.16v.12.06l.09 10v.12l.44 3.55-4.84.05h-1.42l.5 1.33 2.74 7.33.25.66h.7l5.36-.06c1.41 2.59 7.68 14 10.16 18.57a54.77 54.77 0 0 1 4.25 10.91l.17 9.12v.1a5.91 5.91 0 0 1 -1 3.91 3.43 3.43 0 0 1 -2.57 1.14h-.27a2.76 2.76 0 0 1 -2.18-.86c-1.31-1.42-1.09-4.19-1.09-4.22v-.1l-.14-12.85v-1.53l-1.4.64-5.11 2.31c-4.51 2.05-4.1 6-4.08 6.19s.17 1.56.08 8.45v.24c.77 5.45 3.38 8.24 5.43 9.62a10.31 10.31 0 0 0 4.42 1.73h8.53.11c9.65-2.16 9.94-11.63 9.95-11.73l-.12-10.63c-.06-5.73-3.19-12-3.32-12.22l-11-20.25-.29-.53h-.6l-5.35.06-.26-.48 13-.44h1v-1-1.79-1h-1l-14.83.16-.28-.78h4.54 1.25l-.28-1.22-.55-2.36c0-.93-.23-8-.25-9.59a3.47 3.47 0 0 1 3.5-3.68h.1a3.63 3.63 0 0 1 3.33 2.7l.23 10.56v1.53l1.38-.64 4.56-2.09c4.83-2.22 4.69-5.86 4.63-6.48a48.28 48.28 0 0 0 -.52-6.36v-.06c-2.35-8.51-10.87-8.65-11-8.65z" fill="#1d1d1b"/><path d="m180.08 196.88h-1.71v10.76h-2.78l-.12-10.76-29.29.33 1.53 9.34-10.43.11-1.28-9.29-11.69.13-1.12 9.37-10.43.11 1.42-9.37-39.79.44-.06-5.23 40.48-.44 5.33-38-6 .06 1.18-8.37 6-.06 3.3-23.53 5.06-.06a3.44 3.44 0 0 1 .46 0c1.15 0 3.9.48 4.63 4.93l3.2 19.5-6 .07.25 1.5 14.95.13v2.76l-14.42.53.23 1.43 6-.07 6.35 38.8 30.08-.49-.2-18.62h2.78l.37 18.64h1.46l-.31-28.29-6 .06-.09-8.36 6-.06-.26-23.49 16-.18a11.28 11.28 0 0 1 11.2 10.79c.15 7.13.15 13 .15 13.05v.5l-5.95.06.07 6.36 6-.06v4.55c0 .08-.21 5.47-4 7 2.34 1.44 4.15 3.13 4.18 6.57 0 3.66.27 25.72.27 25.72v.07c-.1.38-2.51 9.28-9.06 9.53-6.19.24-17.27.37-17.38.37h-.51zm9.36 9.33h4.14c.13 0 3.91-.36 3.87-3.95 0-2.89 0-4.7 0-5.53l-8 .09zm-64.56-13.94 10.34-.11-5.38-37.9h-.4zm64.4-.73 8.05-.07-.1-9.38a4.9 4.9 0 0 0 -1.13-3.2 3.65 3.65 0 0 0 -2.76-1v-.5l-.07.5h-4.14zm-.28-22.49 5-.11a2.38 2.38 0 0 0 1.84-.83c1.2-1.36 1.23-4 1.18-5.06l-8.07.09zm-.16-14.27 8.06-.09-.11-10.12c0-.07-.76-3.75-3.91-3.75v-.5.5l-4.15.05zm-65.26-1.45h.13l-.07-.53z" fill="#fff"/><path d="m130.09 122.88c1 0 3.47.43 4.14 4.51.85 5.16 3.1 18.93 3.1 18.93l-6 .06.4 2.5 14.88.12v1.79l-14.5.54.4 2.4 5.95-.06 6.37 38.88 31-.51-.21-18.62h1.79l.37 18.64h2.46l-.33-29.3-5.95.07-.08-7.36 5.95-.07-.25-23.49 15.48-.17c.46 0 9.72.13 10.69 10.37.15 7.16.15 13 .15 13l-6 .07.08 7.36 6-.07v4.05s-.18 6.11-4.81 6.85c2.76 1.56 4.92 3.07 5 6.73s.27 25.66.27 25.66-2.35 8.92-8.6 9.16-17.37.37-17.37.37v-18.91h-2.71v10.76h-1.79l.03-10.71-30.38.33 1.54 9.34-9.41.11-1.33-9.35-12.56.14-1.12 9.37-9.41.11 1.42-9.38-39.88.44v-4.22l40.41-.44 5.47-39-6 .07 1-7.37 6-.07 3.25-23.51h4.64a2.79 2.79 0 0 1 .44 0m58.29 32.41 9.05-.1-.11-10.63s-.79-4.24-4.41-4.24l-4.64.05.16 14.92m-65.42-1.57h1.28l-.69-4.87-.59 4.89m1.28 38.94 11.47-.13-5.52-38.89h-1.23l-4.68 39m64.22-23.22 5.5-.12c4.17-.1 3.47-6.89 3.47-6.89l-9 .1.08 6.91m.24 22.48 9.06-.07-.11-9.89s.18-4.71-4.39-4.71h-.07-4.65l.16 14.62m.16 14.68 4.65-.05s4.4-.34 4.36-4.46 0-6 0-6l-9 .1v10.43m-58.85-84.84a4.76 4.76 0 0 0 -.51 0l-4.64.15h-.86l-.12.85-3.18 22.68-5.1.06h-.86l-.12.85-1 7.37-.16 1.15h1.16l4.79-.05-5.19 37-39.54.43h-1v1 4.22 1h1l38.71-.43-1.25 8.22-.18 1.16h1.18l9.41-.11h.88l.1-.87 1-8.5 10.8-.12 1.21 8.48.12.87h.88l9.41-.11h1.16l-.19-1.15-1.34-8.19 28.21-.31.1 9.76v1h1 1.78 1v-10.86h.71v18.89h1c.11 0 11.2-.13 17.4-.37 6.91-.27 9.42-9.51 9.53-9.91v-.13-.13s-.23-22-.27-25.66a7.4 7.4 0 0 0 -3.69-6.51c2.63-1.6 3.48-5.08 3.54-7v-4.09-1h-1l-5 .06-.06-5.36 5-.06h1v-1c0-.05 0-5.93-.15-13v-.13c-1.06-11.14-11.26-11.27-11.69-11.27l-15.52.17h-1v1l.24 22.49-4.95.06h-1v1l.08 7.36v1h1l5-.06.29 27.29h-.46l-.35-17.66v-1h-1-1.79-1v1l.2 17.63-29.16.48-6.23-38-.14-.84h-.86l-5.09.05-.08-.44 13.37-.49h1v-1-1.79-1h-1l-14-.11-.08-.52 4.79-.05h1.17l-.19-1.15-3.1-18.93c-.82-5-4.13-5.35-5.13-5.35zm59.14 19.48h3.64c2.56 0 3.33 2.86 3.45 3.35l.1 9.53-7 .08-.14-12.92zm-63.78 50.4 4.22-35.17 5 35.07-9.19.1zm64-28.12 7.09-.08c0 1.28-.19 3.22-1.07 4.22a2 2 0 0 1 -1.48.66l-4.48.1zm.16 14.77h3.65.06a3.16 3.16 0 0 1 2.4.86 4.37 4.37 0 0 1 1 2.82l.1 8.93-7.06.05-.14-12.62zm.31 18.87 7-.08v5c0 3-3.06 3.41-3.41 3.45h-3.6v-8.43z" fill="#1d1d1b"/></svg>