<svg viewBox="0 0 703 358" xmlns="http://www.w3.org/2000/svg"><path d="m-5-10h717v379h-717z" fill="#1d1d1b"/><path d="m318.09 79.08h93.53v4.68h-93.53z" fill="#009ee2"/><path d="m182.55 182.21 17.13 29.65h-34.25z" fill="#80cce2"/><path d="m216.79 182.21 17.12 29.65h-34.23z" fill="#80cce2"/><path d="m285.28 182.21 17.12 29.65h-34.24z" fill="#009ee2"/><path d="m319.52 182.21 17.12 29.65h-34.24z" fill="#80cce2"/><path d="m353.76 182.21 17.12 29.65h-34.24z" fill="#80cce2"/><path d="m422.24 182.21 17.12 29.65h-34.24z" fill="#009ee2"/><path d="m490.72 182.21 17.12 29.65h-34.24z" fill="#80cce2"/><path d="m524.96 182.21 17.12 29.65h-34.24z" fill="#009ee2"/><path d="m439.37 211.2-17.12-29.65h34.24z" fill="#009ee2"/><path d="m405.13 211.2-17.12-29.65h34.24z" fill="#80cce2"/><path d="m370.89 211.2-17.12-29.65h34.24z" fill="#009ee2"/><path d="m199.66 212.52 17.12 29.66h-34.24z" fill="#80cce2"/><path d="m233.9 212.52 17.12 29.66h-34.24z" fill="#80cce2"/><path d="m268.14 212.52 17.12 29.66h-34.24z" fill="#009ee2"/><path d="m302.38 212.52 17.12 29.66h-34.24z" fill="#009ee2"/><path d="m370.87 212.52 17.12 29.66h-34.25z" fill="#80cce2"/><path d="m439.35 212.52 17.12 29.66h-34.24z" fill="#80cce2"/><path d="m473.59 212.52 17.12 29.66h-34.24z" fill="#80cce2"/><path d="m507.83 212.52 17.12 29.66h-34.24z" fill="#009ee2"/><path d="m542.07 212.52 17.12 29.66h-34.24z" fill="#80cce2"/><path d="m524.96 241.52-17.12-29.66h34.24z" fill="#009ee2"/><path d="m422.24 241.52-17.12-29.66h34.24z" fill="#009ee2"/><path d="m319.52 241.52-17.12-29.66h34.24z" fill="#80cce2"/><path d="m285.28 241.52-17.12-29.66h34.24z" fill="#009ee2"/><path d="m251.03 241.52-17.12-29.66h34.25z" fill="#80cce2"/><path d="m182.55 241.52-17.12-29.66h34.25z" fill="#009ee2"/><path d="m216.82 242.83 17.12 29.66h-34.24z" fill="#80cce2"/><path d="m251.06 242.83 17.12 29.66h-34.24z" fill="#80cce2"/><path d="m285.3 242.83 17.12 29.66h-34.24z" fill="#009ee2"/><path d="m524.99 242.83 17.12 29.66h-34.24z" fill="#009ee2"/><path d="m473.64 271.83-17.12-29.65h34.24z" fill="#80cce2"/><path d="m439.4 271.83-17.12-29.65h34.24z" fill="#009ee2"/><path d="m268.19 271.83-17.12-29.65h34.24z" fill="#80cce2"/><path d="m199.69 273.15 17.12 29.65h-34.24z" fill="#80cce2"/><path d="m473.61 273.15 17.12 29.65h-34.24z" fill="#80cce2"/><path d="m456.5 302.14-17.12-29.65h34.24z" fill="#009ee2"/><path d="m251.06 302.14-17.12-29.65h34.24z" fill="#009ee2"/><path d="m182.58 302.14-17.12-29.65h34.24z" fill="#80cce2"/><path d="m524.97 181.34-17.12-29.65h34.24z" fill="#009ee2"/><path d="m490.73 181.34-17.12-29.65h34.24z" fill="#80cce2"/><path d="m422.25 181.34-17.12-29.65h34.24z" fill="#80cce2"/><path d="m388.01 181.34-17.12-29.65h34.24z" fill="#009ee2"/><g fill="#80cce2"><path d="m319.53 181.34-17.12-29.65h34.24z"/><path d="m285.29 181.34-17.12-29.65h34.24z"/><path d="m251.05 181.34-17.12-29.65h34.24z"/><path d="m216.81 181.34-17.12-29.65h34.24z"/></g><path d="m182.57 181.34-17.12-29.65h34.24z" fill="#009ee2"/><path d="m165.43 152.35 17.12 29.65h-34.24z" fill="#80cce2"/><path d="m233.91 152.35 17.12 29.65h-34.24z" fill="#009ee2"/><path d="m302.4 152.35 17.12 29.65h-34.24z" fill="#009ee2"/><path d="m336.64 152.35 17.12 29.65h-34.24z" fill="#80cce2"/><path d="m370.88 152.35 17.12 29.65h-34.24z" fill="#80cce2"/><path d="m405.12 152.35 17.12 29.65h-34.24z" fill="#009ee2"/><path d="m439.36 152.35 17.12 29.65h-34.24z" fill="#80cce2"/><path d="m542.08 152.35 17.12 29.65h-34.24z" fill="#80cce2"/><path d="m542.11 151.03-17.12-29.65h34.24z" fill="#80cce2"/><path d="m473.62 151.03-17.12-29.65h34.25z" fill="#009ee2"/><path d="m405.14 151.03-17.12-29.65h34.24z" fill="#80cce2"/><path d="m336.66 151.03-17.12-29.65h34.24z" fill="#009ee2"/><path d="m268.18 151.03-17.12-29.65h34.24z" fill="#009ee2"/><path d="m199.7 151.03-17.12-29.65h34.24z" fill="#009ee2"/><path d="m165.46 151.03-17.12-29.65h34.24z" fill="#80cce2"/><path d="m319.53 122.03 17.12 29.66h-34.24z" fill="#009ee2"/><path d="m388.01 122.03 17.12 29.66h-34.24z" fill="#009ee2"/><path d="m456.49 122.03 17.12 29.66h-34.24z" fill="#80cce2"/><path d="m524.97 122.03 17.12 29.66h-34.24z" fill="#009ee2"/><path d="m490.71 120.72-17.12-29.66h34.24z" fill="#80cce2"/><path d="m456.47 120.72-17.12-29.66h34.24z" fill="#80cce2"/><path d="m251.02 120.72-17.12-29.66h34.24z" fill="#009ee2"/><path d="m182.54 120.72-17.12-29.66h34.24z" fill="#009ee2"/><path d="m199.65 91.72 17.12 29.66h-34.24z" fill="#80cce2"/><path d="m233.89 91.72 17.12 29.66h-34.24z" fill="#80cce2"/><path d="m268.13 91.72 17.12 29.66h-34.24z" fill="#009ee2"/><path d="m439.33 91.72 17.12 29.66h-34.24z" fill="#80cce2"/><path d="m507.84 90.41-17.12-29.66h34.24z" fill="#009ee2"/><path d="m439.36 90.41-17.12-29.66h34.24z" fill="#80cce2"/><path d="m233.91 90.41-17.12-29.66h34.24z" fill="#80cce2"/><path d="m182.54 61.41 17.12 29.65h-34.24z" fill="#009ee2"/><path d="m319.5 61.41 17.12 29.65h-34.24z" fill="#009ee2"/><path d="m524.95 61.41 17.12 29.65h-34.24z" fill="#80cce2"/><path d="m488.65 100.56h93.53v4.68h-93.53z" fill="#80cce2"/><path d="m538.8 173.81h93.53v4.68h-93.53z" fill="#80cce2"/><path d="m523.85 258.94h56.12v4.68h-56.12z" fill="#009ee2"/><path d="m123.3 258.94h93.53v4.68h-93.53z" fill="#80cce2"/><path d="m71.89 169.51h93.53v4.68h-93.53" fill="#80cce2"/><path d="m285.75 257.26h93.53v4.68h-93.53z" fill="#009ee2"/><path d="m273.88 111.42h93.53v4.68h-93.53z" fill="#009ee2"/><path d="m334.88 227.58h37.41v4.68h-37.41z" fill="#80cce2"/><path d="m580.63 219.24c-.6 0-2.56-.27-2.6-3.79l-.53-48.73-6 .06-.09-8.36 5.95-.06v-2.74l-52.92.58-.2.57 6-.06-2.58 7.44 15.04 45.95-10 .11-10.94-34.33.37 34.45-9.45.1-.58-52.53-5.95.07-.1-8.36 6-.07-.22-19.71a2.92 2.92 0 0 1 .45-2.35c.73-1 2.12-1.48 4.14-1.48h.26 3 .6v-.15l.56.07h.18.26v.16a.53.53 0 0 1 .14.36.52.52 0 0 1 -.13.33l.24 22.61h1.54l7.84-23.34 10-.11-8.43 24.35h-6l-.19.57 51.05-.56-.07-6.07-12 .13-.07-6.28a2.24 2.24 0 0 1 .38-1.76c.69-.95 2.14-1.44 4.31-1.47l33.24-.36-3.09 6.9c-.14.43-1.07 2.6-6.3 2.66l-5.34.06a1.26 1.26 0 0 0 -.89.41 3.59 3.59 0 0 0 -.72 2.58v3.1l51.4-.57.06 5.25-51.4.56v3.74l-6 .07.07 6.36 6-.07.59 53.53-6.53.07a2.45 2.45 0 0 1 -.35.11z" fill="#fff"/><path d="m520.73 126.46s.3 0 0 .06zm19.42 0-8.09 23.35h-5.95l-.55 1.57 52.26-.57-.08-7.08-12 .14-.06-5.84s-.8-2.61 4.2-2.67l32.46-.35-2.79 6.22s-.5 2.27-5.84 2.33l-5.34.06c-.21 0-2.13.09-2.09 3.5v3.59l51.39-.56.05 4.25-51.4.56v3.74l-6 .06.08 7.36 6-.06.57 52.52-6.07.07a1.57 1.57 0 0 1 -.32 0c-.64 0-2.07-.34-2.1-3.3 0-3.83-.54-49.23-.54-49.23l-6 .07-.08-7.36 6-.07v-3.74l-53.77.59-.55 1.58 6-.07-2.41 6.94 14.87 45.55-8.94.1-11.84-37.16.41 37.28-8.46.1-.58-52.53-5.95.06-.08-7.35 5.95-.07-.22-20.27s-1-3.27 4.09-3.27h.25 3s.94 0 1.1 0l.27 23.5h2.39l7.84-23.34 8.93-.1m-20.43-1.15v.21h-.09c-.63 0-1.57 0-3 0h-.27c-2.18 0-3.71.57-4.54 1.68a3.37 3.37 0 0 0 -.55 2.71l.21 19.16-4.95.06h-1v1l.08 7.36v1h1l5-.05.56 51.53v1h1l8.46-.1h1v-1l-.34-30.61 9.82 30.8.22.71h.74l8.94-.1h1.36l-.38-1.47-14.81-45.14 2.29-6.62.32-.91 46.11-.51v1.74l-5 .06h-1v1l.08 7.36v1h1l5-.06.53 48.24c0 4 2.39 4.28 3.1 4.28a2.22 2.22 0 0 0 .41 0l6-.07h1v-1l-.57-52.52v-1h-1-5l-.06-5.36 5-.05h1v-1-2.74l50.39-.55h1v-1l-.05-4.24v-1h-1l-50.39.55v-2.6c0-1.81.58-2.47 1.09-2.48l5.36-.06c5.44-.06 6.56-2.34 6.77-3l2.76-6.17.64-1.42h-1.56l-32.47.35c-2.33 0-3.91.59-4.7 1.68a2.7 2.7 0 0 0 -.48 2.11l.06 5.73v1h1l11-.13.06 5.08-43.87.48.07-.21 8.08-23.34.47-1.34h-1.42l-8.93.1h-.72l-.22.67-7.61 22.67h-.73l-.24-22a1.07 1.07 0 0 0 .13-.47 1.2 1.2 0 0 0 -.14-.53v-.55l-.71.06h-.16l-1.13-.13z" fill="#1d1d1b"/><path d="m573.51 180.57h2.79v26.32h-2.79z" fill="#fff" transform="matrix(.99994145 -.01082083 .01082083 .99994145 -2.07 6.26)"/><path d="m575.66 181.07.28 25.32h-1.79l-.28-25.32zm1-1h-1-1.79-1v1l.28 25.32v1h1 1.79 1v-1l-.28-25.33v-1z" fill="#1d1d1b"/><path d="m508.49 167.54h2.79v34.77h-2.79z" fill="#fff" transform="matrix(.99994145 -.01082083 .01082083 .99994145 -1.98 5.55)"/><path d="m510.59 168 .37 33.76h-1.78l-.37-33.76zm1-1h-1-1.79-1v1l.37 33.76v1h1 1.78 1v-1l-.36-33.76z" fill="#1d1d1b"/><path d="m451.65 192-40.15.44.21 19-9.57.1-.21-19-7.94.09.21 19-9.57.1-.21-19h-.9l.15 14.46h-2.77l-.47-14.45-34.78.38-.06-5.22 35.08-.39-.26-23.51h2.79l.13 23.54h1l-.31-28.34-6 .06-.09-8.36 6-.06-.26-23.49h.5c.09 0 9.55-.17 15.58-.17 11.69 1.24 11.13 10.81 11.12 10.9l.15 13.47-5.95.07.07 6.35 5.95-.06v.5s0 4.23.07 6.56a8.49 8.49 0 0 1 -2.57 6.09c2.64 1.67 2.72 7.68 2.72 8l.09 8.24 40.95-.45 3-21.24-6 .07 1.17-8.38 6-.06 3.3-23.53 5.07-.06a5.2 5.2 0 0 1 4.68 3.15l3.58 21.2-6 .07.25 1.51 13.75.13v2.77l-13.22.51.23 1.43 6-.07 8.84 53.37-10.43.11-3.7-26.07h-7.3l-3.15 26.24-10.42.1zm-49.78-4.59-.08-7a4.31 4.31 0 0 0 -.74-3.26c-.89-1.11-2.49-1.66-4.75-1.66a17.73 17.73 0 0 0 -2.51.19l.13 11.74zm60.3-.75 5.94-.07-3-21.17h-.4zm-68.46-20h4 .32c1 0 3.46-.43 3.54-4.34 0-1.81.05-2.78.05-3.3l-8 .09zm65.16-2.15h.13l-.08-.53zm-65.34-13.79 7.94-.09-.12-10.72a4.28 4.28 0 0 0 -1.07-2.74 3.81 3.81 0 0 0 -2.81-1v-.5l-.07.5h-4z" fill="#fff"/><path d="m399.77 127.6c11.3 1.2 10.63 10.4 10.63 10.4l.15 13-6 .07.08 7.36 6-.07s0 4.24.07 6.56a7.78 7.78 0 0 1 -3 6.22c3.13.72 3.18 7.83 3.18 7.83l.1 8.74 41.87-.46 3.09-22.25-5.95.07 1-7.37 6-.07 3.3-23.53 4.65-.05h.06a4.73 4.73 0 0 1 4.16 2.84l3.47 20.57-6 .07.41 2.49 13.69.14v1.78l-13.31.53.39 2.4 6-.06 8.59 52.44-9.41.1-3.7-26.07h-8.17l-3.12 26.21-9.41.11 3.67-26.15-41.26.45.2 19-8.57.09-.21-18.99-8.93.09.21 19-8.58.1-.21-19h-1.9l.16 14.45h-1.79l-.46-14.45-34.78.38-.05-4.22 35.09-.38-.26-23.53h1.79l.13 23.53h2l-.33-29.35-6 .07-.08-7.36 5.95-.07-.26-23.49s9.47-.17 15.57-.17m-6.69 23.57 8.93-.1-.12-11.22a4.14 4.14 0 0 0 -4.38-4.24h-.08-4.52l.17 15.51m.17 15.93h4.53a2.08 2.08 0 0 0 .31 0c1 0 3.95-.37 4-4.83a26.66 26.66 0 0 0 0-4s0 .2 0 .2l-8.93.1.09 8.57m65.1-2.14h1.27l-.69-4.87-.58 4.89m3.29 22.17 7.08-.08-3.14-22.17h-1.28l-2.66 22.24m-68.16.74h8.94l-.09-7.41s1.23-5.53-6-5.52a19.54 19.54 0 0 0 -3 .26l.14 12.67m6.42-61.27h-.09c-6 0-15.49.17-15.58.17h-1v1l.25 22.49-4.95.06h-1v1l.08 7.36v1h1l4.95-.06.05 3.82h-.91-1.78-1v1l.25 22.53-34.09.37h-1v1l.05 4.22v1h1l33.8-.37.43 13.47v1h1 1.79.9v3.51 1h1l8.58-.1h1v-1l-.2-18 6.93-.07.2 18v1h1l8.58-.09h1v-1l-.19-18 39.07-.43-3.51 25-.16 1.15h1.16l9.41-.11h.88l.11-.87 3-25.36h6.41l3.77 25.18.12.87h.88l9.41-.1h1.17l-.19-1.15-8.59-52.43-.14-.85h-.86l-5.1.05-.07-.44 12.18-.48h1v-1-1.78-1h-1l-12.91-.16-.08-.52 4.79-.05h1.17l-.2-1.16-3.47-20.57v-.11-.1a5.68 5.68 0 0 0 -5.11-3.49h-.06l-4.65.05h-.86l-.12.85-3.18 22.68-5.09.06h-.86l-.12.85-1 7.37-.17 1.15h1.11l4.79-.05-2.79 20.27-40 .44-.09-7.74c0-.68-.12-5.89-2.46-8a9.14 9.14 0 0 0 2.31-6.05c0-2.32-.07-6.56-.07-6.56v-1h-1l-5 .06-.09-5.38 5-.06h1v-1l-.15-13c0-.83.11-10.14-11.49-11.37zm-6 10.05h3.52.07a3.29 3.29 0 0 1 2.45.85 3.77 3.77 0 0 1 .93 2.38l.11 10.24-6.93.08-.15-13.51zm.25 22.87 7-.08c0 .57 0 1.44-.05 2.78-.07 3.35-1.93 3.85-3 3.85h-.32-3.53l-.07-6.57zm68.6 26.59 2.2-18.39 2.6 18.34zm-68.42-10a16.21 16.21 0 0 1 2-.13c2.11 0 3.57.49 4.36 1.48a3.79 3.79 0 0 1 .64 2.83v.11.11l.07 6.4h-6.93l-.12-10.8zm-10.41 10.89v-4.62l.06 4.62z" fill="#1d1d1b"/><path d="m334.14 223.68a3.63 3.63 0 0 1 -3.05-1.23 4.12 4.12 0 0 1 -.59-3.19l-.5-48.07-6 .07-.09-8.36 5.95-.07-.15-14-12 .13-.07-5.11a4.47 4.47 0 0 1 1.11-3.35 4 4 0 0 1 2.88-1.09 4.12 4.12 0 0 1 .68.05l33.26-.37-2.74 6.12a5.89 5.89 0 0 1 -5.28 3.42l-5.15.06c-1.56 0-2.63.39-3.08 1.07a2.27 2.27 0 0 0 -.13 1.87v.09l.13 12-6 .06.07 6.36 6-.06.59 53.52z" fill="#fff"/><path d="m354.78 139.57s-1 2.16-2.42 5.4a5.34 5.34 0 0 1 -4.82 3.13h-.05l-5.11.06c-5.11.06-3.66 3.63-3.66 3.63l.12 11.44-5.95.07.08 7.36 5.95-.07.58 52.53-5.29.06h-.07c-4.09 0-3.14-3.87-3.14-3.87l-.53-48.62-6 .06-.08-7.36 6-.06-.17-15-12 .14-.06-4.62c-.05-3.51 2.34-3.93 3.49-3.93a3.8 3.8 0 0 1 .59 0l32.57-.35m1.56-1h-1.57l-32.49.35c-.13 0-.36 0-.66 0a4.52 4.52 0 0 0 -3.24 1.23 5 5 0 0 0 -1.25 3.72l.06 4.61v1h1l11-.13.15 13h-5-1v1l.08 7.36v1h1l5-.05.52 47.51a4.53 4.53 0 0 0 .7 3.55 4.12 4.12 0 0 0 3.44 1.42h.08l5.29-.06h1v-1l-.58-52.53v-1h-1l-5 .06-.06-5.36 5-.06h1v-1l-.12-11.44v-.19l-.07-.18a1.71 1.71 0 0 1 .08-1.41c.36-.53 1.3-.83 2.66-.84l5.11-.06a6.39 6.39 0 0 0 5.76-3.72l2.44-5.35.64-1.42z" fill="#1d1d1b"/><path d="m325.98 180.85h2.79v34.77h-2.79z" fill="#fff" transform="matrix(.99993762 -.01116987 .01116987 .99993762 -2.2 3.68)"/><path d="m328.09 181.34.37 33.77h-1.79l-.37-33.77zm1-1h-1-1.78-1v1l.37 33.76v1h1 1.79 1v-1l-.37-33.77v-1z" fill="#1d1d1b"/><path d="m273.21 212.37h-3.58c-.12 0-8-.81-9.43-10.92.08-7.06-.09-8.53-.1-8.58a5.82 5.82 0 0 1 3.79-5.68l5.11-2.32.7-.32.15 13.61c0 .08-.25 3.06 1.22 4.66a3.26 3.26 0 0 0 2.55 1h.3a3.9 3.9 0 0 0 2.92-1.31 6.43 6.43 0 0 0 1.07-4.29l-.18-9.23a55.12 55.12 0 0 0 -4.3-11.09l-10.31-18.8-6 .06-3.12-8.32 6.1-.07-.51-4.11-.1-10.16v-.06c.09-.38 2.34-9.39 8.62-9.78 5.92-.37 7.74-.39 7.82-.39s8.24.13 10.49 8.28a50.93 50.93 0 0 1 .53 6.39c0 .09.5 3.75-4.35 6l-5.24 2.41-.25-11.39c-.12-.42-1-3.13-3.83-3.13h-.11a3.92 3.92 0 0 0 -4 4.18c0 1.7.25 9.62.25 9.7l.7 3-5.87.06.64 1.78 15.68-.17v2.78l-14.27.49.78 1.45 5.95-.06 11.16 20.49c.13.27 3.2 6.4 3.27 12l.11 10.6c0 .11-.28 9.2-9.56 11.27h-.05z" fill="#fff"/><path d="m276 126.77s7.83 0 10 7.91a49.43 49.43 0 0 1 .51 6.27s.51 3.42-4.05 5.51l-4.56 2.09-.23-10.69s-.89-3.56-4.33-3.56h-.12a4.42 4.42 0 0 0 -4.52 4.7c0 1.72.25 9.7.25 9.7l.57 2.47-6 .06 1 2.78 15.54-.17v1.78l-14.59.51 1.3 2.43 6-.07 11 20.23s3.23 6.22 3.23 11.78.11 10.6.11 10.6-.17 8.76-9.17 10.78h-8.33s-7.55-.66-8.94-10.49c.09-7.17-.09-8.58-.09-8.58s-.4-3.39 3.5-5.16 5.11-2.32 5.11-2.32l.14 12.85s-.57 6.17 4.27 6.17h.4c5.18-.28 4.45-6.16 4.45-6.16l-.17-9.24a55.38 55.38 0 0 0 -4.37-11.26l-10.45-19.09-6 .07-2.75-7.33 6-.07-.58-4.66-.1-10s2.19-9 8.17-9.4 7.79-.39 7.79-.39m0-1c-.07 0-1.91 0-7.84.39-6.64.41-9 9.76-9.08 10.16v.12.13l.1 10v.11l.44 3.56-4.84.05h-1.42l.5 1.33 2.74 7.33.25.66h.7l5.35-.06c1.42 2.59 7.68 14 10.17 18.57a54 54 0 0 1 4.24 10.91l.17 9.12v.1a5.91 5.91 0 0 1 -1 3.91 3.35 3.35 0 0 1 -2.56 1.13h-.27a2.78 2.78 0 0 1 -2.19-.86c-1.3-1.43-1.09-4.19-1.08-4.22v-.1l-.14-12.85v-1.54l-1.4.64-5.1 2.32c-4.51 2-4.11 6-4.09 6.19s.17 1.56.09 8.45v.15c.77 5.44 3.37 8.23 5.42 9.62a10.25 10.25 0 0 0 4.42 1.72h8.53.11c9.66-2.16 9.95-11.64 9.95-11.73l-.16-10.64c-.07-5.73-3.19-12-3.32-12.22l-11-20.26-.29-.53h-.6l-5.35.06-.26-.48 13-.45h1v-1-1.78-1h-1l-14.83.16-.28-.78 4.54-.05h1.24l-.28-1.21-.54-2.37c0-.92-.23-8-.25-9.58a3.48 3.48 0 0 1 3.5-3.69h.1a3.64 3.64 0 0 1 3.33 2.71l.23 10.56v1.52l1.39-.63 4.55-2.09c4.84-2.22 4.7-5.87 4.64-6.48a51.28 51.28 0 0 0 -.53-6.37v-.05-.06c-2.35-8.51-10.88-8.64-11-8.64z" fill="#1d1d1b"/><path d="m195.65 203.43h-1.71v10.76h-2.78l-.16-10.71-29.29.32 1.53 9.35-10.43.11-1.33-9.34-11.68.12-1.12 9.37-10.44.12 1.42-9.37-39.78.43-.06-5.22 40.48-.44 5.33-38-6 .06 1.17-8.37 6-.07 3.3-23.53h5.06a2.12 2.12 0 0 1 .45 0c1.15 0 3.91.48 4.64 4.92l3.2 19.51-6 .07.25 1.5 14.94.12v2.77l-14.41.53.23 1.42 6-.06 6.38 38.88 30.16-.58-.21-18.63h2.79l.37 18.65h1.46l-.31-28.3-6 .07-.1-8.39 5.95-.07-.25-23.49 16-.17a11.28 11.28 0 0 1 11.22 10.82c.14 7.12.14 13 .14 13v.5l-5.95.06.07 6.36 6-.06v4.54c0 .08-.21 5.48-4 7 2.35 1.44 4.15 3.13 4.19 6.56 0 3.67.27 25.73.27 25.73v.06c-.1.38-2.52 9.28-9.06 9.54-6.19.24-17.28.36-17.39.36h-.5zm9.36 9.33h4.14c.13 0 3.9-.35 3.86-4 0-2.88 0-4.7 0-5.52l-8 .09zm-64.56-13.94 10.33-.12-5.37-37.89h-.41zm64.39-.74 8.06-.06-.11-9.39a4.88 4.88 0 0 0 -1.12-3.2 3.69 3.69 0 0 0 -2.76-1v-.5l-.07.5-4.14.05zm-.24-22.49 5-.1a2.42 2.42 0 0 0 1.84-.83c1.2-1.37 1.22-4 1.18-5.06l-8.08.09zm-.16-14.26 8.05-.09-.11-10.12c0-.07-.75-3.75-3.9-3.75v-.5.5h-4.14zm-65.27-1.45h.14l-.07-.53z" fill="#fff"/><path d="m145.65 129.43c1 0 3.48.43 4.15 4.5.84 5.17 3.1 18.94 3.1 18.94l-6 .06.41 2.5 14.88.12v1.79l-14.5.53.4 2.41 5.95-.07 6.37 38.89 31-.51-.2-18.62h1.79l.37 18.64h2.45l-.32-29.3-5.95.06-.09-7.36 6-.06-.26-23.49 15.49-.17c.47 0 9.73.13 10.7 10.36.14 7.17.14 13 .14 13l-5.95.07.08 7.36 6-.07v4.05s-.18 6.1-4.81 6.84c2.76 1.56 4.92 3.07 5 6.74s.27 25.66.27 25.66-2.35 8.92-8.6 9.16-17.37.36-17.37.36v-18.89h-2.71v10.75h-1.79l-.12-10.68-30.37.33 1.53 9.34-9.41.1-1.28-9.36-12.56.14-1.12 9.37-9.41.1 1.42-9.37-39.88.44v-4.22l40.41-.45 5.47-39-6 .06 1-7.37 6-.06 3.3-23.53h4.64a2.73 2.73 0 0 1 .43 0m58.3 32.32 9.05-.1-.12-10.63s-.79-4.24-4.4-4.24h-4.65l.17 14.92m-65.34-1.46h1.27l-.69-4.88-.58 4.89m1.27 38.94 11.48-.12-5.52-38.9h-1.28l-4.68 39m64.12-23.16s1.33 0 5.5-.11 3.48-6.89 3.48-6.89l-9.05.09zm.25 22.49 9.05-.08-.11-9.88s.19-4.72-4.38-4.72h-.08l-4.64.05zm.16 14.67h4.65s4.4-.33 4.36-4.45 0-6 0-6l-9 .1v10.43m-58.86-84.83a3.21 3.21 0 0 0 -.51 0h-4.58-.86l-.12.85-3.17 22.68h-5.1-.86l-.12.85-1 7.38-.16 1.15h1.16l4.79-.05-5.19 37-39.55.44h-1v1 4.22 1h1l38.7-.43-1.24 8.21-.15 1.19h1.18l9.41-.1h.87l.11-.87 1-8.5 10.81-.12 1.2 8.48.13.86h.87l9.41-.1h1.17l-.19-1.15-1.34-8.19 28.2-.31.11 9.75v1h1 1.79 1v-10.81h.71v18.88h1c.11 0 11.2-.12 17.39-.36 6.92-.27 9.43-9.52 9.53-9.91v-.13-.13s-.23-22-.27-25.66a7.43 7.43 0 0 0 -3.69-6.51c2.63-1.6 3.48-5.08 3.54-7v-4.09-1h-1l-4.95.06-.06-5.36 5-.06h1v-1c0-.06 0-5.93-.14-13v-.07c-1.07-11.14-11.26-11.27-11.7-11.27l-15.51.17h-1v1l.25 22.49-5 .05h-1v1l.09 7.36v1h1 5l.3 27.29h-.46l-.35-17.66v-1h-1-1.79-1v1l.19 17.62-29.15.48-6.23-38-.14-.85h-.86l-5.1.06-.07-.44 13.36-.49h1v-1-1.79-1h-1l-14-.12-.08-.51h4.79 1.16l-.19-1.15-3.1-18.93c-.81-5-4.13-5.34-5.13-5.34zm59.14 19.48h3.65c2.56 0 3.33 2.85 3.44 3.35l.11 9.53-7.05.07-.15-12.91zm-63.8 50.32 4.22-35.17 5 35.07-9.2.1zm64-28.13 7.09-.07c0 1.28-.19 3.22-1.08 4.22a1.92 1.92 0 0 1 -1.47.66l-4.49.1zm.2 14.82h3.65.06a3.17 3.17 0 0 1 2.4.87 4.31 4.31 0 0 1 1 2.81l.1 8.93-7 .06zm.31 18.87 7-.07v5c0 3-2.94 3.4-3.41 3.44h-3.6v-8.43z" fill="#1d1d1b"/></svg>