<svg viewBox="0 0 703 358" xmlns="http://www.w3.org/2000/svg"><path d="m-4.73-9.98h713.73v371.98h-713.73z" fill="#faff27"/><path d="m309.21 86.48h89.61v4.48h-89.61z" fill="#febd2d"/><path d="m179.36 185.28 16.4 28.41h-32.8z" fill="#feec34"/><path d="m212.16 185.28 16.4 28.41h-32.8z" fill="#feec34"/><path d="m277.77 185.28 16.4 28.41h-32.8z" fill="#febd2d"/><path d="m310.57 185.28 16.41 28.41h-32.81z" fill="#feec34"/><path d="m343.38 185.28 16.4 28.41h-32.8z" fill="#feec34"/><path d="m408.99 185.28 16.4 28.41h-32.81z" fill="#febd2d"/><path d="m474.59 185.28 16.41 28.41h-32.81z" fill="#feec34"/><path d="m507.4 185.28 16.4 28.41h-32.8z" fill="#febd2d"/><path d="m425.4 213.06-16.4-28.41h32.8z" fill="#febd2d"/><path d="m392.6 213.06-16.41-28.41h32.81z" fill="#feec34"/><path d="m359.79 213.06-16.4-28.41h32.8z" fill="#febd2d"/><path d="m195.75 214.32 16.4 28.41h-32.81z" fill="#feec34"/><path d="m228.55 214.32 16.4 28.41h-32.8z" fill="#feec34"/><path d="m261.36 214.32 16.4 28.41h-32.81z" fill="#febd2d"/><path d="m294.16 214.32 16.4 28.41h-32.8z" fill="#febd2d"/><path d="m359.77 214.32 16.4 28.41h-32.8z" fill="#feec34"/><path d="m425.38 214.32 16.4 28.41h-32.81z" fill="#feec34"/><path d="m458.18 214.32 16.4 28.41h-32.8z" fill="#feec34"/><path d="m490.98 214.32 16.4 28.41h-32.8z" fill="#febd2d"/><path d="m523.79 214.32 16.4 28.41h-32.81z" fill="#feec34"/><path d="m507.4 242.1-16.4-28.41h32.8z" fill="#febd2d"/><path d="m408.99 242.1-16.41-28.41h32.81z" fill="#febd2d"/><path d="m310.57 242.1-16.4-28.41h32.81z" fill="#feec34"/><path d="m277.77 242.1-16.4-28.41h32.8z" fill="#febd2d"/><path d="m244.97 242.1-16.41-28.41h32.81z" fill="#feec34"/><path d="m179.36 242.1-16.4-28.41h32.8z" fill="#febd2d"/><path d="m212.19 243.36 16.4 28.41h-32.81z" fill="#feec34"/><path d="m244.99 243.36 16.4 28.41h-32.8z" fill="#feec34"/><path d="m277.79 243.36 16.41 28.41h-32.81z" fill="#febd2d"/><path d="m507.42 243.36 16.4 28.41h-32.8z" fill="#febd2d"/><path d="m458.23 271.14-16.41-28.41h32.81z" fill="#feec34"/><path d="m425.42 271.14-16.4-28.41h32.8z" fill="#febd2d"/><path d="m261.4 271.14-16.4-28.41h32.81z" fill="#feec34"/><path d="m195.77 272.4 16.4 28.41h-32.8z" fill="#feec34"/><path d="m458.2 272.4 16.41 28.41h-32.81z" fill="#feec34"/><path d="m441.81 300.18-16.4-28.41h32.8z" fill="#febd2d"/><path d="m244.99 300.18-16.4-28.41h32.8z" fill="#febd2d"/><path d="m179.38 300.18-16.4-28.41h32.8z" fill="#feec34"/><path d="m507.41 184.45-16.4-28.41h32.8z" fill="#febd2d"/><path d="m474.61 184.45-16.41-28.41h32.81z" fill="#feec34"/><path d="m409 184.45-16.4-28.41h32.8z" fill="#feec34"/><path d="m376.19 184.45-16.4-28.41h32.81z" fill="#febd2d"/><path d="m310.58 184.45-16.4-28.41h32.81z" fill="#feec34"/><path d="m277.78 184.45-16.4-28.41h32.8z" fill="#feec34"/><path d="m244.98 184.45-16.4-28.41h32.8z" fill="#feec34"/><path d="m212.17 184.45-16.4-28.41h32.81z" fill="#feec34"/><path d="m179.37 184.45-16.4-28.41h32.8z" fill="#febd2d"/><path d="m162.96 156.67 16.4 28.41h-32.81z" fill="#feec34"/><path d="m228.56 156.67 16.41 28.41h-32.81z" fill="#febd2d"/><path d="m294.17 156.67 16.4 28.41h-32.8z" fill="#febd2d"/><path d="m326.98 156.67 16.4 28.41h-32.81z" fill="#feec34"/><path d="m359.78 156.67 16.4 28.41h-32.8z" fill="#feec34"/><path d="m392.58 156.67 16.41 28.41h-32.81z" fill="#febd2d"/><path d="m425.39 156.67 16.4 28.41h-32.8z" fill="#feec34"/><path d="m523.8 156.67 16.4 28.41h-32.8z" fill="#feec34"/><path d="m523.82 155.41-16.4-28.41h32.81z" fill="#feec34"/><path d="m458.21 155.41-16.4-28.41h32.81z" fill="#febd2d"/><path d="m392.61 155.41-16.41-28.41h32.81z" fill="#feec34"/><path d="m327 155.41-16.4-28.41h32.8z" fill="#febd2d"/><path d="m261.39 155.41-16.4-28.41h32.8z" fill="#febd2d"/><path d="m195.78 155.41-16.4-28.41h32.81z" fill="#febd2d"/><path d="m162.98 155.41-16.4-28.41h32.8z" fill="#feec34"/><path d="m310.58 127.63 16.41 28.41h-32.81z" fill="#febd2d"/><path d="m376.19 127.63 16.41 28.41h-32.81z" fill="#febd2d"/><path d="m441.8 127.63 16.4 28.41h-32.8z" fill="#feec34"/><path d="m507.41 127.63 16.4 28.41h-32.8z" fill="#febd2d"/><path d="m474.58 126.37-16.4-28.41h32.8z" fill="#feec34"/><path d="m441.78 126.37-16.4-28.41h32.8z" fill="#feec34"/><path d="m244.95 126.37-16.4-28.41h32.81z" fill="#febd2d"/><path d="m179.34 126.37-16.4-28.41h32.81z" fill="#febd2d"/><path d="m195.74 98.59 16.4 28.41h-32.81z" fill="#feec34"/><path d="m228.54 98.59 16.4 28.41h-32.8z" fill="#feec34"/><path d="m261.34 98.59 16.41 28.41h-32.81z" fill="#febd2d"/><path d="m425.36 98.59 16.4 28.41h-32.8z" fill="#feec34"/><path d="m491 97.33-16.41-28.41h32.81z" fill="#febd2d"/><path d="m425.39 97.33-16.4-28.41h32.8z" fill="#feec34"/><path d="m228.56 97.33-16.4-28.41h32.81z" fill="#feec34"/><path d="m179.34 69.55 16.41 28.41h-32.81z" fill="#febd2d"/><path d="m310.56 69.55 16.4 28.41h-32.8z" fill="#febd2d"/><path d="m507.38 69.55 16.41 28.41h-32.81z" fill="#feec34"/><path d="m472.61 107.05h89.61v4.48h-89.61z" fill="#feec34"/><path d="m520.66 177.23h89.61v4.48h-89.61z" fill="#feec34"/><path d="m506.33 258.79h53.76v4.48h-53.76z" fill="#febd2d"/><path d="m122.59 258.79h89.61v4.48h-89.61z" fill="#feec34"/><path d="m73.34 173.11h89.61v4.48h-89.61z" fill="#feec34"/><path d="m278.23 257.18h89.61v4.48h-89.61z" fill="#febd2d"/><path d="m266.85 117.46h89.61v4.48h-89.61z" fill="#febd2d"/><path d="m325.29 228.75h35.84v4.48h-35.84z" fill="#feec34"/><g fill="#575756"><path d="m624.74 154-51.4.57v3.74l-6 .06.08 7.36 6-.06.58 52.52-6.08.07s-2.37.57-2.41-3.27l-.51-49.21-6 .06-.08-7.36 5.95-.06v-3.74l-53.77.59-.55 1.58 6-.07-2.4 6.94 14.85 45.46-8.93.09-11.85-37.15.41 37.28-8.45.09-.55-52.49-6 .06-.08-7.36 6-.06-.22-20.28s-1-3.37 4.34-3.26 4.08 0 4.08 0l.26 23.49h2.39l7.83-23.34 8.93-.1-8.08 23.34h-6l-.54 1.58 52.26-.58-.08-7.07-12 .13-.06-5.83s-.81-2.62 4.19-2.67l32.46-.36-2.79 6.23s-.5 2.27-5.83 2.33l-5.34.05s-2.15-.1-2.11 3.5v3.6l51.4-.56z"/><path d="m561.03 180.64h1.79v25.32h-1.79z" transform="matrix(.99993955 -.01099535 .01099535 .99993955 -2.09 6.18)"/><path d="m496.01 167.61h1.79v33.77h-1.79z" transform="matrix(.99993955 -.01099535 .01099535 .99993955 -2 5.47)"/><path d="m460.81 164.36-5.95.06-.39-2.4 13.3-.53v-1.78l-13.7-.14-.4-2.5 5.95-.06-3.47-20.57a4.72 4.72 0 0 0 -4.21-2.84l-4.64.05-3.3 23.53-6 .07-1 7.37 6-.07-3.12 22.24-41.87.46-.1-8.74s-.06-7.11-3.18-7.83a7.77 7.77 0 0 0 3-6.22c0-2.33-.07-6.56-.07-6.56l-5.95.07-.08-7.36 5.95-.07-.14-13s.67-9.16-10.6-10.36c-6.09 0-15.6.17-15.6.17l.26 23.49-6 .06.08 7.36 6-.06.32 29.35h-2l-.18-23.55h-1.79l.26 23.53-35.08.38v4.22l34.78-.38.47 14.45h1.78l-.14-14.42h1.91l.21 19 8.57-.09-.21-19 8.94-.1.2 19 8.58-.09-.21-19 41.24-.45-3.67 26.15 9.41-.11 3.14-26.25h8.17l3.72 26.06 9.41-.11zm-80.93-29.13h4.53a4.14 4.14 0 0 1 4.45 4.24l.13 11.22-8.94.09zm.25 22.86 8.94-.09s.16-1.54 0 3.81-4.36 4.81-4.36 4.81h-4.52zm.33 29.35-.14-12.67c10.53-1.7 9 5.26 9 5.26l.08 7.41zm64.86-22.91.59-4.89.69 4.87zm3.3 22.16 2.66-22.23h1.27l3.15 22.17z"/><path d="m309.23 139.49s-4.15-.72-4.09 3.89l.07 4.61 12-.13.16 15-5.95.07.08 7.36 6-.07.54 48.63s-1 3.91 3.21 3.86l5.29-.05-.58-52.53-6 .07-.08-7.36 6-.07-.13-11.44s-1.44-3.58 3.67-3.63l5.11-.06a5.39 5.39 0 0 0 4.87-3.13l2.42-5.41z"/><path d="m313.5 180.92h1.79v33.77h-1.79z" transform="matrix(.99993955 -.01099535 .01099535 .99993955 -2.15 3.47)"/><path d="m259.81 158.06 11 20.23s3.15 6.22 3.21 11.78l.12 10.6s-.17 8.76-9.17 10.77h-8.33s-7.55-.65-8.94-10.48c.08-7.17-.1-8.58-.1-8.58s-.39-3.4 3.51-5.16l5.1-2.32.15 12.85s-.6 6.44 4.59 6.16 4.46-6.16 4.46-6.16l-.17-9.24a55.38 55.38 0 0 0 -4.37-11.26c-2.81-5.12-10.45-19.09-10.45-19.09l-6 .07-2.74-7.33 6-.07-.58-4.66-.09-10s2.18-9 8.16-9.39 7.8-.39 7.8-.39 7.83 0 10 7.91a50.51 50.51 0 0 1 .52 6.27s.5 3.41-4.06 5.51l-4.56 2.09-.23-10.7s-.9-3.63-4.45-3.55a4.43 4.43 0 0 0 -4.47 4.7c0 1.71.25 9.7.25 9.7l.57 2.46-6 .07 1 2.78 15.53-.18v1.79l-14.59.5 1.31 2.43z"/><path d="m208.86 186.2c0-3.67-2.2-5.18-5-6.74 4.62-.74 4.8-6.84 4.8-6.84v-4.05l-6 .06-.08-7.36 6-.06s0-5.84-.14-13a10.77 10.77 0 0 0 -10.72-10.36l-15.48.17.25 23.49-5.95.06.08 7.36 6-.06.32 29.3h-2.46l-.37-18.64h-1.78l.2 18.62-31 .5-6.37-38.88-6 .07-.39-2.41 14.49-.54v-1.78l-14.89-.11-.37-2.5 5.95-.07s-2.25-13.76-3.1-18.93-4.57-4.47-4.57-4.47l-4.65.05-3.3 23.53-6 .06-1 7.37 6-.06-5.47 39-40.41.44v4.22l39.88-.43-1.42 9.37 9.41-.1 1.12-9.37 12.56-.11 1.33 9.34 9.41-.1-1.53-9.34 30.37-.34.12 10.76h1.78v-10.8h2.71v18.89s11.12-.12 17.37-.36 8.6-9.17 8.6-9.17-.26-22.02-.3-25.68zm-83.24-26.2.59-4.89.69 4.88zm1.28 38.94 4.68-39h1.27l5.52 38.89zm63.9-52.4 4.64-.05c3.66 0 4.46 4.24 4.46 4.24l.1 10.57-9 .1zm.24 22.27 9.05-.1s.7 6.79-3.47 6.89-5.5.12-5.5.12zm.16 14.77 4.65-.05c4.64 0 4.46 4.72 4.46 4.72l.11 9.88-9 .08zm9.33 24.8c.05 4.12-4.36 4.45-4.36 4.45l-4.64.05v-10.48l9-.1s-.05 1.9 0 6.03z"/></g></svg>