<svg viewBox="0 0 1000 1000" xmlns="http://www.w3.org/2000/svg" xmlns:xlink="http://www.w3.org/1999/xlink"><mask id="a" height="749.42" maskUnits="userSpaceOnUse" width="706.6" x="148.42" y="95.32"><path d="m180.54 523.56c0 177.39 143.8 321.19 321.18 321.19s321.18-143.75 321.18-321.19h32.1v-428.24h-706.58v428.24z" fill="#fff"/></mask><mask id="b" height="653.07" maskUnits="userSpaceOnUse" width="535.3" x="234.07" y="191.68"><path d="m566 578.73v49.27h10.7c106.43 0 192.71 86.28 192.71 192.71v24.09h-535.34v-24.14c0-106.43 86.28-192.66 192.71-192.66h10.7v-49.27a150 150 0 0 1 -84.83-119.73 32.13 32.13 0 0 1 -27.58-31.8v-37.46a32.13 32.13 0 0 1 26.77-31.68v-16.5a149.88 149.88 0 0 1 149.88-149.88 149.88 149.88 0 0 1 149.89 149.88v16.5a32.13 32.13 0 0 1 26.76 31.68v37.47a32.13 32.13 0 0 1 -27.58 31.79 150 150 0 0 1 -84.79 119.73z" fill="#fff"/></mask><mask id="c" height="281.21" maskUnits="userSpaceOnUse" width="535.3" x="234.07" y="563.53"><path d="m592.62 628.74c99 8.11 176.75 91 176.75 192v24h-535.3v-24c0-102 79.2-185.44 179.45-192.26-.08 1-.12 2-.12 3 0 31.76 40.14 57.5 89.66 57.5s89.66-25.74 89.66-57.5c0-.87-.03-1.81-.1-2.74z" fill="#fff"/></mask><mask id="d" height="80.3" maskUnits="userSpaceOnUse" width="101.14" x="451.16" y="459.33"><path d="m451.18 494.46a50.86 50.86 0 0 0 101.1-.23c.22-2.06-2.07-5.46-4.94-5.46h-90.89c-2.89 0-5.55 3.15-5.27 5.69z" fill="#fff"/></mask><mask id="e" height="88.33" maskUnits="userSpaceOnUse" width="101.14" x="451.16" y="488.77"><path d="m451.18 494.46a50.86 50.86 0 0 0 101.1-.23c.22-2.06-2.07-5.46-4.94-5.46h-90.89c-2.89 0-5.55 3.15-5.27 5.69z" fill="#fff"/></mask><mask id="f" height="749.42" maskUnits="userSpaceOnUse" width="706.6" x="148.42" y="95.32"><path d="m148.42 95.32h706.6v749.42h-706.6z" fill="#fff"/></mask><circle cx="501.72" cy="523.56" fill="#24b5ba" r="321.18"/><g mask="url(#a)"><path d="m566 578.73v49.27h10.7c106.43 0 192.71 86.28 192.71 192.71v24.09h-535.34v-24.14c0-106.43 86.28-192.66 192.71-192.66h10.7v-49.27a150 150 0 0 1 -84.83-119.73 32.13 32.13 0 0 1 -27.58-31.8v-37.46a32.13 32.13 0 0 1 26.77-31.68v-16.5a149.88 149.88 0 0 1 149.88-149.88 149.88 149.88 0 0 1 149.89 149.88v16.5a32.13 32.13 0 0 1 26.76 31.68v37.47a32.13 32.13 0 0 1 -27.58 31.79 150 150 0 0 1 -84.79 119.73z" fill="#edb98a"/><g mask="url(#b)"><path d="m651.61 403.12v61.56a149.89 149.89 0 0 1 -299.77 0v-21.41a149.89 149.89 0 0 0 299.77 0z" fill-opacity=".1"/></g><path d="m592.62 628.74c99 8.11 176.75 91 176.75 192v24h-535.3v-24c0-102 79.2-185.44 179.45-192.26-.08 1-.12 2-.12 3 0 31.76 40.14 57.5 89.66 57.5s89.66-25.74 89.66-57.5c0-.87-.03-1.81-.1-2.74z" fill="#9a9b9d"/><g mask="url(#c)"><ellipse cx="503.06" cy="635.57" fill-opacity=".16" opacity=".6" rx="106.08" ry="72.04"/></g><path d="m451.18 494.46a50.86 50.86 0 0 0 101.1-.23c.22-2.06-2.07-5.46-4.94-5.46h-90.89c-2.89 0-5.55 3.15-5.27 5.69z" fill-opacity=".7"/><g mask="url(#d)"><rect fill="#fff" height="42.82" rx="13.38" width="82.97" x="461.57" y="459.33"/></g><g fill="#ff4f6d" mask="url(#e)"><circle cx="488.34" cy="547.65" r="29.44"/><circle cx="515.1" cy="547.65" r="29.44"/></g><g fill-opacity=".6"><circle cx="432.13" cy="395.09" r="16.06"/><circle cx="571.31" cy="395.09" r="16.06"/><path d="m393.67 360.72c10.48-14.74 39.21-23 63.95-16.94a5.35 5.35 0 1 0 2.55-10.39c-28.73-7.06-62 2.51-75.23 21.13a5.35 5.35 0 0 0 8.73 6.2z"/><path d="m609.77 360.72c-10.48-14.74-39.2-23-63.95-16.94a5.35 5.35 0 1 1 -2.55-10.39c28.74-7.06 62 2.51 75.23 21.13a5.35 5.35 0 0 1 -8.73 6.2z"/></g><g fill="#724133" mask="url(#f)"><path d="m548.37 550.78c-6.73 6.14-13.9 8.9-23 7-1.56-.33-7.92-12.15-23.7-12.15s-22.14 11.82-23.7 12.15c-9 1.93-16.22-.83-22.95-7-12.64-11.54-23.16-27.46-16.84-44.83 3.29-9.05 8.65-19 18.39-21.88 10.41-3.08 25 0 35.5-2.1 3.4-.69 7.11-1.9 9.6-3.91 2.49 2 6.2 3.22 9.59 3.91 10.49 2.1 25.1-1 35.51 2.1 9.74 2.89 15.1 12.83 18.39 21.88 6.32 17.37-4.19 33.29-16.84 44.83m103.5-193.16c-9.13 22.48-5.6 50.47-7.29 74.07-1.37 19.19-5.4 47.94-22.44 60.33-8.71 6.33-24.57 17-36 14-7.83-2-8.67-24.51-19-32.93-11.68-9.54-26.27-13.73-41-13.08-6.35.28-19.18.21-24.49 5.09-5.31-4.88-18.14-4.81-24.49-5.09-14.7-.65-29.29 3.54-41 13.08-10.11 8.43-10.98 30.91-18.81 32.91-11.38 3-27.24-7.68-35.95-14-17-12.39-21.07-41.14-22.44-60.33-1.69-23.6 1.84-51.59-7.29-74.07-4.44 0-1.51 43.17-1.51 43.17v54.48c.08 40.92 25.64 102.17 82.31 125.55 13.86 5.72 45.25 15 69.3 15s55.44-8.4 69.3-14.12c56.67-23.39 82.23-85.52 82.32-126.44v-54.45s2.92-43.17-1.52-43.17"/><path d="m398 234.56c.33-.15-.49-.2-2.45-.17 2.39 0 3.2.05 2.45.17m-21.77-42.08s0 .41 0 0m288.12 92.25a169.18 169.18 0 0 0 -4.06-26.38 139.81 139.81 0 0 0 -6.66-20.05c-1.63-4-5.44-9.43-5.89-13.72s2.86-8.9 3.56-13.82a42.59 42.59 0 0 0 -.42-14.55c-2.23-10.77-9.61-20.78-21-23.59-2.54-.62-7.93.15-9.73-1.34-2.06-1.7-3.5-7.49-5.37-9.82-5.32-6.62-13.63-10.89-22.4-9.4-6.45 1.09-2.74 2.43-7.58-1.37-2.69-2.11-4.7-5.34-7.31-7.62a66 66 0 0 0 -13.1-8.79 135.73 135.73 0 0 0 -39.73-13.13c-24.85-4.08-51.37-.53-75.46 5.94a198.77 198.77 0 0 0 -35.2 12.69c-4.77 2.32-7.53 4.24-12.51 4.84-7.84 1-14.47.91-21.9 4.23-22.85 10.23-33.14 34-24.25 56.68a39.24 39.24 0 0 0 7.55 12.26c4.07 4.5 5.54 3.62 2 8.79a141.58 141.58 0 0 0 -13.26 24.55c-9.45 22.49-11 47.81-10.41 71.79a189.83 189.83 0 0 0 1.9 25.21c.57 3.6.73 10.37 3.43 13a5.45 5.45 0 0 0 5.27 1.57c4.57-1.27 3-4.64 3.1-7.78.54-15.74-.18-29.68 3.56-45.23a119.08 119.08 0 0 1 13.35-32.22 192.86 192.86 0 0 1 26.25-35.74c2.46-2.63 3-3.75 6.29-3.94 2.49-.15 6.14 1.56 8.57 2.15 5.34 1.31 10.7 2.6 16.15 3.47 10 1.62 19.92 1.73 30 1.41 19.87-.62 39.84-2 59.11-7 12.8-3.33 24.14-9.29 36.4-13.67.22-.07 3.3-2.26 3.83-2.17.76.12 5.3 4.88 6.06 5.48 6 4.67 12.49 6.64 18.93 10.25 7.93 4.46.25-1.92 4.62 3.64 1.33 1.65 1.96 4.65 2.96 6.47a48.42 48.42 0 0 0 13.2 15.06c5.23 3.93 13.1 5.83 15.76 11 2.06 4 2.76 9.32 4.42 13.54 4.35 11.07 10.1 21.39 15.86 31.82 4.63 8.4 9.7 15.74 10.21 25.34.18 3.34-3 23.38 4.75 17.29 1.15-.91 3.62-11.13 4.13-12.86 2.07-7.05 2.8-14.4 3.73-21.64a197.69 197.69 0 0 0 1.26-42.6"/></g></g><circle cx="501.72" cy="451.94" fill="#edb98a" r="15.41"/><path d="m392.1 235 40.1-3.94 61.73-1.59 76.44 2.03 13.85.95-14.2 146.94-43.43 61.64-18.91 7.01h-20.31l-35.03-37.13-40.63-105.77z" fill="#555"/><g fill="#333"><path d="m678.74 306.18c-.74-5.07-1-10.21-1.72-15.29-2.11-15.94-11.19-27.62-23.32-37.25-17.46-13.85-37.7-19.84-59.7-20.64q-6-.21-11.88-.79c-2.19-.22-3 .29-2.94 2.71.1 3.83.33 7.67-.48 11.51a25.2 25.2 0 0 1 -24.48 20.12q-23.81.14-47.62 0c-2.44 0-3.07.56-3.06 3q.12 59.7 0 119.42c0 2.6.84 3.27 3.18 3.69 12.57 2.26 21.89 12.49 22.12 24 .24 12.05-9.1 22.66-22.09 25.1-1.64.31-3.3.18-3.26 2.91s.75 3.39 3.47 3.39q48.36-.06 96.51-4.46c25.49-2.32 47.26-12.73 63.55-33.16 7.18-9 10-19.56 11-30.8.51-6.16 1-12.33 1.47-18.49-.03-.52-.16-50.89-.75-54.97z"/><path d="m322.7 306.18c.74-5.07 1.05-10.21 1.72-15.29 2.11-15.94 11.19-27.62 23.32-37.25 17.46-13.85 37.71-19.84 59.74-20.6q5.94-.21 11.87-.79c2.2-.22 3 .29 2.95 2.71-.11 3.83-.34 7.67.47 11.51a25.21 25.21 0 0 0 24.48 20.12q23.81.14 47.63 0c2.44 0 3.06.56 3.05 3q-.12 59.7 0 119.42c0 2.6-.85 3.27-3.19 3.69-12.56 2.26-21.89 12.49-22.12 24-.23 12.05 9.1 22.66 22.09 25.1 1.65.31 3.3.18 3.26 2.91s-.75 3.39-3.47 3.39q-48.33-.1-96.5-4.46c-25.49-2.32-47.26-12.73-63.55-33.16-7.18-9-10.05-19.56-11-30.8-.51-6.16-1-12.33-1.46-18.49.01-.56.12-50.93.71-55.01zm138.75-124.18v-45.41c0-8.8 5.36-15.45 13.47-16.89a145.65 145.65 0 0 1 51.55 0c8.11 1.46 13.43 8.06 13.43 16.92 0 30.65 0 61.3.07 91.95 0 2.92-.65 3.74-3.43 3.63q-35.88-1.45-71.78 0c-2.88.12-3.39-.85-3.37-3.68.12-15.52.06-31.04.06-46.52z"/><path d="m500.4 261h-52.18c-11.86 0-20.38-8.44-20.36-20.2 0-3-1.37-7 .62-8.68s5.77-.87 8.78-1q47.42-2.42 94.86-1.21 19.25.51 38.47 1.59c2.5.15 3.19.88 3 3.24-.33 3.58.36 7.22-.5 10.8a19.68 19.68 0 0 1 -19.47 15.46zm1.86 175.87c-7.63-.1-13-2-17.58-6a17.68 17.68 0 0 1 -1-26.33c8.35-8.54 23-9.29 32.2-1.64 11.48 9.54 9 25.58-5 31.74-3.26 1.42-6.62 2.36-8.62 2.23z"/></g><path d="m604.37 249.1c12.57 0 22.37 9 22.39 20.57 0 12.76-10.68 24.24-22.64 24.27-11.58 0-22.24-11.65-22.19-24.32.07-11.5 9.92-20.54 22.44-20.52zm30.19 72.78c7.6.35 13.3 3.49 16.59 10.13 3.68 7.41 3.05 14.78-1.82 21.41-4.58 6.24-11.11 8.68-18.74 7.48a24.07 24.07 0 0 1 -14.5-7.69c-5.88-6.47-6.43-14.35-1.13-21.27 4.96-6.49 11.78-9.57 19.6-10.06zm-49.83 96.79a27.58 27.58 0 0 1 4.21-13.74c4.15-6.33 9.84-8.64 17.14-6.58a26 26 0 0 1 15.86 12.3c3.26 5.6 2.79 11.31-1.12 16.34-5.62 7.23-13.34 10.46-22.39 9.66-8.62-.77-13.71-7.36-13.7-17.98zm-25.67-135.94c6 .29 12.43 2.67 15.75 9.79 3.65 7.82.7 14.83-4.07 21.1-5.83 7.68-14.41 10.25-21.46 6.87-8.25-4-13.76-14.82-11.81-23.27 2.01-8.72 10.07-14.52 21.59-14.49zm113.94 93.27a15.72 15.72 0 0 1 -4 10.51c-3.5 3.7-8.17 3.62-11.65-.1-5.16-5.52-5.23-16.69-.14-22.27 3.63-4 8.56-3.94 12.15.11 2.26 2.6 3.64 6.75 3.64 11.75zm0-69.06c-.1 4-1 7.81-3.69 11-3.62 4.21-8.73 4.15-12.37 0-4.71-5.46-4.79-15.91-.16-21.48 3.75-4.52 9.13-4.52 12.82.07 2.45 2.94 3.28 6.54 3.4 10.41zm-298.41-37.12c0-11.58 9.74-20.69 22.23-20.72s22.54 8.91 22.61 20.36c.07 12.71-10.45 24.39-22.05 24.46-11.96.08-22.75-11.33-22.79-24.1zm-26.59 71.82c-.1-15 15.58-24.25 29.5-17.41a32.33 32.33 0 0 1 3.63 2.06c11.37 7.65 11.85 20.56 1.1 29.19-11.81 9.47-27.49 6.76-32.68-5.67a20.21 20.21 0 0 1 -1.55-8.17zm68.62 78.36c0 11.89-8.82 18.92-20.46 16.39-6.09-1.32-11.45-3.91-15.33-8.94s-4.8-10.85-1.51-16.62a25.94 25.94 0 0 1 15.77-12.43c8.13-2.35 14.73.9 18.66 8.79a31 31 0 0 1 2.87 12.81zm27.18-137.28c10.61 0 19.18 6.67 20.36 15.9 1.25 9.69-5.88 20.71-15.08 22.86-8.13 1.89-13.85-2.35-18.72-8.14a24.11 24.11 0 0 1 -4.37-8.29c-3.84-11.99 4.41-22.31 17.81-22.33zm-95.8 92.71c-.19 4-1.07 7.67-3.73 10.71-3.58 4.1-8.46 4.12-12.12.1-5-5.48-5-16.43-.1-22 3.68-4.15 8.76-4.11 12.37.17 2.68 3.18 3.47 7.02 3.58 11.02zm0-67.82a16.07 16.07 0 0 1 -3.67 10.28c-3.66 4.23-8.7 4.18-12.35-.05-4.71-5.44-4.79-15.9-.18-21.46 3.74-4.52 9.11-4.49 12.83.06 2.06 2.56 3.37 6.44 3.37 11.17zm166.68 109.56c.06 6.83-6.5 12.63-14.13 12.51-7.93-.13-14.28-6.13-13.87-13.11s7.63-12.54 15.17-11.76 12.77 5.92 12.83 12.36z" fill="#555"/><path d="m604.61 251.91c10.91.07 19.43 8 19.34 17.9-.1 11.31-9.52 21.41-19.88 21.31-10.07-.12-19.37-10.41-19.33-21.47.04-10.09 8.67-17.8 19.87-17.74zm45.95 89.5c-.19 12.11-10.61 19.53-22.56 16-8.09-2.36-14-9-13.85-15.66.11-7 6.82-14.14 15.2-16.27 11.65-2.91 21.39 4.35 21.21 15.93zm-62.99 76.87a24 24 0 0 1 3.17-11c3.71-6.26 8.94-8.31 15.73-5.92a23.9 23.9 0 0 1 13.16 10.92c2.35 4.1 2 8.26-.46 12.25-3.77 6.08-13.55 10.54-20.62 9.41s-11.01-6.31-10.98-15.66zm-30.06-132.75c9.4 0 16.5 5.9 15.93 13.9-.6 8.35-4.74 14.73-12.44 18.48-4.25 2.06-8.36 1.52-12.3-1-6.45-4-10.14-13.08-8.18-20s8.6-11.36 16.99-11.38zm112.68 90.91a12.88 12.88 0 0 1 -2.94 7.75c-2.47 2.93-5.48 2.93-8 .13-4-4.36-4-13.64-.1-18.13 2.63-3 5.7-2.94 8.27.14 1.68 2.07 2.75 5.4 2.77 10.11zm.01-69.44a14.13 14.13 0 0 1 -2.77 8.82c-2.46 3.11-5.68 3.18-8.27.26-4-4.45-4-13.68 0-18.13 2.45-2.77 5.67-2.8 8.07 0a13.75 13.75 0 0 1 2.97 9.05zm-273.26-55.1c11.09-.05 19.7 7.81 19.67 17.94 0 11-9.48 21.33-19.53 21.29-10.37-.05-19.73-10.28-19.68-21.51.04-9.96 8.6-17.62 19.54-17.72zm-46.17 89.81c0-12.75 11.94-20.32 24.55-15.3 6.27 2.49 11.23 6.69 11.76 13.9s-3.85 11.74-9.61 15c-12.97 7.42-26.66.38-26.7-13.6zm63.01 78.2c0 10.1-7.24 15.87-17.16 13.71a23.4 23.4 0 0 1 -12.95-7.09c-4.25-4.76-4.66-10.41-1.06-15.69a24.09 24.09 0 0 1 11.89-9.34c7.21-2.61 12.76-.47 16.43 6.29a25.78 25.78 0 0 1 2.85 12.12zm30.22-134.38c8.78 0 15.43 4.86 17.19 12.51 1.94 8.45-5 19.33-13.4 20.95a12.26 12.26 0 0 1 -8.44-1.55 21.75 21.75 0 0 1 -11.37-17.07c-1.1-8.37 6.07-14.86 16.02-14.84zm-98.81 89.41c-.06 3.51-.77 6.65-3 9.26-2.46 2.92-5.52 2.92-8 .13-4-4.42-4-13.65-.09-18.15 2.62-3 5.76-2.95 8.26.17a13.73 13.73 0 0 1 2.83 8.59zm-.01-67.68a13.71 13.71 0 0 1 -2.8 8.56c-2.46 3.09-5.69 3.14-8.28.23-3.94-4.44-3.91-13.71 0-18.15 2.46-2.75 5.68-2.77 8.06.07 2.24 2.61 3 5.73 3.02 9.29zm162.5 109.89c.05 3.43-3.17 6.33-7 6.32s-6.84-2.7-7-6 3-6.41 6.83-6.5 7.12 2.76 7.17 6.18z" fill="#333"/><path d="m461.45 223.83v-5.22c0-1 5.36-1.77 13.47-1.94q25.79-.53 51.55 0c8.11.16 13.43.92 13.43 1.94 0 3.52 0 7 .07 10.55 0 .34-.65.43-3.43.42q-35.88-.17-71.78 0c-2.88 0-3.39-.1-3.37-.42.12-1.77.06-3.55.06-5.33z" fill="#555" opacity=".25"/></svg>