<svg xmlns="http://www.w3.org/2000/svg" width="250" height="250">
  <path fill-rule="evenodd" clip-rule="evenodd" fill="#24B5BA" d="M166 29.5l5 1.8c15.9 5.4 24.1 24 17.4 39.4A17 17 0 0 1 178 80.8c-1 .4-2.4 1.2-2.8 2.1l-9.6 25.3 6.2.6v15.5c10.9-.5 19.9 2.6 26.3 11.4a27.7 27.7 0 0 1 4.8 19.5c-1.2 13.9-12.2 22.6-31.1 24v19.4a18.8 18.8 0 0 1-9.8 17c-2.3 1.3-5.1 2-7.7 3H78.6c-.2-.2-.4-.5-.7-.6-12-3.9-16-9.5-16-22.2v-82.2-4.8l6-.6C56.9 93 55.6 75.6 53 57.9l26 15.6c1.2.7 2 2.3 2.7 3.6l16 28.5c.6 1.2 1.6 2 2.5 3l1-.4V29.5H140v78.9c.5 0 1 .2 1.4.3.7-.8 1.5-1.4 2-2.3 5.2-9.2 10.4-18.5 15.4-27.8.6-1.1.3-3.2-.4-4.4-2.8-4.7-4-9.6-1.7-14.7 1.4-3.2 3.6-6.2 5.8-9.1 4.7-6.5 4.9-9.2.6-16l-3-5h6zM69.2 116v81c0 9.1 4.8 14 14 14h67.1c9.1 0 14-5 14-14v-76.4l-.1-4.6h-95zm39.7-78.9v71.1h23.9c-.2-2.8.2-7.3-.8-7.6-4.6-1.5-2.6-4.7-2.9-7.6 6.6-.8 2.5-5.4 3.7-8.7l-11.5-.5c-.9-6.8-.9-6.8 5.4-6.8 1.9 0 3.8-.2 6.4-.4-1.6-3.2 2.3-7.7-4.3-8.5.3-2.3 0-6 1-6.3 5.5-1.8 1.8-5.7 3-9.1h-11.6v-7.4h11.1v-8.2H109zm63 134.2c9.4.9 16.7-2 21.3-10 4-7.2 3.7-14.6-1.1-21.3-4.9-6.9-11.7-9.4-20.2-8.1v39.4zm2.8-129.6c-2.2 4.5-4.2 8.7-6.4 12.8-1.1 2-2.8 3.5-4 5.4-2.7 4.5-1.7 9.6 2.3 12.2 5 3.2 10.3 2.6 13.5-1.7 6.5-8.7 2.7-24.8-5.4-28.7zM66.3 89.6c3 6 5.7 11.6 8.6 17.1.4.9 1.6 1.7 2.5 1.7 4.2.2 8.3.1 13.4.1L76.2 82.2l-10 7.4zM167.8 81l-1.5-.7-15.4 27.7c4.9 1.5 7.3.2 8.5-4 1.2-4.5 3.2-8.7 4.8-13l3.6-10zM62.6 72.2l1.8 9.8 6.2-5-8-4.8z"/>
</svg>
