<svg xmlns="http://www.w3.org/2000/svg" width="250" height="250">
  <g fill-rule="evenodd" clip-rule="evenodd" fill="#24B5BA">
    <path d="M214.4 38.3H35.2c-8.5 0-9.8 1.2-9.8 9.4v154.6c0 8.2 1.3 9.4 9.9 9.4h179.1c9.1 0 10.2-1 10.2-9.8V48.1c0-8.8-1.1-9.8-10.2-9.8zm-1 155.9c0 5-1.3 6.5-6.4 6.5-54.7-.2-109.3-.2-164 0-5 0-6.5-1.5-6.4-6.5.1-36.4.2-72.7 0-109.1-.1-5.4 1.4-7 6.8-6.9 27.2.3 54.4.2 81.6.2 27.2 0 54.4.1 81.6-.2 5.4 0 6.9 1.5 6.9 6.9-.3 36.3-.2 72.7 0 109zm0-136.6c-.3 4.6 1.5 9.3-6.7 9.2-54.5-.3-109.1-.3-163.7 0-7.7 0-6.4-4.3-6.3-8.7 0-4.3-1.6-9 6.2-8.9 27.6.4 55.3.2 83 .2 26.9 0 53.8.2 80.7-.2 7.1-.1 7 3.4 6.8 8.4z"/>
    <path d="M135 117l-12 46.7c-.7 2.7-2.5 5-5.7 4.3-3.4-.8-4.5-3.5-3.7-6.7 4-15.6 7.9-31.2 12-46.7.7-3 2.8-4.6 6-3.8 3 .8 3.8 3.2 3.4 6.2zM96.6 156.9c-.6-.3-1.7-.7-2.7-1.4-1.1-.8-2.1-2-3.1-3-17-16.7-17-18.3 2.4-33.1 2.4-1.8 4.7-2.8 7-.7 2.8 2.5 2 5-.2 7.6-3.2 3.8-9.7 6.6-9.3 11.1.3 3.8 6 7 9.2 10.6 1.8 1.9 2.8 4 1.4 6.5-.8 1.5-2.3 2.3-4.7 2.4zM172.8 137.4c-.7 1.3-1.2 2.7-2.2 3.7a626 626 0 0 1-13.7 13.8c-2.4 2.3-5 3-7.6.3-2.3-2.4-1.3-4.8.6-7 3.2-3.9 10-6.8 9.4-11-.4-4-6.1-7.5-9.5-11.2-1.9-2-2.5-4.2-.8-6.5s4.3-3 6.3-1.1c5.7 5.2 11 10.7 16.4 16.2.6.7.7 1.8 1 2.8zM47.8 61.9c-2.7-.2-4.1-1.3-4.2-3.5-.2-2.5 1.2-4 3.7-4 2.1 0 3.6 1.2 3.8 3.4.2 2.6-1.6 3.6-3.3 4zM59.3 61.9c-2.8-.2-4.1-1.4-4.2-3.6 0-2.4 1.3-4 3.8-4 2.2 0 3.5 1.5 3.7 3.6.1 2.6-1.7 3.6-3.3 4zM70.4 61.9c-2.2-.2-3.7-1.3-3.8-3.5-.1-2.5 1.3-4 3.8-4 2.2-.1 3.5 1.3 3.7 3.4.2 2.5-1.3 3.8-3.7 4z"/>
  </g>
</svg>
