<svg viewBox="0 0 1000 1000" xmlns="http://www.w3.org/2000/svg"><path d="m158 503.21v-2.42c0-182.58 145.58-334.23 342.11-334.23s340.89 149.22 340.89 332.44v1.82c0 182-145.58 333.61-343.32 333.61-195.32-.03-339.68-149.25-339.68-331.22zm536.21 0v-2.42c0-112.83-81.28-206.24-196.53-206.24-117.67.61-192.89 93.41-192.89 205v1.82c0 111.61 81.28 205 195.32 205 118.88 0 194.1-92.2 194.1-202.59z" fill="#d1d3d4"/><path d="m500.11 705.81c-114 0-195.32-93.42-195.32-205v-2.43c0-111 75.22-203.81 192.89-203.81 66.12 0 121.31 30.94 155.89 78.85l98.87-101.29a341.44 341.44 0 0 0 -252.33-106.13c-196.53 0-342.11 151.6-342.11 334.79v2.42c0 182 144.36 331.19 339.68 331.19 105.54 0 195.92-42.46 257.79-110.4l-97.65-98.26a185.62 185.62 0 0 1 -157.71 79.46z" fill="#29bdc2"/></svg>