<svg viewBox="0 0 1000 1000" xmlns="http://www.w3.org/2000/svg" xmlns:xlink="http://www.w3.org/1999/xlink"><mask id="a" height="749.42" maskUnits="userSpaceOnUse" width="706.6" x="147.1" y="33.25"><path d="m179.22 461.49c0 177.38 143.79 321.18 321.18 321.18s321.18-143.8 321.18-321.18h32.12v-428.24h-706.6v428.24z" fill="#fff"/></mask><mask id="b" height="281.21" maskUnits="userSpaceOnUse" width="535.3" x="232.75" y="501.46"><path d="m591.29 566.66c99 8.11 176.76 91 176.76 192.06v23.95h-535.3v-23.95c0-102 79.2-185.45 179.44-192.26-.08 1-.12 2-.12 3 0 31.75 40.15 57.49 89.67 57.49s89.66-25.74 89.66-57.49c0-.92-.04-1.86-.11-2.8z" fill="#fff"/></mask><mask id="c" height="860.74" maskUnits="userSpaceOnUse" width="826" x="76.92" y="-14.12"><path d="m136.62 41.54h706.6v749.42h-706.6z" fill="#fff" transform="matrix(.98480775 -.17364818 .17364818 .98480775 -64.84 91.4)"/></mask><path d="m0 0h1000v1000h-1000z" fill="#29bdc2" opacity=".1"/><path d="m444.8 890.1v-.4c0-30.26 24.13-55.4 56.71-55.4s56.49 24.7 56.49 55.1v.3c0 30.16-24.13 55.3-56.91 55.3-32.36 0-56.29-24.73-56.29-54.9zm88.88 0v-.4c0-18.7-13.47-34.18-32.58-34.18-19.5.1-32 15.48-32 34v.3c0 18.5 13.47 34 32.38 34 19.7 0 32.17-15.29 32.17-33.59z" fill="#d1d3d4"/><path d="m501.51 923.68c-18.91 0-32.38-15.48-32.38-34v-.4c0-18.4 12.47-33.78 32-33.78a31.32 31.32 0 0 1 25.84 13.07l16.39-16.79a56.57 56.57 0 0 0 -41.82-17.6c-32.58 0-56.71 25.14-56.71 55.5v.4c0 30.17 23.93 54.9 56.3 54.9 17.5 0 32.48-7 42.74-18.3l-16.19-16.29a30.74 30.74 0 0 1 -26.14 13.17z" fill="#29bdc2"/><circle cx="500.4" cy="461.49" fill="#24b5ba" r="321.18"/><g mask="url(#a)"><path d="m572.05 512.14a150 150 0 0 0 62.76-132.63 32.13 32.13 0 0 0 21.64-36.11l-6.51-36.9a32.12 32.12 0 0 0 -31.86-26.5l-2.86-16.26a149.89 149.89 0 0 0 -295.22 52.02l2.87 16.24a32.12 32.12 0 0 0 -20.87 35.85l6.5 36.9a32.13 32.13 0 0 0 32.69 26.53 150 150 0 0 0 104.34 103.17l.06.34 126.52-22.31z" fill="#edb98a"/><path d="m575.34 565.87h-10.71v-48.87h-128.47v48.87h-10.71c-106.43 0-192.7 86.28-192.7 192.71v24.09h535.3v-24.09c0-106.43-86.28-192.71-192.71-192.71z" fill="#edb98a"/><path d="m591.29 566.66c99 8.11 176.76 91 176.76 192.06v23.95h-535.3v-23.95c0-102 79.2-185.45 179.44-192.26-.08 1-.12 2-.12 3 0 31.75 40.15 57.49 89.67 57.49s89.66-25.74 89.66-57.49c0-.92-.04-1.86-.11-2.8z" fill="#9a9b9d"/><g mask="url(#b)"><ellipse cx="501.74" cy="573.5" fill-opacity=".16" opacity=".6" rx="106.08" ry="72.04"/></g><g fill-opacity=".6"><circle cx="408.37" cy="354.53" r="16.06"/><circle cx="545.44" cy="330.36" r="16.06"/><path d="m364.53 327.36c7.76-16.34 34.61-29.47 60-27.78a5.35 5.35 0 1 0 .71-10.68c-29.52-2-60.62 13.24-70.41 33.87a5.35 5.35 0 0 0 9.67 4.59z"/><path d="m577.35 289.84c-12.88-12.7-42.61-15.86-65.92-5.58a5.35 5.35 0 1 1 -4.32-9.79c27.07-11.94 61.49-8.29 77.75 7.74a5.35 5.35 0 1 1 -7.51 7.63z"/></g><g fill="#724133" mask="url(#c)"><path d="m549.88 487.67c-5.56 7.22-12.14 11.18-21.4 10.85-1.59-.06-9.9-10.59-25.44-7.85s-19.75 15.48-21.23 16.08c-8.58 3.47-16.12 2-23.81-2.88-14.46-9.17-27.58-23-24.37-41.22 1.67-9.49 5.22-20.21 14.31-24.74 9.72-4.84 24.64-4.35 34.6-8.24 3.23-1.26 6.67-3.1 8.77-5.51 2.8 1.55 6.67 2.09 10.13 2.18 10.69.25 24.55-5.32 35.33-4.09 10.1 1.15 17.1 10 21.91 18.35 9.24 16 1.65 33.51-8.8 47.07m68.34-208.19c-5.09 23.73 3.25 50.68 5.68 74.22 2 19.13 3 48.14-11.62 63.3-7.48 7.75-21.25 21-33 20-8.07-.65-12.8-22.63-24.4-29.13-13.16-7.37-28.25-9-42.62-5.77-6.2 1.37-18.84 3.54-23.23 9.26-6.07-3.88-18.7-1.59-25-.76-14.59 1.92-28.23 8.58-38.07 20-8.68 10.07-5.6 32.35-13 35.72-10.69 4.91-28.16-2.83-37.84-7.55-18.92-9.25-27.89-36.86-32.57-55.52-5.76-23-7.15-51.12-20-71.68-4.38.77 6 42.78 6 42.78l9.45 53.65c7.19 40.28 43 96.16 102.87 109.35 14.64 3.23 47.17 6.92 70.85 2.75s53.14-17.91 65.8-25.95c51.74-32.87 66.13-98.49 59.11-138.8l-9.47-53.66s-4.61-43-9-42.25"/><path d="m346.89 202.36c.3-.2-.51-.11-2.44.26 2.35-.42 3.16-.5 2.44-.26m-28.75-37.65c0-.05.12.39 0 0m299.77 40.81a168.25 168.25 0 0 0 -8.59-25.27 138.23 138.23 0 0 0 -10-18.59c-2.3-3.63-7-8.35-8.18-12.49s1.26-9.26 1.1-14.22a42.85 42.85 0 0 0 -2.93-14.27c-4.07-10.21-13.09-18.79-24.81-19.57-2.62-.18-7.79 1.52-9.82.37-2.32-1.32-4.75-6.78-7-8.74-6.4-5.6-15.32-8.36-23.69-5.37-6.17 2.19-2.29 2.87-7.71 0-3-1.62-5.55-4.44-8.52-6.24a66.65 66.65 0 0 0 -14.42-6.38 135.78 135.78 0 0 0 -41.41-6c-25.18.29-50.69 8.4-73.29 19a199.61 199.61 0 0 0 -32.45 18.61c-4.3 3.11-6.68 5.48-11.47 6.94-7.56 2.3-14.1 3.41-20.84 8-20.72 14-26.74 39.2-14 60a39.18 39.18 0 0 0 9.51 10.7c4.79 3.73 6.08 2.6 3.53 8.3a141.61 141.61 0 0 0 -8.8 26.48c-5.4 23.79-2.55 49 2.22 72.51a193.28 193.28 0 0 0 6.24 24.5c1.19 3.45 2.53 10.08 5.65 12.24a5.47 5.47 0 0 0 5.46.64c4.28-2.05 2.15-5.1 1.71-8.2-2.21-15.61-5.34-29.2-4.35-45.17a118.84 118.84 0 0 1 7.55-34 193.21 193.21 0 0 1 19.64-39.76c2-3 2.3-4.22 5.51-5 2.43-.57 6.32.48 8.81.64 5.5.35 11 .69 16.51.61 10.14-.15 19.92-1.76 29.81-3.83 19.47-4.06 38.88-8.9 57-17.18 12-5.49 22.17-13.34 33.48-19.77.21-.12 2.85-2.81 3.4-2.81.76 0 6.06 3.89 6.92 4.35 6.67 3.56 13.45 4.36 20.41 6.81 8.59 3-.09-1.94 5.19 2.77 1.54 1.38 2.7 4.22 4 5.85a48.24 48.24 0 0 0 15.61 12.53c5.83 3 13.91 3.47 17.43 8.06 2.71 3.53 4.32 8.7 6.69 12.57 6.21 10.14 13.67 19.31 21.15 28.58 6 7.46 12.28 13.81 14.46 23.18.76 3.26 1.1 23.55 7.67 16.2 1-1.09 1.64-11.58 1.84-13.38.81-7.3.26-14.67-.08-22a197.77 197.77 0 0 0 -6.16-42.17"/></g></g><circle cx="498.44" cy="460.36" fill-opacity=".6" r="16.06"/><path d="m342.46 205.59 38.81-10.84 60.52-12.29 75.63-11.27 13.8-1.48 11.53 147.18-32.06 68.24-17.41 10.19-20.01 3.52-40.94-30.48-58.37-97.11z" fill="#555"/><path d="m637.1 225.91c-1.6-4.86-2.8-9.87-4.34-14.76-4.85-15.33-15.82-25.26-29.44-32.63-19.6-10.61-40.58-13-62.4-9.92q-5.89.83-11.83 1.29c-2.2.17-2.92.8-2.43 3.17.77 3.76 1.66 7.5 1.52 11.42a25.18 25.18 0 0 1 -20.6 24.07q-23.43 4.26-46.92 8.22c-2.4.41-2.91 1.09-2.48 3.52q10.49 58.79 20.72 117.61c.44 2.57 1.39 3.08 3.78 3.09 12.76 0 23.72 8.49 25.94 19.8 2.33 11.83-5 23.9-17.39 28.56-1.56.59-3.21.75-2.7 3.43s1.33 3.21 4 2.73q47.61-8.44 94.27-21.14c24.7-6.72 44.33-20.75 56.82-43.7 5.51-10.12 6.51-21 5.47-32.24-.57-6.15-1.18-12.31-1.77-18.46-.05-.56-8.92-50.14-10.22-54.06z" fill="#333"/><path d="m286.48 287.74c-.15-5.13-.75-10.24-1-15.36-.69-16.07 6.22-29.15 16.5-40.73 14.83-16.65 33.73-26.09 55.28-30.65q5.82-1.23 11.56-2.83c2.12-.6 3-.25 3.37 2.15.56 3.79 1 7.62 2.47 11.25a25.2 25.2 0 0 0 27.6 15.57q23.48-4 46.89-8.32c2.4-.44 3.12 0 3.54 2.46q10.24 58.83 20.76 117.61c.46 2.55-.26 3.36-2.5 4.18-12 4.41-19.38 16.1-17.61 27.49 1.86 11.91 12.9 20.73 26.11 20.89 1.68 0 3.28-.4 3.72 2.29s-.15 3.47-2.83 3.94q-47.62 8.32-95.81 12.32c-25.51 2.14-48.76-4.33-68.35-21.63-8.63-7.62-13.3-17.51-16.16-28.42q-2.36-9-4.65-18c-.15-.46-8.77-50.09-8.89-54.21z" fill="#333"/><path d="m401.55 141.32q-3.94-22.32-7.89-44.72c-1.52-8.67 2.6-16.14 10.34-19a145.32 145.32 0 0 1 50.77-8.93c8.23 0 14.62 5.6 16.16 14.32 5.35 30.18 10.62 60.38 16 90.55.51 2.87 0 3.79-2.76 4.16q-35.58 4.8-70.68 12.48c-2.82.61-3.49-.26-4-3.05-2.49-15.26-5.25-30.53-7.94-45.81z" fill="#333"/><path d="m453.63 212.4q-25.69 4.51-51.38 9c-11.69 2.05-21.54-4.77-23.57-16.35-.51-2.94-2.57-6.66-.89-8.66s5.53-1.86 8.47-2.53q46.26-10.62 93.2-17.66 19.05-2.85 38.17-5.12c2.49-.29 3.29.31 3.48 2.67.3 3.59 1.61 7.05 1.39 10.73a19.69 19.69 0 0 1 -16.5 18.67q-26.15 4.67-52.37 9.25z" fill="#333"/><path d="m486 385.26c-7.54 1.23-13.17.26-18.36-2.85a17.68 17.68 0 0 1 -5.6-25.75c6.74-9.87 21-13.14 31.43-7.21 13 7.4 13.27 23.63.59 32.12-2.92 1.96-6.06 3.43-8.06 3.69z" fill="#333"/><g fill="#555"><path d="m554 182.61c12.37-2.16 23.59 5 25.62 16.37 2.24 12.56-6.31 25.73-18.09 27.83-11.4 2-23.92-7.61-26.08-20.09-1.99-11.34 6.17-21.95 18.55-24.11z"/><path d="m596.32 249.05c7.55-1 13.7 1.12 18.1 7.09 4.91 6.66 5.57 14 1.93 21.4-3.43 6.94-9.44 10.48-17.17 10.62a24.1 24.1 0 0 1 -15.61-5.05c-6.91-5.35-8.82-13-4.8-20.76 3.76-7.25 9.93-11.47 17.55-13.3z"/><path d="m564.06 353a27.5 27.5 0 0 1 1.76-14.26c3-7 8.19-10.22 15.74-9.47a26.06 26.06 0 0 1 17.75 9.37c4.18 4.95 4.71 10.65 1.73 16.29a24.3 24.3 0 0 1 -20.37 13.39c-8.62.76-14.78-4.84-16.61-15.32z"/><path d="m515.17 223.6c5.93-.75 12.71.47 17.22 6.9 5 7.07 3.26 14.49-.35 21.49-4.41 8.58-12.42 12.6-19.94 10.49-8.81-2.47-16.12-12.2-15.67-20.86.46-8.94 7.39-16.05 18.74-18.02z"/><path d="m643.56 295.66a15.66 15.66 0 0 1 -2.15 11c-2.8 4.25-7.42 5-11.49 1.93-6-4.55-8-15.53-4-21.91 2.88-4.56 7.74-5.37 12-2 2.7 2.22 4.8 6.07 5.64 10.98z"/><path d="m631.6 227.66c.6 3.94.4 7.85-1.72 11.43-2.84 4.78-7.88 5.61-12.19 2.09-5.59-4.56-7.49-14.83-3.9-21.12 2.91-5.1 8.22-6 12.64-2.16 2.93 2.57 4.36 5.96 5.17 9.76z"/><path d="m331.26 242.92c-2.05-11.4 6-22.07 18.3-24.26s23.74 4.86 25.79 16.11c2.29 12.51-6.05 25.84-17.45 27.93-11.77 2.15-24.38-7.22-26.64-19.78z"/><path d="m317.54 318.27c-2.71-14.74 11.13-26.59 26-22.27a30.22 30.22 0 0 1 3.94 1.4c12.52 5.6 15.26 18.19 6.17 28.6-10 11.38-25.9 11.43-33.17.09a20.07 20.07 0 0 1 -2.94-7.82z"/><path d="m398.73 383.5c2 11.72-5.4 20.16-17.3 19.69-6.23-.24-12-1.86-16.65-6.14s-6.61-9.85-4.37-16.11a25.94 25.94 0 0 1 13.37-15c7.6-3.72 14.66-1.67 19.89 5.42a31 31 0 0 1 5.06 12.14z"/><path d="m401.66 243.61c10.45-1.86 20 3.24 22.82 12.12 2.9 9.33-2.2 21.41-10.89 25.13-7.67 3.28-14 .09-19.85-4.77a24.11 24.11 0 0 1 -5.74-7.4c-5.86-11.14.47-22.69 13.66-25.08z"/><path d="m323.41 351.55c.51 3.94.29 7.73-1.8 11.19-2.82 4.66-7.62 5.52-11.93 2.2-5.87-4.53-7.82-15.3-3.92-21.65 2.91-4.73 7.91-5.57 12.21-2 3.2 2.71 4.64 6.33 5.44 10.26z"/><path d="m311.61 284.75a16 16 0 0 1 -1.82 10.77c-2.87 4.79-7.84 5.62-12.17 2.09-5.58-4.54-7.48-14.83-3.91-21.1 2.9-5.1 8.19-6 12.65-2.17 2.5 2.15 4.4 5.76 5.25 10.41z"/><path d="m494.81 363.71c1.25 6.71-4.2 13.56-11.74 14.77-7.83 1.25-15.13-3.56-15.94-10.5s5.34-13.67 12.9-14.22 13.6 3.61 14.78 9.95z"/></g><path d="m554.68 185.34c10.76-1.83 20.51 4.45 22.15 14.27 1.87 11.16-5.65 22.74-15.87 24.44-10 1.66-20.89-6.89-22.77-17.8-1.72-9.94 5.45-19.03 16.49-20.91z" fill="#333"/><path d="m615.47 265.5c1.92 11.95-7.06 21.07-19.43 19.72-8.38-.91-15.3-6.42-16.35-13-1.11-6.88 4.25-15.11 12.14-18.66 11-4.96 21.81.5 23.64 11.94z" fill="#333"/><path d="m566.79 352.14a23.93 23.93 0 0 1 1.21-11.41c2.56-6.8 7.35-9.72 14.46-8.56a23.94 23.94 0 0 1 14.86 8.48c3 3.63 3.42 7.77 1.67 12.14-2.66 6.64-11.52 12.73-18.68 12.84s-11.93-4.28-13.52-13.49z" fill="#333"/><path d="m514.14 226.63c9.24-1.65 17.27 2.94 18.09 10.92.87 8.32-2.11 15.33-9 20.36-3.82 2.77-8 2.95-12.27 1.2-7.06-2.87-12.26-11.12-11.54-18.31s6.45-12.7 14.72-14.17z" fill="#333"/><path d="m640.88 296.58a12.8 12.8 0 0 1 -1.55 8.15c-1.91 3.31-4.88 3.84-7.89 1.53-4.69-3.61-6.35-12.74-3.24-17.85 2.06-3.4 5.09-3.88 8.16-1.29 2.06 1.73 3.69 4.88 4.52 9.46z" fill="#333"/><path d="m628.84 228.19a14.11 14.11 0 0 1 -1.21 9.16c-1.88 3.49-5 4.12-8.09 1.7-4.67-3.7-6.29-12.79-3.17-17.86 1.94-3.16 5.09-3.75 8-1.38a13.77 13.77 0 0 1 4.47 8.38z" fill="#333"/><path d="m350.16 221.39c10.91-2 20.76 4.27 22.49 14.25 1.89 10.86-5.65 22.66-15.54 24.36-10.22 1.75-21.21-6.69-23.11-17.77-1.69-9.81 5.35-18.89 16.16-20.84z" fill="#333"/><path d="m320.29 317.85c-2.25-12.55 8.23-22.08 21.52-19.33 6.6 1.37 12.22 4.64 14 11.65s-1.75 12.23-6.85 16.47c-11.5 9.53-26.21 4.97-28.67-8.79z" fill="#333"/><path d="m395.92 383.92c1.73 9.95-4.38 16.89-14.52 16.48a23.35 23.35 0 0 1 -14-4.73c-5-3.95-6.4-9.44-3.78-15.27a24.17 24.17 0 0 1 10.1-11.26c6.64-3.83 12.48-2.68 17.27 3.34a25.77 25.77 0 0 1 4.93 11.44z" fill="#333"/><path d="m402.3 246.35c8.65-1.5 16 2.11 19.1 9.33 3.38 8-1.57 19.9-9.56 23a12.24 12.24 0 0 1 -8.58-.07 21.69 21.69 0 0 1 -14.16-14.83c-2.49-8.15 3.44-15.73 13.2-17.43z" fill="#333"/><path d="m320.57 351.55c.55 3.47.39 6.68-1.32 9.63-1.92 3.3-4.93 3.84-7.9 1.52-4.7-3.65-6.34-12.73-3.24-17.85 2.06-3.39 5.16-3.91 8.17-1.27a13.88 13.88 0 0 1 4.29 7.97z" fill="#333"/><path d="m308.8 284.9a13.76 13.76 0 0 1 -1.27 8.92c-1.89 3.47-5.06 4.08-8.12 1.66-4.64-3.69-6.23-12.82-3.1-17.88 1.95-3.14 5.12-3.72 8-1.33 2.56 2.18 3.86 5.12 4.49 8.63z" fill="#333"/><path d="m487.91 364.9c.64 3.37-2 6.78-5.81 7.44-3.63.64-7.2-1.47-7.92-4.69s1.83-6.83 5.6-7.59 7.49 1.48 8.13 4.84z" fill="#333"/><path d="m408.81 182.54c-.3-1.71-.61-3.42-.9-5.13-.17-1 5-2.68 12.93-4.25q25.31-5 50.77-8.95c8-1.25 13.38-1.42 13.56-.42.64 3.46 1.2 6.93 1.9 10.38.07.33-.56.54-3.31 1q-35.36 6.06-70.68 12.46c-2.84.52-3.36.5-3.39.17-.19-1.8-.57-3.51-.88-5.26z" fill="#555" opacity=".25"/></svg>