<svg xmlns="http://www.w3.org/2000/svg" viewBox="0 0 150 150"><circle cx="75" cy="75" r="65" fill="#fff"/><path d="M18.7 75.5v-.4C18.7 45 42.7 20 75.1 20s56.2 24.6 56.2 54.8v.3c0 30-24 55-56.6 55-32.2 0-56-24.6-56-54.6zm88.4 0v-.4c0-18.6-13.4-34-32.4-34-19.4.1-31.8 15.4-31.8 33.8v.3c0 18.4 13.4 33.8 32.2 33.8 19.6 0 32-15.2 32-33.5z" fill="#d1d3d4"/><path d="M75.1 108.9c-18.8 0-32.2-15.4-32.2-33.8v-.4c0-18.3 12.4-33.6 31.8-33.6 10.9 0 20 5.1 25.7 13l16.3-16.7C105.9 26 90.8 19.7 75.1 19.9c-32.4 0-56.4 25-56.4 55.2v.4c0 30 23.8 54.6 56 54.6 17.4 0 32.3-7 42.5-18.2l-16.1-16.2c-5.9 8.5-15.7 13.4-26 13.2z" fill="#29bdc2"/></svg>