<?xml version="1.0" encoding="utf-8"?>
<!-- Generator: Adobe Illustrator 16.0.0, SVG Export Plug-In . SVG Version: 6.00 Build 0)  -->
<!DOCTYPE svg PUBLIC "-//W3C//DTD SVG 1.1//EN" "http://www.w3.org/Graphics/SVG/1.1/DTD/svg11.dtd">
<svg version="1.1" id="Layer_1" xmlns="http://www.w3.org/2000/svg" xmlns:xlink="http://www.w3.org/1999/xlink" x="0px" y="0px"
	 width="150px" height="150px" viewBox="0 0 150 150" enable-background="new 0 0 150 150" xml:space="preserve">
<g>
	<path fill="#D1D3D4" d="M18.806,75.85v-0.4c0-30.199,24-55.199,56.399-55.199s56.199,24.601,56.199,54.8v0.399
		c0,30-23.999,55-56.599,55C42.606,130.449,18.806,105.85,18.806,75.85z M107.204,75.85v-0.4c0-18.6-13.398-33.999-32.398-33.999
		c-19.4,0-31.8,15.2-31.8,33.6v0.399c0,18.4,13.399,33.8,32.199,33.8C94.806,109.249,107.204,94.05,107.204,75.85z"/>
</g>
<g>
	<path fill="#29BDC2" d="M75.205,109.249c-18.8,0-32.199-15.399-32.199-33.8V75.05c0-18.399,12.399-33.6,31.8-33.6
		c10.879,0,19.915,5.055,25.658,12.862c5.242-5.238,11.548-11.603,16.313-16.609C106.711,26.978,92.138,20.25,75.205,20.25
		c-32.399,0-56.399,25-56.399,55.199v0.4c0,30,23.801,54.6,56,54.6c17.385,0,32.32-7.112,42.478-18.298l-16.11-16.083
		C95.678,104.037,86.678,109.249,75.205,109.249z"/>
</g>
</svg>
