<svg enable-background="new 0 0 112.6 110.2" viewBox="0 0 112.6 110.2" xmlns="http://www.w3.org/2000/svg"><path d="m0 55.6v-.4c0-30.2 24-55.2 56.4-55.2s56.2 24.6 56.2 54.8v.4c0 30-24 55-56.6 55-32.2 0-56-24.6-56-54.6zm88.4 0v-.4c0-18.6-13.4-34-32.4-34-19.4 0-31.8 15.2-31.8 33.6v.4c0 18.4 13.4 33.8 32.2 33.8 19.6 0 32-15.2 32-33.4z" fill="#d1d3d4"/><path d="m56.4 89c-18.8 0-32.2-15.4-32.2-33.8v-.4c0-18.4 12.4-33.6 31.8-33.6 10.9 0 19.9 5.1 25.7 12.9 5.2-5.2 11.5-11.6 16.3-16.6-10.1-10.8-24.7-17.5-41.6-17.5-32.4 0-56.4 25-56.4 55.2v.4c0 30 23.8 54.6 56 54.6 17.4 0 32.3-7.1 42.5-18.3l-16.1-16.1c-5.5 8-14.5 13.2-26 13.2z" fill="#29bdc2"/></svg>