<svg xmlns="http://www.w3.org/2000/svg" width="1190.5" height="1168">
  <circle fill="#FFF" cx="595.3" cy="584" r="420.9"/>
  <path fill="#24B5BA" d="M352.5 583.8c0-23.3.2-46.6 0-69.9a25.6 25.6 0 0 1 12.3-23.4c72-47.8 144-95.8 216-144 9.9-6.6 19-6.7 29 0 72 48.3 144.2 96.4 216.4 144.3 8.3 5.5 12 12.6 12 22.3-.2 47.3-.2 94.6 0 141.8 0 9.5-3.6 16.5-11.6 21.8L609 821.7c-9.3 6.3-18 6.3-27.3.1L364 676.8a24 24 0 0 1-11.6-21.8v-71.2zm221.8-182.7L411.4 509.7c1 1 1.7 1.7 2.4 2.2 22.2 14.8 44.5 29.6 66.5 44.6 3.6 2.5 5.7 1 8.4-.8 26.7-18 53.4-35.9 80.3-53.6 4.2-2.7 5.5-5.7 5.4-10.6-.2-26 0-52 0-78V401zm42 0c0 32.6-.1 63.4.2 94.2 0 2 2.4 4.7 4.4 6 27 18.3 54.2 36.3 81.2 54.6 3.4 2.3 5.6 2.3 9 0 21.3-14.5 42.8-28.7 64.2-43 1.3-.9 2.3-2 3.8-3.2L616.3 401zM411 658l163.3 108.8-.1-94.2c0-1.8-1.7-4.2-3.3-5.3-27.8-18.7-55.7-37.4-83.7-55.9-1.4-1-4.5-1.2-5.8-.3-23.3 15.3-46.4 30.8-70.4 46.9zm295.6-49c-29.2 19.6-58.1 38.7-86.8 58.3-2 1.4-3.4 5.2-3.4 7.9-.2 28.3-.2 56.6-.1 85 0 1.6.2 3.3.4 6.2l162.9-108.6-73-48.8zm-185.1-25c24.2 16 47.7 31.9 71.3 47.3 1.4 1 4.8.3 6.5-.8 12.2-8 24.3-16.1 36.4-24.3L669 584a7979.6 7979.6 0 0 0-71.2-47.4c-1.2-.9-4-.7-5.3.1l-71 47.3zm-126.8 34.5l51.8-34.6-51.8-34.6v69.2zm401-.1v-69c-17.6 11.8-34.2 23-51.6 34.5l51.5 34.5z"/>
</svg>
