<svg xmlns="http://www.w3.org/2000/svg" width="1190.549" height="1168" viewBox="0 1109.445 1190.549 1168"><path fill-rule="evenodd" clip-rule="evenodd" fill="#FFF" d="M352.499 1693.25c0-23.288.175-46.58-.081-69.865-.113-10.297 3.719-17.684 12.413-23.453a66524.605 66524.605 0 0 0 215.877-143.892c9.984-6.679 19.079-6.747 29.079-.054a75507.964 75507.964 0 0 0 216.431 144.297c8.236 5.471 11.94 12.56 11.917 22.312-.119 47.264-.109 94.527-.007 141.79.021 9.481-3.554 16.484-11.559 21.805a108554.448 108554.448 0 0 0-217.583 145.024c-9.274 6.197-18.021 6.257-27.299.059-72.48-48.415-144.998-96.776-217.59-145.023-7.993-5.312-11.698-12.269-11.643-21.76.137-23.748.045-47.494.045-71.24zm221.831-182.7l-162.918 108.604c1.075.969 1.679 1.663 2.417 2.159 22.184 14.861 44.456 29.595 66.5 44.658 3.604 2.462 5.68.978 8.375-.828 26.735-17.911 53.435-35.877 80.312-53.575 4.159-2.739 5.473-5.736 5.428-10.589-.238-26.033-.113-52.07-.113-78.106l-.001-12.323zm41.929.013c0 32.557-.088 63.369.195 94.178.018 2.055 2.414 4.692 4.399 6.034 27.034 18.283 54.236 36.317 81.262 54.612 3.368 2.28 5.63 2.259 8.969-.009 21.334-14.487 42.831-28.738 64.254-43.094 1.228-.824 2.286-1.896 3.791-3.162l-162.87-108.559zM410.991 1767.3l163.329 108.845c0-32.54.057-63.347-.144-94.151-.012-1.807-1.684-4.219-3.288-5.303a10221.527 10221.527 0 0 0-83.674-55.927c-1.452-.961-4.517-1.231-5.861-.346-23.243 15.287-46.333 30.807-70.362 46.882zm295.62-48.822c-29.221 19.521-58.114 38.709-86.78 58.227-2.046 1.393-3.407 5.218-3.433 7.926-.242 28.314-.158 56.634-.133 84.952.003 1.701.251 3.402.479 6.261 54.658-36.438 108.418-72.276 162.829-108.551-24.684-16.516-48.553-32.484-72.962-48.815zm-185.107-25.118c24.201 16.171 47.652 31.935 71.288 47.411 1.409.92 4.758.23 6.459-.865 12.262-7.908 24.336-16.11 36.46-24.228 10.926-7.312 21.845-14.639 33.332-22.338-24.171-16.154-47.636-31.895-71.229-47.438-1.245-.822-4.036-.69-5.336.168-23.4 15.438-46.68 31.052-70.974 47.29zm-126.817 34.627l51.774-34.637-51.774-34.602v69.239zm400.95-.174v-68.92a805539.38 805539.38 0 0 0-51.489 34.475l51.489 34.445z"/><circle fill="none" stroke="#FFF" stroke-width="14.173" stroke-miterlimit="10" cx="595.275" cy="1693.445" r="420.945"/></svg>