<svg xmlns="http://www.w3.org/2000/svg" viewBox="0 0 1190.5 1168"><path d="M352.4 582.3c0-44 10.9-84.7 32.6-121.9s51.2-66.7 88.4-88.4c37.2-21.7 77.9-32.6 121.9-32.6S680 350.3 717.2 372c37.2 21.7 66.7 51.2 88.4 88.4 21.7 37.2 32.6 77.9 32.6 121.9s-10.9 84.7-32.6 121.9c-21.7 37.2-51.2 66.7-88.4 88.4-37.2 21.7-77.9 32.6-121.9 32.6s-84.7-10.9-121.9-32.6-66.7-51.2-88.4-88.4c-21.7-37.2-32.6-77.8-32.6-121.9zm40.3 0c0 50.6 17 95 51 133.6 15.5-30.4 40.1-59.4 73.8-86.9s66.6-44.9 98.6-52c-4.9-11.4-9.5-21.5-14.1-30.6-55.6 17.8-115.8 26.6-180.6 26.6-12.6 0-22-.2-28.2-.5 0 1.3-.1 2.9-.2 4.9-.2 2.1-.3 3.6-.3 4.9zm6.3-50c7.1.6 17.7.9 31.5.9 54.1 0 105.5-7.2 154-21.8-24.6-43.7-51.7-80.1-81.2-109.3-25.5 12.9-47.6 30.9-65.9 54-18 23-30.9 48.3-38.4 76.2zm72.4 209.9C508 770.7 549.3 785 595.3 785c24 0 47.8-4.5 71.4-13.6-6.5-55.4-19.1-109-37.9-160.8-29.8 6.5-59.9 22.8-90.2 49.1-30.2 26.1-52.6 53.6-67.2 82.5zm74.4-355.7c28.5 29.5 54.9 66.3 79.2 110.3 44-18.5 77.2-42 99.6-70.4-37.5-31.1-80.6-46.6-129.2-46.6-16.6-.1-33.1 2.2-49.6 6.7zm96.6 144.8c4.9 10.3 10.3 23.5 16.5 39.4 24-2.3 50-3.4 78.3-3.4 20.1 0 40 .5 59.8 1.4-2.6-44-18.5-83.2-47.6-117.6-21.2 31.5-56.7 58.2-107 80.2zm28.8 73.4c16.5 48 27.7 97.2 33.5 147.6 25.5-16.5 46.5-37.7 62.7-63.7 16.2-26 26-54 29.2-84.1-23.7-1.7-45.2-2.4-64.6-2.4-17.9.1-38.2.9-60.8 2.6z" fill="#fff"/><circle cx="595.3" cy="584" r="420.9" fill="none" stroke="#fff" stroke-width="14.173" stroke-miterlimit="10"/></svg>