<svg xmlns="http://www.w3.org/2000/svg" width="1190.5" height="1168" viewBox="0 2325.4 1190.5 1168">
  <circle fill="none" stroke="#FFF" stroke-width="14.2" stroke-miterlimit="10" cx="595.3" cy="2909.4" r="420.9"/>
  <path fill-rule="evenodd" clip-rule="evenodd" fill="#FFF" d="M595 2741.3c65.9 0 131.7.3 197.6-.2a42.1 42.1 0 0 1 43.2 43.1V3035a41 41 0 0 1-41.6 42.8H395.5A40.4 40.4 0 0 1 355 3038c-.3-19-.1-38-.1-57v-196.7a41.2 41.2 0 0 1 42.3-43h198zM405.8 2771l-.6 1 2.6 1.9a71651 71651 0 0 0 156.3 143 230 230 0 0 0 21.5 16.4c6.2 4.3 13 4.2 19.3 0 6.3-4.3 12.7-8.5 18.3-13.5 53.4-48.7 106.7-97.6 160-146.4.7-.6 1.2-1.4 2-2.4H405.8zm378.9 277l-125-114.6c-6.6 5.9-13.1 11.4-19.2 17.4a67.2 67.2 0 0 1-91.3-.8c-5.8-5.7-12-11-18.3-16.6-41.6 38-83 76-125 114.6h378.8zM681 2911l124.4 115.8v-228.6L681 2911zm-171.7 0L385 2798.2v228.5l124.4-115.9z"/>
</svg>
