<svg xmlns="http://www.w3.org/2000/svg" width="1190.5" height="1168">
  <circle fill="#FFF" cx="595.3" cy="584" r="420.9"/>
  <path fill="#24B5BA" d="M595 415.8c65.9 0 131.7.4 197.6-.2a42.1 42.1 0 0 1 43.2 43.2v250.8a41 41 0 0 1-41.6 42.7c-132.9 0-265.8.1-398.7 0a40.4 40.4 0 0 1-40.6-39.8c-.3-19-.1-38-.1-56.9V458.8a41.2 41.2 0 0 1 42.3-43h198zm-189.2 29.8l-.6 1c.8.6 1.8 1.1 2.6 1.9 52 47.6 104.1 95.4 156.3 142.9a214 214 0 0 0 21.5 16.4 16 16 0 0 0 19.3 0c6.3-4.2 12.7-8.4 18.3-13.5 53.4-48.7 106.7-97.5 160-146.4.7-.6 1.2-1.3 2-2.3H405.8zm378.9 277l-125-114.7c-6.6 6-13.1 11.5-19.2 17.4a67.2 67.2 0 0 1-91.3-.7c-5.8-5.8-12.1-11-18.4-16.7-41.5 38.1-83 76-125 114.7h378.9zM681 585.5l124.4 115.8V472.8c-41.7 37.8-83 75-124.4 112.7zm-171.7 0L385 472.8v228.5l124.4-115.8z"/>
</svg>
