<svg xmlns="http://www.w3.org/2000/svg" width="1190.5" height="1168" viewBox="0 3529.4 1190.5 1168">
  <circle fill="none" stroke="#FFF" stroke-width="14.2" stroke-miterlimit="10" cx="595.3" cy="4113.4" r="420.9"/>
  <path fill="#FFF" d="M728.7 4506.2c-21.1 4.1-28.7-8.9-28.7-20 0-13.8.5-58.8.5-114.7 0-39-13.3-64.3-28.3-77.3 93-10.3 190.8-45.7 190.8-206.2 0-45.7-16.2-83-43-112.2 4.3-10.5 18.7-53-4.1-110.6 0 0-35.1-11.2-114.9 42.9a398.4 398.4 0 0 0-209.2 0C412 3854 377 3865 377 3865c-22.7 57.6-8.4 100.1-4.1 110.7a161.8 161.8 0 0 0-43 112.2c0 160 97.6 196 190.4 206.5-12 10.4-22.8 28.9-26.6 55.8-23.7 10.7-84.3 29.2-121.6-34.7 0 0-22-40.1-64-43 0 0-40.9-.5-2.9 25.4 0 0 27.4 12.8 46.4 61 0 0 24.6 74.6 140.8 49.4l.5 77.8c0 11-7.6 23.9-28.5 20-150.4-50-267-178.6-286.7-340.5 25.2 206.6 205.4 362 418.8 362s394.6-159.6 419.8-366.3c-19.8 161.9-137.1 294.7-287.5 344.8z"/>
</svg>
