<svg xmlns="http://www.w3.org/2000/svg" width="1190.5" height="1168">
  <circle fill="#FFF" cx="596.3" cy="585.6" r="420.9"/>
  <path fill="#24B5BA" d="M595.3 161.5a423 423 0 0 0-133.7 824.2c21.1 3.9 28.9-9.2 28.9-20.4l-.6-78.7c-117.6 25.6-142.5-49.9-142.5-49.9-19.3-48.8-47-61.8-47-61.8-38.4-26.2 3-25.7 3-25.7 42.4 3 64.8 43.6 64.8 43.6 37.7 64.6 99 45.9 123 35 3.9-27.2 14.8-45.9 26.9-56.4-93.9-10.7-192.6-47-192.6-209 0-46.2 16.5-84 43.5-113.5-4.4-10.8-19-53.8 4.1-112 0 0 35.5-11.4 116.3 43.4a402.5 402.5 0 0 1 211.8 0c80.6-54.8 116.2-43.4 116.2-43.4 23 58.3 8.5 101.3 4.2 112a163.2 163.2 0 0 1 43.5 113.5c0 162.4-99 198.2-193.2 208.7 15.3 13 28.7 38.8 28.7 78.2 0 56.6-.5 102.2-.5 116 0 11.3 7.7 24.5 29 20.4a423 423 0 0 0-133.8-824.2z"/>
</svg>
