<svg xmlns="http://www.w3.org/2000/svg" width="1190.5" height="1168">
  <circle fill="#FFF" cx="595.3" cy="584" r="420.9"/>
  <g fill="#24B5BA">
    <path d="M826.9 724.5V526H696a117 117 0 0 1 16.8 60 117.9 117.9 0 1 1-235.8 0c0-22 6.3-42.4 16.8-60H363.7v198.4a92 92 0 0 0 92.3 91h279.7a91.1 91.1 0 0 0 91.2-91z"/>
    <path d="M595 677a90.9 90.9 0 1 0-.1-181.8 90.9 90.9 0 0 0 0 181.7zm.3-158a67 67 0 1 1 0 134.2 67 67 0 0 1 0-134.2z"/>
    <path d="M735.7 352.4h-237V449h-19.2v-96.6h-19.3V449h-19.3v-95a92.3 92.3 0 0 0-19.3 5.1V449h-19.3v-79.3a90.6 90.6 0 0 0-38.6 73.8v63.3h144.2a117.3 117.3 0 0 1 174.1 0h145v-63.3a91.1 91.1 0 0 0-91.2-91zM788.2 454c0 7.9-6.3 14.2-14.4 14.2h-48.4c-7.9 0-14.4-6.3-14.4-14.2v-48.8c0-7.9 6.5-14.1 14.4-14.1h48.4c8 0 14.4 6.2 14.4 14.1V454z"/>
  </g>
</svg>
