<svg xmlns="http://www.w3.org/2000/svg" width="1190.5" height="1168" viewBox="0 4765.4 1190.5 1168">
  <circle fill="none" stroke="#FFF" stroke-width="14.2" stroke-miterlimit="10" cx="596.9" cy="5349.4" r="420.9"/>
  <g fill="#FFF">
    <path d="M826.9 5490v-198.5H696a117 117 0 0 1 16.8 60 117.9 117.9 0 1 1-235.8 0c0-22 6.3-42.4 16.8-60H363.7V5490a92 92 0 0 0 92.3 91.1h279.7a91.1 91.1 0 0 0 91.2-91z"/>
    <path d="M595 5442.4a90.9 90.9 0 1 0-.2-181.8 90.9 90.9 0 0 0 .2 181.8zm.3-158a67 67 0 1 1 0 134.2 67 67 0 0 1 0-134.2z"/>
    <path d="M735.7 5117.9h-237v96.5h-19.2v-96.5h-19.3v96.5h-19.3v-95a92.3 92.3 0 0 0-19.3 5.2v89.8h-19.3v-79.2a90.6 90.6 0 0 0-38.6 73.8v63.3h144.2a117.3 117.3 0 0 1 174.1 0h145V5209a91.1 91.1 0 0 0-91.2-91.1zm52.5 101.5c0 8-6.3 14.3-14.4 14.3h-48.4c-7.9 0-14.4-6.4-14.4-14.3v-48.7c0-8 6.5-14.2 14.4-14.2h48.4c8 0 14.4 6.3 14.4 14.2v48.7z"/>
  </g>
</svg>
