<svg xmlns="http://www.w3.org/2000/svg" width="1190.5" height="1168">
  <circle fill="#FFF" cx="595.3" cy="584" r="420.9"/>
  <path fill="#24B5BA" d="M518.2 807.5C705 807.5 807 653 807 518.8c0-4.4 0-8.9-.2-13a208 208 0 0 0 50.7-52.7 206 206 0 0 1-58.3 16c21-12.6 37-32.4 44.6-56.2a205.5 205.5 0 0 1-64.4 24.6 101.5 101.5 0 0 0-172.8 92.6 288 288 0 0 1-209.2-106A101.8 101.8 0 0 0 429 559.4c-16.6-.4-32.2-5-45.9-12.6v1.2c0 49.3 35 90.1 81.5 99.6a101.2 101.2 0 0 1-46 1.7 101.3 101.3 0 0 0 94.8 70.5 204 204 0 0 1-150.3 41.9c44.4 29 97.9 45.8 155.1 45.8"/>
</svg>
